<?xml version="1.0" standalone="no"?>
<!DOCTYPE svg PUBLIC "-//W3C//DTD SVG 1.1//EN" "http://www.w3.org/Graphics/SVG/1.1/DTD/svg11.dtd" >
<svg>
<metadata>
Created by FontForge 20090914 at Sun Aug 16 12:19:09 2020
 By www-data
(c) 2001-2003, Created by Jean Francois Porchez, Porchez Typofonderie. All rights reserved.
</metadata>
<defs>
<font id="Anisette-Petite" horiz-adv-x="500" >
  <font-face 
    font-family="Anisette"
    font-weight="400"
    font-stretch="normal"
    units-per-em="1000"
    panose-1="2 0 5 3 5 0 0 2 0 3"
    ascent="800"
    descent="-200"
    x-height="452"
    cap-height="674"
    bbox="-84 -219 1116 905"
    underline-thickness="20"
    underline-position="-113"
    unicode-range="U+0020-U+FB04"
  />
<missing-glyph 
 />
    <glyph glyph-name="ff" unicode="ff" horiz-adv-x="583" 
d="M401 578c-11.333 7.33301 -24.166 12.8311 -38.499 16.498s-31.5 5.5 -51.5 5.5c-23.333 0 -43.5 -3.33301 -60.5 -10s-31 -15.5 -42 -26.5s-19.167 -23.833 -24.5 -38.5s-8 -30 -8 -46v-27h192v35c0 16.667 2.66699 32.834 8 48.501s13.666 29.834 24.999 42.501z
M623 607.998c-56 1.33301 -97.332 -9.83496 -123.999 -33.502s-40 -53.5 -40 -89.5v-33h120v-73h-120v-379h-91v379h-192v-379h-91v379h-79v73h79v27c0 32.667 6.16699 61.334 18.5 86.001s29 45.167 50 61.5s45.167 28.5 72.5 36.5s56 12 86 12
c29.333 0 55.166 -3.33301 77.499 -10s42.5 -14 60.5 -22c20.667 13.333 45 23.833 73 31.5s61 10.834 99 9.50098z" />
    <glyph glyph-name="fi" unicode="fi" horiz-adv-x="530" 
d="M368 0l0.00292969 381.002h-193v-381h-91v381h-78v71h78v34c0 33.333 6.16699 62.5 18.5 87.5s28.666 45.667 48.999 62s43.666 28.666 69.999 36.999s53.5 12.5 81.5 12.5c26.667 0 52.167 -2.83301 76.5 -8.5s47.5 -15.167 69.5 -28.5l-27 -71
c-18.667 11.333 -37.667 19.666 -57 24.999s-41 8 -65 8c-22.667 0 -41.834 -3.83301 -57.501 -11.5s-28.5 -17.5 -38.5 -29.5s-17.333 -25.5 -22 -40.5s-7 -29.833 -7 -44.5v-32h284v-452h-91z" />
    <glyph glyph-name="fl" unicode="fl" horiz-adv-x="526" 
d="M368 592c-11.333 6 -22.333 10.5 -33 13.5s-23.667 4.5 -39 4.5c-22 0 -40.667 -3.83301 -56 -11.5s-27.833 -17.667 -37.5 -30s-16.667 -26 -21 -41s-6.5 -29.833 -6.5 -44.5v-31h193v140zM406 0c-13.333 30 -22.999 60.5 -28.999 91.5s-9 66.167 -9 105.5v186h-193
v-383h-91v383h-78v69h78v33c0 34 6.16699 63.5 18.5 88.5s28.666 45.833 48.999 62.5s43.666 29 69.999 37s53.5 12 81.5 12s55.333 -2.83301 82 -8.5s51.334 -15.167 74.001 -28.5v-447c0 -42.667 2.33301 -79.5 7 -110.5s13 -61.167 25 -90.5h-85z" />
    <glyph glyph-name="ffi" unicode="ffi" horiz-adv-x="814" 
d="M398 580c-11.333 6.66699 -23.833 11.667 -37.5 15s-30.167 5 -49.5 5c-23.333 0 -43.5 -3.33301 -60.5 -10s-31 -15.5 -42 -26.5s-19.167 -23.833 -24.5 -38.5s-8 -30 -8 -46v-27h192v33c0 36 10 67.667 30 95zM652 0v379.001h-193v-379h-91v379h-192v-379h-91v379h-79
v73h79v27c0 32.667 6.16699 61.334 18.5 86.001s29 45.167 50 61.5s45.167 28.5 72.5 36.5s56 12 86 12c28 0 53.167 -3 75.5 -9s42.166 -12.667 59.499 -20c20 13.333 42 23.166 66 29.499s48.667 9.5 74 9.5c26.667 0 52.167 -2.83301 76.5 -8.5s47.5 -15.167 69.5 -28.5
l-27 -73c-19.333 11.333 -38.666 19.666 -57.999 24.999s-40.666 8 -63.999 8c-22.667 0 -41.834 -3.66699 -57.501 -11s-28.5 -17 -38.5 -29s-17.333 -25.5 -22 -40.5s-7 -29.833 -7 -44.5v-31h283v-452h-90z" />
    <glyph glyph-name="ffl" unicode="ffl" horiz-adv-x="810" 
d="M398 580c-11.333 6.66699 -23.833 11.667 -37.5 15s-30.167 5 -49.5 5c-23.333 0 -43.5 -3.33301 -60.5 -10s-31 -15.5 -42 -26.5s-19.167 -23.833 -24.5 -38.5s-8 -30 -8 -46v-27h192v33c0 36 10 67.667 30 95zM652 592c-11.333 6 -22.333 10.5 -33 13.5
s-23.667 4.5 -39 4.5c-22 0 -40.667 -3.83301 -56 -11.5s-27.833 -17.667 -37.5 -30s-16.667 -26 -21 -41s-6.5 -29.833 -6.5 -44.5v-31h193v140zM689 0c-13.333 30 -22.832 60.5 -28.499 91.5s-8.5 66.167 -8.5 105.5v182h-193v-379h-91v379h-192v-379h-91v379h-79v73h79
v27c0 32.667 6.16699 61.334 18.5 86.001s29 45.167 50 61.5s45.167 28.5 72.5 36.5s56 12 86 12c28 0 53.167 -3 75.5 -9s42.166 -12.667 59.499 -20c20 13.333 42 23.166 66 29.499s48.667 9.5 74 9.5c27.333 0 54.5 -2.83301 81.5 -8.5s51.5 -15.167 73.5 -28.5v-447
c0 -42.667 2.5 -79.5 7.5 -110.5s13.167 -61.167 24.5 -90.5h-85z" />
    <glyph glyph-name=".notdef" 
 />
    <glyph glyph-name="space" unicode=" " horiz-adv-x="264" 
 />
    <glyph glyph-name="exclam" unicode="!" horiz-adv-x="269" 
d="M186 55c0 -15.333 -5 -28.666 -15 -39.999s-22.667 -17 -38 -17c-14 0 -26 5.66699 -36 17s-15 24.666 -15 39.999s5.16699 28.333 15.5 39s22.5 16 36.5 16c14.667 0 27 -5.33301 37 -16s15 -23.667 15 -39zM165 176h-61l-22 493l105 11z" />
    <glyph glyph-name="quotedbl" unicode="&#x22;" horiz-adv-x="435" 
d="M164 445h-60l-11 229h82zM332 445h-61l-10 229h82z" />
    <glyph glyph-name="numbersign" unicode="#" horiz-adv-x="544" 
d="M232 299l-23 -74h94l23 74h-94zM341 163l-55 -182l-52 19l51 163h-92l-55 -182l-52 19l51 163h-107v62h124l23 73h-147v63h163l58 185l50 -18l-53 -167h94l57 185l50 -18l-53 -167h118v-63h-134l-23 -73h157v-62h-173z" />
    <glyph glyph-name="dollar" unicode="$" horiz-adv-x="459" 
d="M426 143c0 -24 -4.83789 -44.666 -14.5049 -61.999s-22.5 -31.833 -38.5 -43.5s-34.333 -21 -55 -28s-42 -12.167 -64 -15.5v-96h-55v92c-27.333 -1.33301 -54.666 -0.833008 -81.999 1.5s-54.666 5.83301 -81.999 10.5l8 81c23.333 -5.33301 46.333 -9.5 69 -12.5
s47 -4.5 73 -4.5c18 0 35.5 1 52.5 3s32.333 5.5 46 10.5s24.5 11.833 32.5 20.5s12 19.667 12 33c0 11.333 -3.16699 21 -9.5 29s-15.333 15.333 -27 22s-26 13 -43 19l-57.5 21c-19.333 6.66699 -38.333 14.167 -57 22.5s-35.5 18 -50.5 29s-27.167 24 -36.5 39
s-14 32.5 -14 52.5c0 23.333 4.83301 43.166 14.5 59.499s22.334 30 38.001 41s33.5 19.333 53.5 25s40 9.83398 60 12.501v87h55v-83c25.333 0 51 -1.16699 77 -3.5s51.333 -5.5 76 -9.5l-9 -81c-22.667 5.33301 -45.667 9.16602 -69 11.499s-47.333 3.5 -72 3.5
c-18 0 -34.667 -0.833008 -50 -2.5s-28.666 -4.66699 -39.999 -9s-20.166 -10 -26.499 -17s-9.5 -15.833 -9.5 -26.5c0 -20 10.167 -34.833 30.5 -44.5s50.166 -21.5 89.499 -35.5l61.5 -23c21 -8 39.833 -17.833 56.5 -29.5s30.334 -25.5 41.001 -41.5s16 -35.333 16 -58z
" />
    <glyph glyph-name="percent" unicode="%" horiz-adv-x="819" 
d="M685 195c0 15.333 -0.833984 31.166 -2.50098 47.499s-5 31.333 -10 45s-12.167 24.834 -21.5 33.501s-22 13 -38 13c-23.333 0 -41.166 -11.167 -53.499 -33.5s-18.5 -57.5 -18.5 -105.5c0 -15.333 0.833008 -31.166 2.5 -47.499s5 -31.166 10 -44.499
s12.167 -24.333 21.5 -33s22 -13 38 -13s28.667 4.33301 38 13s16.5 19.667 21.5 33s8.33301 28.166 10 44.499s2.5 32.166 2.5 47.499zM277.999 488c0 15.333 -0.832031 31.1641 -2.49902 47.4971s-5 31.333 -10 45s-12.167 24.834 -21.5 33.501s-22 13 -38 13
s-28.833 -4.33301 -38.5 -13s-17 -19.834 -22 -33.501s-8.16699 -28.667 -9.5 -45s-2 -32.166 -2 -47.499s0.666992 -31.166 2 -47.499s4.5 -31.166 9.5 -44.499s12.333 -24.333 22 -33s22.5 -13 38.5 -13c23.333 0 41.166 11 53.499 33s18.5 57 18.5 105zM766 194.998
c0 -34 -4.33008 -63.333 -12.9971 -88s-20 -45 -34 -61s-30.167 -28 -48.5 -36s-37.5 -12 -57.5 -12c-27.333 0 -50.5 6 -69.5 18s-34.667 27.5 -47 46.5s-21.333 40.167 -27 63.5s-8.5 46.333 -8.5 69c0 22 2.83301 44.833 8.5 68.5s14.5 45 26.5 64s27.667 34.667 47 47
s42.666 18.5 69.999 18.5s50.666 -6.16699 69.999 -18.5s35.166 -28 47.499 -47s21.333 -40.333 27 -64s8.5 -46.5 8.5 -68.5zM242.003 -22.002l-50 31l387 701l50 -31zM359.003 487.998c0 -22 -2.83789 -44.666 -8.50488 -67.999s-14.667 -44.5 -27 -63.5
s-28.166 -34.667 -47.499 -47s-42.666 -18.5 -69.999 -18.5s-50.666 6.16699 -69.999 18.5s-35.166 28 -47.499 47s-21.333 40.167 -27 63.5s-8.5 46 -8.5 68c0 33.333 4.33301 62.5 13 87.5s20 45.667 34 62s30.167 28.5 48.5 36.5s37.5 12 57.5 12
c26.667 0 49.667 -6 69 -18s35.333 -27.5 48 -46.5s21.834 -40.333 27.501 -64s8.5 -46.834 8.5 -69.501z" />
    <glyph glyph-name="ampersand" unicode="&#x26;" horiz-adv-x="873" 
d="M525 468c-39.333 22.667 -82.335 34.001 -129.002 34.001c-32 0 -61.167 -4 -87.5 -12s-49.166 -19.5 -68.499 -34.5s-34.666 -33.167 -45.999 -54.5s-18 -45.333 -20 -72v-9.5c0 -3.66699 -0.333008 -6.83398 -1 -9.50098zM737.998 346.001
c8 -24 11.9961 -48.002 11.9961 -72.002c-1.33301 -47.333 -11.833 -88.833 -31.5 -124.5s-45.5 -65.5 -77.5 -89.5s-68.5 -42.167 -109.5 -54.5s-83.167 -18.5 -126.5 -18.5c-48.667 0 -93.834 6.5 -135.501 19.5s-77.667 32 -108 57s-54.166 55.667 -71.499 92
s-26 77.5 -26 123.5c0 49.333 9.16699 92.166 27.5 128.499s42.833 66.333 73.5 90s66.334 41.334 107.001 53.001s83.334 17.5 128.001 17.5c50 0 98.833 -7.33301 146.5 -22s89.5 -42 125.5 -82l-498 -222c4 -29.333 13 -55.166 27 -77.499s31.667 -41.166 53 -56.499
s45.5 -26.833 72.5 -34.5s55.833 -11.5 86.5 -11.5s59.667 4 87 12s51.5 19.5 72.5 34.5s37.833 33.333 50.5 55s19.667 46.167 21 73.5c0.666992 11.333 0.333984 22.5 -0.999023 33.5s-3.66602 22.167 -6.99902 33.5l-152 -68l-25 60l390 171l24 -61z" />
    <glyph glyph-name="quotesingle" unicode="'" horiz-adv-x="267" 
d="M164 445h-60l-11 229h82z" />
    <glyph glyph-name="parenleft" unicode="(" horiz-adv-x="277" 
d="M211 -154c-32.667 26.667 -59.167 58.834 -79.5 96.501s-36.333 77.5 -48 119.5s-19.5 84.333 -23.5 127s-6 82 -6 118s2 75.333 6 118s11.833 85 23.5 127s27.667 81.833 48 119.5s46.833 69.834 79.5 96.501l45 -42c-27.333 -23.333 -49.333 -51.833 -66 -85.5
s-29.667 -69.334 -39 -107.001s-15.5 -76.167 -18.5 -115.5s-4.5 -76.333 -4.5 -111s1.5 -71.667 4.5 -111s9.16699 -77.833 18.5 -115.5s22.333 -73.334 39 -107.001s38.667 -62.167 66 -85.5z" />
    <glyph glyph-name="parenright" unicode=")" horiz-adv-x="280" 
d="M226 307c0 -36 -2 -75.333 -6 -118s-11.833 -85 -23.5 -127s-27.667 -81.833 -48 -119.5s-46.5 -69.834 -78.5 -96.501l-46 42c27.333 23.333 49.5 51.833 66.5 85.5s30 69.334 39 107.001s15 76.167 18 115.5s4.5 76.333 4.5 111s-1.5 71.667 -4.5 111
s-9 77.833 -18 115.5s-22 73.334 -39 107.001s-39.167 62.167 -66.5 85.5l46 42c32 -26.667 58.167 -58.834 78.5 -96.501s36.333 -77.5 48 -119.5s19.5 -84.333 23.5 -127s6 -82 6 -118z" />
    <glyph glyph-name="asterisk" unicode="*" horiz-adv-x="343" 
d="M292 398l-99 72l9 -122h-63l10 121l-98 -71l-31 61l108 51l-108 51l31 62l98 -71l-10 122h63l-10 -122l98 71l32 -62l-108 -51l109 -51z" />
    <glyph glyph-name="plus" unicode="+" horiz-adv-x="552" 
d="M309 230v-195h-66v195h-205v78h205v196h66v-196h205v-78h-205z" />
    <glyph glyph-name="comma" unicode="," horiz-adv-x="260" 
d="M183 40c0 -20.667 -2.66699 -40.3291 -8 -58.9961s-12.166 -36.5 -20.499 -53.5s-17.833 -32.833 -28.5 -47.5s-21.334 -28.334 -32.001 -41.001l-50 33c18 24.667 32.667 49 44 73s17 50.667 17 80c0 17.333 -1.5 32.666 -4.5 45.999s-6.5 26.666 -10.5 39.999h82
l7 -31.5c2.66699 -11.667 4 -24.834 4 -39.501z" />
    <glyph glyph-name="hyphen" unicode="-" horiz-adv-x="293" 
d="M37 226v73h218v-73h-218z" />
    <glyph glyph-name="hyphen" unicode="&#xad;" horiz-adv-x="293" 
d="M37 226v73h218v-73h-218z" />
    <glyph glyph-name="period" unicode="." horiz-adv-x="270" 
d="M193 61c0 -16.667 -5.66602 -31.167 -16.999 -43.5s-25 -18.5 -41 -18.5s-29.5 6 -40.5 18s-16.5 26.667 -16.5 44c0 16.667 5.66699 31 17 43s24.666 18 39.999 18c16 0 29.667 -6 41 -18s17 -26.333 17 -43z" />
    <glyph glyph-name="slash" unicode="/" horiz-adv-x="330" 
d="M19 -86l-53 25l345 841l52 -25z" />
    <glyph glyph-name="zero" unicode="0" horiz-adv-x="569" 
d="M423 251c0 14.667 -1.5 32.665 -4.5 53.998s-9.5 41.5 -19.5 60.5s-24 35.333 -42 49s-42 20.5 -72 20.5c-30.667 0 -55.167 -6.83301 -73.5 -20.5s-32.333 -30.167 -42 -49.5s-16 -39.666 -19 -60.999s-4.5 -39.333 -4.5 -54c0 -15.333 1.5 -33.666 4.5 -54.999
s9.33301 -41.666 19 -60.999s23.667 -36 42 -50s42.833 -21 73.5 -21c30 0 54.167 7 72.5 21s32.333 30.833 42 50.5s16 40.167 19 61.5s4.5 39.666 4.5 54.999zM527 251.998c0 -30.667 -4.33301 -61.667 -13 -93s-22.5 -59.833 -41.5 -85.5s-44 -46.5 -75 -62.5
s-68.5 -24 -112.5 -24s-81.5 8 -112.5 24s-56.167 36.833 -75.5 62.5s-33.333 54.167 -42 85.5s-13 62.333 -13 93s4.5 61.5 13.5 92.5s23.167 58.833 42.5 83.5s44.5 44.667 75.5 60s68.167 23 111.5 23s80.333 -7.66699 111 -23s55.667 -35.333 75 -60
s33.5 -52.5 42.5 -83.5s13.5 -61.833 13.5 -92.5z" />
    <glyph glyph-name="one" unicode="1" horiz-adv-x="285" 
d="M91 0v481l98 31v-512h-98z" />
    <glyph glyph-name="two" unicode="2" horiz-adv-x="523" 
d="M21 0l-0.000976562 31.999l62 37.5l71 45.5c24 16 47.333 32.833 70 50.5s42.834 35.834 60.501 54.501s32 37.167 43 55.5s16.5 36.166 16.5 53.499c0 20.667 -6.83301 37.334 -20.5 50.001s-30.834 22.5 -51.501 29.5s-43 11.667 -67 14s-46 3.5 -66 3.5
c-8.66699 0 -18.167 -0.5 -28.5 -1.5s-20.166 -2.16699 -29.499 -3.5l-7 84c12 1.33301 24 2.33301 36 3s24.333 1 37 1c30 0 62.333 -2.16699 97 -6.5s66.834 -12.5 96.501 -24.5s54.5 -28.5 74.5 -49.5s30 -48.5 30 -82.5c0 -28 -7 -54.333 -21 -79s-31.833 -48 -53.5 -70
s-45.334 -42.667 -71.001 -62l-73.5 -55h234v-80h-439z" />
    <glyph glyph-name="three" unicode="3" horiz-adv-x="526" 
d="M459 43c0 -28 -5.33398 -53.0049 -16.001 -75.0049s-25 -41.167 -43 -57.5s-38.833 -30.166 -62.5 -41.499s-48.167 -20.5 -73.5 -27.5s-51 -12 -77 -15s-50 -4.5 -72 -4.5c-17.333 0 -34.333 1 -51 3l6 82c8.66699 -1.33301 17.334 -2.33301 26.001 -3s17.667 -1 27 -1
c22.667 0 47.834 2.16699 75.501 6.5s53.5 11.833 77.5 22.5s44 24.834 60 42.501s24 39.834 24 66.501c0 23.333 -6 42.666 -18 57.999s-27.5 27.666 -46.5 36.999s-40.5 16 -64.5 20s-47.667 6 -71 6h-42v79h46c18 0 36.667 1.66699 56 5s37 8.83301 53 16.5
s29.167 17.834 39.5 30.501s15.5 28.334 15.5 47.001c0 19.333 -7 34.833 -21 46.5s-31 20.834 -51 27.501s-40.667 11 -62 13s-39.333 3 -54 3c-9.33301 0 -19 -0.5 -29 -1.5s-19.667 -2.16699 -29 -3.5l-6 80c11.333 1.33301 22.166 2.33301 32.499 3s21.833 1 34.5 1
c17.333 0 36.333 -1 57 -3s41.5 -5.33301 62.5 -10s41.333 -11 61 -19s37 -18.167 52 -30.5s27.167 -27 36.5 -44s14 -36.833 14 -59.5c0 -18 -3.5 -34.167 -10.5 -48.5s-16.5 -27.166 -28.5 -38.499s-25.667 -20.833 -41 -28.5s-31 -13.5 -47 -17.5
c20.667 -4 40.667 -10.5 60 -19.5s36.5 -20.5 51.5 -34.5s26.833 -30.5 35.5 -49.5s13 -40.167 13 -63.5z" />
    <glyph glyph-name="four" unicode="4" horiz-adv-x="541" 
d="M364 -179v188h-332v81l287 408h113l-287 -400h219v134h95v-411h-95z" />
    <glyph glyph-name="five" unicode="5" horiz-adv-x="526" 
d="M465 60c0 -29.333 -5.33301 -55.498 -16 -78.498s-24.834 -43.333 -42.501 -61s-38.334 -32.667 -62.001 -45s-48.334 -22.5 -74.001 -30.5s-51.667 -13.833 -78 -17.5s-51.166 -5.5 -74.499 -5.5c-17.333 0 -34 1 -50 3l5 82c8.66699 -1.33301 17.167 -2.33301 25.5 -3
s17.166 -1 26.499 -1c22.667 0 47.834 2.66699 75.501 8s53.834 13.833 78.501 25.5s45.334 27 62.001 46s25 42.5 25 70.5c0 24.667 -6.66699 45.5 -20 62.5s-31.166 30.667 -53.499 41s-47.833 17.666 -76.5 21.999s-58.334 6.16602 -89.001 5.49902l-46 -1v315h369v-91
h-278v-142c34 0 68.5 -3.33301 103.5 -10s66.5 -18 94.5 -34s50.833 -37.167 68.5 -63.5s26.5 -58.833 26.5 -97.5z" />
    <glyph glyph-name="six" unicode="6" horiz-adv-x="597" 
d="M460 207c0 41.333 -12.332 75.168 -36.999 101.501s-60.667 39.5 -108 39.5c-30 0 -57.5 -6 -82.5 -18s-46.167 -29.667 -63.5 -53c-0.666992 -28 1.16602 -54.833 5.49902 -80.5s12.333 -48.334 24 -68.001s27 -35.5 46 -47.5s42.833 -18 71.5 -18
c23.333 0 44 3.66699 62 11s33 17.5 45 30.5s21.167 28.333 27.5 46s9.5 36.5 9.5 56.5zM556.001 212.002c0 -36 -6.3291 -68.167 -18.9961 -96.5s-29.834 -52 -51.501 -71s-47.334 -33.5 -77.001 -43.5s-61.5 -15 -95.5 -15c-42 0 -78.333 7.5 -109 22.5
s-55.834 35.5 -75.501 61.5s-34.167 56.333 -43.5 91s-14 71.667 -14 111c0 54.667 6.5 107 19.5 157s33.333 94 61 132s63.167 68.167 106.5 90.5s95.333 33.5 156 33.5c12 0 24 -0.333008 36 -1l35 -2l-6 -84c-9.33301 1.33301 -19 2.33301 -29 3s-19.667 1 -29 1
c-38.667 0 -72.5 -5.83301 -101.5 -17.5s-53.5 -28 -73.5 -49s-35.833 -46.333 -47.5 -76s-19.5 -62.167 -23.5 -97.5c20.667 21.333 45 37 73 47s57 15 87 15c32.667 0 62.667 -4.66699 90 -14s50.666 -23 69.999 -41s34.333 -40.167 45 -66.5s16 -56.5 16 -90.5z" />
    <glyph glyph-name="seven" unicode="7" horiz-adv-x="499" 
d="M227 -179h-106l226 574h-321v103h449v-20z" />
    <glyph glyph-name="eight" unicode="8" horiz-adv-x="589" 
d="M443 201c0 20.667 -3.66895 39.668 -11.002 57.001s-17.5 32.333 -30.5 45s-28.5 22.5 -46.5 29.5s-38 10.5 -60 10.5s-42 -3.5 -60 -10.5s-33.5 -16.833 -46.5 -29.5s-23 -27.667 -30 -45s-10.5 -36.333 -10.5 -57c0 -19.333 3.83301 -37.333 11.5 -54
s18.334 -31.334 32.001 -44.001s29.334 -22.5 47.001 -29.5s36.5 -10.5 56.5 -10.5s39 3.5 57 10.5s33.667 16.5 47 28.5s24 26.5 32 43.5s12 35.5 12 55.5zM419.998 515.001c0 16.667 -3.5 31.167 -10.5 43.5s-16.333 22.5 -28 30.5s-25 14 -40 18s-30.5 6 -46.5 6
s-31.5 -2 -46.5 -6s-28.333 -10 -40 -18s-21 -18.167 -28 -30.5s-10.5 -26.5 -10.5 -42.5c0 -17.333 3.33301 -32.5 10 -45.5s15.834 -24 27.501 -33s25 -15.833 40 -20.5s30.833 -7 47.5 -7c16 0 31.667 2.16699 47 6.5s28.666 11 39.999 20s20.5 20 27.5 33
s10.5 28.167 10.5 45.5zM537.998 203.001c0 -34.667 -6.67188 -65.333 -20.0049 -92s-31.166 -49.167 -53.499 -67.5s-48.166 -32.333 -77.499 -42s-60 -14.5 -92 -14.5s-62.833 4.83301 -92.5 14.5s-55.667 23.667 -78 42s-40.166 40.833 -53.499 67.5
s-20 57.334 -20 92.001c0 20.667 3.16699 40.334 9.5 59.001s15.166 35.667 26.499 51s25 29 41 41s33.667 21.333 53 28c-29.333 9.33301 -54.166 25.666 -74.499 48.999s-30.5 51.666 -30.5 84.999c0 30.667 6.33301 57 19 79s29.334 39.667 50.001 53
s44 23.166 70 29.499s52.667 9.5 80 9.5c26.667 0 53.167 -3.16699 79.5 -9.5s49.833 -16.333 70.5 -30s37.334 -31.334 50.001 -53.001s19 -48.167 19 -79.5c0 -32.667 -10.167 -60.5 -30.5 -83.5s-45.166 -39.5 -74.499 -49.5
c39.333 -13.333 70.666 -35.666 93.999 -66.999s35 -68.666 35 -111.999z" />
    <glyph glyph-name="nine" unicode="9" horiz-adv-x="591" 
d="M427 220c0.666992 28 -1.16797 55.001 -5.50098 81.001s-12.166 48.833 -23.499 68.5s-26.5 35.5 -45.5 47.5s-42.833 18 -71.5 18c-23.333 0 -44 -3.66699 -62 -11s-33 -17.5 -45 -30.5s-21.167 -28.333 -27.5 -46s-9.5 -36.834 -9.5 -57.501
c0 -40.667 12.333 -74.167 37 -100.5s60.667 -39.5 108 -39.5c30 0 57.333 5.83301 82 17.5s45.667 29.167 63 52.5zM525.998 226.001c0 -55.333 -6.50293 -107.832 -19.5029 -157.499s-33.5 -93.5 -61.5 -131.5s-63.667 -68.167 -107 -90.5s-95.333 -33.5 -156 -33.5
c-24 0 -47.333 1 -70 3l6 84c9.33301 -1.33301 19 -2.33301 29 -3s19.667 -1 29 -1c38.667 0 72.5 5.83301 101.5 17.5s53.5 28 73.5 49s35.833 46.333 47.5 76s19.5 62.167 23.5 97.5c-20.667 -22 -45 -38 -73 -48s-57 -15 -87 -15c-33.333 0 -63.5 4.66699 -90.5 14
s-50.167 23 -69.5 41s-34.333 40.333 -45 67s-16 57 -16 91c0 36 6.33301 68 19 96s29.834 51.5 51.501 70.5s47.334 33.5 77.001 43.5s61.5 15 95.5 15c42 0 78.333 -7.5 109 -22.5s55.834 -35.5 75.501 -61.5s34.167 -56.333 43.5 -91s14 -71.334 14 -110.001z" />
    <glyph glyph-name="colon" unicode=":" horiz-adv-x="270" 
d="M193 61c0 -16.667 -5.66602 -31.167 -16.999 -43.5s-25 -18.5 -41 -18.5s-29.5 6 -40.5 18s-16.5 26.667 -16.5 44c0 16.667 5.66699 31 17 43s24.666 18 39.999 18c16 0 29.667 -6 41 -18s17 -26.333 17 -43zM193.001 369c0 -16.667 -5.66602 -31 -16.999 -43
s-25 -18 -41 -18s-29.5 5.83301 -40.5 17.5s-16.5 26.167 -16.5 43.5s5.66699 31.833 17 43.5s24.666 17.5 39.999 17.5c16 0 29.667 -5.83301 41 -17.5s17 -26.167 17 -43.5z" />
    <glyph glyph-name="semicolon" unicode=";" horiz-adv-x="270" 
d="M194 40c0 -20.667 -2.66699 -40.3291 -8 -58.9961s-12.166 -36.5 -20.499 -53.5s-17.833 -32.833 -28.5 -47.5s-21.334 -28.334 -32.001 -41.001l-50 33c18 24.667 32.5 49 43.5 73s16.5 50.667 16.5 80c0 17.333 -1.5 32.666 -4.5 45.999s-6.16699 26.666 -9.5 39.999
h81c2 -9.33301 4.5 -19.833 7.5 -31.5s4.5 -24.834 4.5 -39.501zM193 369.005c0 -16.667 -5.66602 -31 -16.999 -43s-25 -18 -41 -18s-29.5 5.83301 -40.5 17.5s-16.5 26.167 -16.5 43.5s5.66699 31.833 17 43.5s24.666 17.5 39.999 17.5c16 0 29.667 -5.83301 41 -17.5
s17 -26.167 17 -43.5z" />
    <glyph glyph-name="semicolon" unicode="&#x37e;" horiz-adv-x="270" 
d="M194 40c0 -20.667 -2.66699 -40.3291 -8 -58.9961s-12.166 -36.5 -20.499 -53.5s-17.833 -32.833 -28.5 -47.5s-21.334 -28.334 -32.001 -41.001l-50 33c18 24.667 32.5 49 43.5 73s16.5 50.667 16.5 80c0 17.333 -1.5 32.666 -4.5 45.999s-6.16699 26.666 -9.5 39.999
h81c2 -9.33301 4.5 -19.833 7.5 -31.5s4.5 -24.834 4.5 -39.501zM193 369.005c0 -16.667 -5.66602 -31 -16.999 -43s-25 -18 -41 -18s-29.5 5.83301 -40.5 17.5s-16.5 26.167 -16.5 43.5s5.66699 31.833 17 43.5s24.666 17.5 39.999 17.5c16 0 29.667 -5.83301 41 -17.5
s17 -26.167 17 -43.5z" />
    <glyph glyph-name="less" unicode="&#x3c;" 
d="M459 11l-446 222v73l446 222l30 -82l-390 -176l390 -176z" />
    <glyph glyph-name="equal" unicode="=" horiz-adv-x="538" 
d="M38 127v77h463v-77h-463zM38 335v77h463v-77h-463z" />
    <glyph glyph-name="greater" unicode="&#x3e;" 
d="M43 11l-30 82l390 176l-390 176l30 83l446 -222v-73z" />
    <glyph glyph-name="question" unicode="?" horiz-adv-x="427" 
d="M234 55c0 -15.333 -5.16699 -28.666 -15.5 -39.999s-22.833 -17 -37.5 -17s-27 5.66699 -37 17s-15 24.666 -15 39.999s5.16699 28.333 15.5 39s22.5 16 36.5 16c14.667 0 27.167 -5.33301 37.5 -16s15.5 -23.667 15.5 -39zM377 521
c0 -24.667 -5.16797 -47.166 -15.501 -67.499s-23.5 -38.833 -39.5 -55.5s-33.167 -31.834 -51.5 -45.501l-51.5 -38.5l-7 -138h-61l-5 156c12.667 10 27.167 20.833 43.5 32.5s31.666 24.334 45.999 38.001s26.333 28.167 36 43.5s14.5 31 14.5 47
c0 18.667 -5.16699 34.667 -15.5 48s-23.5 24.166 -39.5 32.499s-33.667 14.5 -53 18.5s-38 6 -56 6c-10 0 -18.667 -0.333008 -26 -1s-15.666 -1.66699 -24.999 -3l-6 80c10 1.33301 19.333 2.33301 28 3s18 1 28 1c34 0 66.333 -3.16699 97 -9.5
s57.834 -15.833 81.501 -28.5s42.5 -29 56.5 -49s21 -43.333 21 -70z" />
    <glyph glyph-name="at" unicode="@" horiz-adv-x="897" 
d="M545 179c-35.333 14.667 -72.3311 22.001 -110.998 22.001c-12 0 -24.5 -1 -37.5 -3s-24.833 -5.5 -35.5 -10.5s-19.334 -12.333 -26.001 -22s-10 -21.834 -10 -36.501c0 -12.667 3.16699 -23.334 9.5 -32.001s14.166 -15.667 23.499 -21s19.833 -9.16602 31.5 -11.499
s22.5 -3.5 32.5 -3.5c24.667 0 48 5.16699 70 15.5s39.667 25.5 53 45.5v57zM843.002 216.001c0 -30.667 -3.16211 -59.665 -9.49512 -86.998s-16.5 -51.5 -30.5 -72.5s-32 -37.667 -54 -50s-49 -18.5 -81 -18.5c-30 0 -54.333 6.33301 -73 19s-31.667 29.334 -39 50.001
c-42.667 -46 -96 -69 -160 -69c-20 0 -39.667 2.83301 -59 8.5s-36.5 14.167 -51.5 25.5s-27 25.5 -36 42.5s-13.5 37.167 -13.5 60.5c0 26 5 48 15 66s23.167 32.5 39.5 43.5s35.333 19 57 24s44.167 7.5 67.5 7.5c25.333 0 48.833 -1.83301 70.5 -5.5
s41.5 -9.16699 59.5 -16.5v48c0 32 -10.833 56.167 -32.5 72.5s-48.167 24.5 -79.5 24.5c-20.667 0 -39.5 -3 -56.5 -9s-34.5 -15.667 -52.5 -29l-29 65c24 16.667 48.667 28.667 74 36s52.666 11 81.999 11c22.667 0 45 -3 67 -9s41.667 -15.5 59 -28.5
s31.333 -29.833 42 -50.5s16 -45.334 16 -74.001v-183c0 -22.667 4.83301 -40.5 14.5 -53.5s24.167 -19.5 43.5 -19.5c18 0 32.667 5 44 15s20.5 23 27.5 39s11.833 33.833 14.5 53.5s4 38.834 4 57.501c0 50.667 -8.5 95 -25.5 133s-40.5 69.833 -70.5 95.5
s-65.833 44.834 -107.5 57.501s-87.167 19 -136.5 19c-48.667 0 -93.834 -6.5 -135.501 -19.5s-77.667 -32.333 -108 -58s-54 -57.167 -71 -94.5s-25.5 -80 -25.5 -128c0 -50 9.33301 -93.833 28 -131.5s43.834 -69 75.501 -94s68.5 -43.667 110.5 -56
s86.333 -18.5 133 -18.5c19.333 0 39.166 1.16699 59.499 3.5s38.166 5.16602 53.499 8.49902l6 -60c-37.333 -8 -78 -12 -122 -12c-52 0 -102.5 7.33301 -151.5 22s-92.167 37 -129.5 67s-67.333 67.667 -90 113s-34 99 -34 161c0 63.333 11.667 117.5 35 162.5
s53.833 81.833 91.5 110.5s80.5 49.667 128.5 63s96.667 20 146 20c54.667 0 106.167 -7.33301 154.5 -22s90.666 -36.834 126.999 -66.501s65.166 -66.834 86.499 -111.501s32 -97.334 32 -158.001z" />
    <glyph glyph-name="A" unicode="A" horiz-adv-x="677" 
d="M337 570l-129 -333h259zM554 0l-60 156h-314l-60 -156h-108l280 683h96l277 -683h-111z" />
    <glyph glyph-name="B" unicode="B" horiz-adv-x="701" 
d="M553 216c0 38 -14 67.501 -42 88.501s-66 31.5 -114 31.5h-214v-254h219c20.667 0 40.167 3 58.5 9s34.333 14.833 48 26.5s24.5 25.667 32.5 42s12 35.166 12 56.499zM517 512.001c0 14.667 -3.33105 27 -9.99805 37s-15.334 18.333 -26.001 25
s-22.834 11.5 -36.501 14.5s-27.5 4.5 -41.5 4.5h-220v-177h220c14 0 27.667 2 41 6s25.5 10 36.5 18s19.833 18 26.5 30s10 26 10 42zM656.002 217.001c0 -35.333 -6.33398 -66.5 -19.001 -93.5s-30 -49.667 -52 -68s-47.5 -32.166 -76.5 -41.499s-59.833 -14 -92.5 -14
h-333v674h336c24 0 47.833 -2.83301 71.5 -8.5s45 -14.5 64 -26.5s34.5 -27.667 46.5 -47s18 -42.666 18 -69.999c0 -32.667 -10.333 -61.334 -31 -86.001s-46 -41.334 -76 -50.001c42.667 -9.33301 77.334 -29 104.001 -59s40 -66.667 40 -110z" />
    <glyph glyph-name="C" unicode="C" horiz-adv-x="623" 
d="M570 8c-22.667 -6.66699 -46.9971 -11.502 -72.9971 -14.502s-53 -4.5 -81 -4.5c-53.333 0 -103 7.83301 -149 23.5s-85.667 38.667 -119 69s-59.5 67.333 -78.5 111s-28.5 93.5 -28.5 149.5c0 55.333 9.33301 104.333 28 147s44.5 78.5 77.5 107.5s72 51 117 66
s94.167 22.5 147.5 22.5c28 0 56.167 -1.83301 84.5 -5.5s56.166 -9.16699 83.499 -16.5l-11 -89c-24 6.66699 -48.333 11.834 -73 15.501s-50 5.5 -76 5.5c-40 0 -76.667 -5.5 -110 -16.5s-62 -27.167 -86 -48.5s-42.833 -47.666 -56.5 -78.999s-20.5 -67.333 -20.5 -108
c0 -42 7.33301 -79.5 22 -112.5s35 -60.667 61 -83s56.5 -39.5 91.5 -51.5s73.167 -18 114.5 -18c21.333 0 43.166 1.33301 65.499 4s44.166 7 65.499 13z" />
    <glyph glyph-name="D" unicode="D" horiz-adv-x="737" 
d="M591 344c0 31.333 -5 61.834 -15 91.501s-24.667 56 -44 79s-43.166 41.333 -71.499 55s-60.833 20.5 -97.5 20.5h-180v-506h180c36.667 0 69.167 7.5 97.5 22.5s52.166 34.667 71.499 59s34 52.166 44 83.499s15 63 15 95zM696 345.001
c0 -45.333 -7.33203 -88.667 -21.999 -130s-35.834 -78 -63.501 -110s-61.5 -57.5 -101.5 -76.5s-85.333 -28.5 -136 -28.5h-290v674h290c52.667 0 99.167 -9 139.5 -27s74 -42 101 -72s47.5 -64.833 61.5 -104.5s21 -81.5 21 -125.5z" />
    <glyph glyph-name="E" unicode="E" horiz-adv-x="631" 
d="M83 0v674h481v-88h-381v-169h381v-85h-381v-244h381v-88h-481z" />
    <glyph glyph-name="F" unicode="F" horiz-adv-x="614" 
d="M183 321v-321h-100v674h479v-88h-379v-178h379v-87h-379z" />
    <glyph glyph-name="G" unicode="G" horiz-adv-x="688" 
d="M612 25c-29.333 -11.333 -63.168 -20.1699 -101.501 -26.5029s-77.5 -9.5 -117.5 -9.5c-56 0 -105.833 9 -149.5 27s-80.5 42.833 -110.5 74.5s-52.833 69.167 -68.5 112.5s-23.5 90 -23.5 140c0 49.333 8 94.833 24 136.5s39.667 77.834 71 108.501
s70.5 54.5 117.5 71.5s101.167 25.5 162.5 25.5c28.667 0 58.834 -1.66699 90.501 -5s63.167 -9 94.5 -17l-12 -88c-52 13.333 -105 20 -159 20c-89.333 0 -159 -21.667 -209 -65s-75 -108.333 -75 -195c0 -38 5.83301 -73.167 17.5 -105.5s28.667 -60.166 51 -83.499
s49.333 -41.666 81 -54.999s67.5 -20 107.5 -20c19.333 0 38.5 1.5 57.5 4.5s37.5 7.83301 55.5 14.5v243h96v-308z" />
    <glyph glyph-name="H" unicode="H" horiz-adv-x="733" 
d="M550 0v332h-367v-332h-100v674h100v-255h367v255h101v-674h-101z" />
    <glyph glyph-name="I" unicode="I" horiz-adv-x="266" 
d="M83 0v674h100v-674h-100z" />
    <glyph glyph-name="J" unicode="J" horiz-adv-x="402" 
d="M322 243c0 -45.333 -7.66797 -84 -23.001 -116s-36.166 -58.167 -62.499 -78.5s-57 -35.166 -92 -44.499s-71.833 -14 -110.5 -14l4 85c56.667 1.33301 101.5 16.166 134.5 44.499s49.5 72.833 49.5 133.5v335h-177v86h277v-431z" />
    <glyph glyph-name="K" unicode="K" horiz-adv-x="675" 
d="M83 0v674h100v-674h-100zM510 0l-301 342v3l308 329h125l-319 -327l320 -347h-133z" />
    <glyph glyph-name="L" unicode="L" horiz-adv-x="603" 
d="M83 0v674h100v-580h383v-94h-483z" />
    <glyph glyph-name="M" unicode="M" horiz-adv-x="878" 
d="M696 0v471l-249 -242h-17l-248 242v-471h-99v683h23l332 -324l334 324h24v-683h-100z" />
    <glyph glyph-name="N" unicode="N" horiz-adv-x="736" 
d="M630 -9l-449 467v-458h-98v683h23l448 -467v458h99v-683h-23z" />
    <glyph glyph-name="O" unicode="O" horiz-adv-x="756" 
d="M610 337c0 32.667 -4.5 64.834 -13.5 96.501s-23 60 -42 85s-43.167 45.167 -72.5 60.5s-64.333 23 -105 23c-40 0 -74.667 -7.66699 -104 -23s-53.333 -35.5 -72 -60.5s-32.5 -53.333 -41.5 -85s-13.5 -63.834 -13.5 -96.501c0 -32 4.5 -64 13.5 -96s23 -60.5 42 -85.5
s43.167 -45.333 72.5 -61s64 -23.5 104 -23.5s74.667 7.83301 104 23.5s53.5 36 72.5 61s33 53.5 42 85.5s13.5 64 13.5 96zM715 337c0 -46 -7.49902 -90.167 -22.499 -132.5s-36.833 -79.666 -65.5 -111.999s-64 -58.166 -106 -77.499s-89.667 -29 -143 -29
c-54 0 -101.833 9.5 -143.5 28.5s-76.834 44.667 -105.501 77s-50.5 69.666 -65.5 111.999s-22.5 86.833 -22.5 133.5s7.5 91.167 22.5 133.5s36.667 79.5 65 111.5s63.333 57.5 105 76.5s89.5 28.5 143.5 28.5s101.833 -9.33301 143.5 -28s77 -43.834 106 -75.501
s51 -68.667 66 -111s22.5 -87.5 22.5 -135.5z" />
    <glyph glyph-name="P" unicode="P" horiz-adv-x="678" 
d="M534 461c0 42 -13.5 74.167 -40.5 96.5s-61.5 33.5 -103.5 33.5h-207v-270h211c42.667 0 76.667 13 102 39s38 59.667 38 101zM635 463c0 -31.333 -5.16992 -60.667 -15.5029 -88s-25.166 -51 -44.499 -71s-42.833 -35.833 -70.5 -47.5s-58.834 -17.5 -93.501 -17.5h-228
v-239h-100v674h326c34.667 0 65.834 -5 93.501 -15s51.334 -24.167 71.001 -42.5s34.834 -40.5 45.501 -66.5s16 -55 16 -87z" />
    <glyph glyph-name="Q" unicode="Q" horiz-adv-x="756" 
d="M610 337c0 32.667 -4.5 64.834 -13.5 96.501s-23 60 -42 85s-43.167 45.167 -72.5 60.5s-64.333 23 -105 23c-40 0 -74.667 -7.66699 -104 -23s-53.333 -35.5 -72 -60.5s-32.5 -53.333 -41.5 -85s-13.5 -63.834 -13.5 -96.501c0 -32 4.5 -64 13.5 -96s23 -60.5 42 -85.5
s43.167 -45.333 72.5 -61s64 -23.5 104 -23.5s74.667 7.83301 104 23.5s53.5 36 72.5 61s33 53.5 42 85.5s13.5 64 13.5 96zM715 337c0 -36.667 -4.83008 -72.498 -14.4971 -107.498s-23.834 -67.167 -42.501 -96.5s-42 -55 -70 -77s-60 -38.667 -96 -50l130 -104l-59 -71
l-173 156c-3.33301 0 -6.83301 -0.166992 -10.5 -0.5s-6.83398 -0.5 -9.50098 -0.5c-52.667 0.666992 -99.334 10.667 -140.001 30s-75 45.166 -103 77.499s-49.333 69.5 -64 111.5s-22 86 -22 132c0 46.667 7.5 91.167 22.5 133.5s36.667 79.5 65 111.5
s63.333 57.5 105 76.5s89.5 28.5 143.5 28.5s101.833 -9.33301 143.5 -28s77 -43.834 106 -75.501s51 -68.667 66 -111s22.5 -87.5 22.5 -135.5z" />
    <glyph glyph-name="R" unicode="R" horiz-adv-x="680" 
d="M524 488c0 34 -11.667 59.667 -35 77s-53 26 -89 26h-217v-219h209c16 0 31.833 1.83301 47.5 5.5s29.667 10 42 19s22.5 21 30.5 36s12 33.5 12 55.5zM504 0l-198 290.001h-123v-290h-100v674h333c28.667 0 55.667 -3.83301 81 -11.5s47.5 -19.167 66.5 -34.5
s34.167 -34.333 45.5 -57s17 -49.334 17 -80.001c0 -27.333 -4.33301 -52 -13 -74s-21 -41 -37 -57s-35.167 -29 -57.5 -39s-46.833 -16.333 -73.5 -19c-5.33301 -0.666992 -10.833 -1.16699 -16.5 -1.5s-11.167 -0.5 -16.5 -0.5l215 -300h-123z" />
    <glyph glyph-name="S" unicode="S" horiz-adv-x="602" 
d="M554 194c0 -41.333 -10.3369 -75.165 -31.0039 -101.498s-46.667 -47.166 -78 -62.499s-66 -26 -104 -32s-74 -9 -108 -9c-30.667 0 -61 1.66699 -91 5s-59.667 7.66602 -89 12.999l9 88c28 -6.66699 56.5 -11.834 85.5 -15.501s59.5 -5.5 91.5 -5.5
c23.333 0 47 1.33301 71 4s45.833 7.66699 65.5 15s35.667 17.5 48 30.5s18.5 30.167 18.5 51.5c0 17.333 -5.16699 32.333 -15.5 45s-24 23.834 -41 33.501s-36.667 18.5 -59 26.5l-69.5 26c-25.333 10 -50.166 20.5 -74.499 31.5s-46.166 24 -65.499 39s-35 32.333 -47 52
s-18 42.5 -18 68.5c0 38.667 9.66699 70.167 29 94.5s43.666 43.5 72.999 57.5s61 23.5 95 28.5s66 7.5 96 7.5s60.5 -1.33301 91.5 -4s60.5 -6.66699 88.5 -12l-7 -90c-59.333 13.333 -118.666 20 -177.999 20c-22.667 0 -44.5 -1.33301 -65.5 -4
s-39.667 -7.16699 -56 -13.5s-29.5 -15.166 -39.5 -26.499s-15 -25.333 -15 -42c0 -15.333 4.16699 -28.333 12.5 -39s19.833 -20.334 34.5 -29.001s31.834 -16.834 51.501 -24.501l62.5 -23.5c24 -8.66699 49.5 -18.5 76.5 -29.5s51.833 -24.333 74.5 -40
s41.334 -34.334 56.001 -56.001s22 -47.5 22 -77.5z" />
    <glyph glyph-name="T" unicode="T" horiz-adv-x="628" 
d="M364 586v-586h-100v586h-244v88h588v-88h-244z" />
    <glyph glyph-name="U" unicode="U" horiz-adv-x="725" 
d="M648 225c0 -38 -7.16602 -71.665 -21.499 -100.998s-34.333 -54 -60 -74s-56 -35.333 -91 -46s-72.833 -16 -113.5 -16c-39.333 0 -76.333 5.33301 -111 16s-64.834 26.167 -90.501 46.5s-46 45.166 -61 74.499s-22.5 62.666 -22.5 99.999v449h100v-439
c0 -24 4.5 -45.667 13.5 -65s21.667 -36 38 -50s35.833 -24.833 58.5 -32.5s47.667 -11.5 75 -11.5c56.667 0 101.667 14.167 135 42.5s50 66.833 50 115.5v440h101v-449z" />
    <glyph glyph-name="V" unicode="V" horiz-adv-x="678" 
d="M386 -11h-95l-279 685h112l216 -563l217 563h109z" />
    <glyph glyph-name="W" unicode="W" horiz-adv-x="1001" 
d="M702 -11h-89l-113 271l-111 -271h-88l-289 685h112l226 -553l94 228l-134 325h99l93 -234l93 234h96l-132 -321l94 -232l227 553h109z" />
    <glyph glyph-name="X" unicode="X" horiz-adv-x="647" 
d="M511 0l-189 271l-190 -271h-120l241 340l-238 334h124l187 -268l187 268h121l-239 -334l240 -340h-124z" />
    <glyph glyph-name="Y" unicode="Y" horiz-adv-x="633" 
d="M207 0h-119l168 259l-246 415h121l186 -317l197 317h117z" />
    <glyph glyph-name="Z" unicode="Z" horiz-adv-x="580" 
d="M186 88h358v-88h-518v19l368 567h-357v88h518v-20z" />
    <glyph glyph-name="bracketleft" unicode="[" horiz-adv-x="269" 
d="M69 -137v888h168v-61h-99v-766h99v-61h-168z" />
    <glyph glyph-name="backslash" unicode="\" horiz-adv-x="330" 
d="M307 -85l-333 844l45 21l334 -844z" />
    <glyph glyph-name="bracketright" unicode="]" horiz-adv-x="269" 
d="M32 -137v61h100v766h-100v61h168v-888h-168z" />
    <glyph glyph-name="asciicircum" unicode="^" 
d="M378 225l-127 282l-127 -281l-59 23l155 354h61l155 -353z" />
    <glyph glyph-name="underscore" unicode="_" horiz-adv-x="555" 
d="M1 -184v74h553v-74h-553z" />
    <glyph glyph-name="grave" unicode="`" 
d="M278 482l-109 176l74 26l91 -180z" />
    <glyph glyph-name="a" unicode="a" horiz-adv-x="499" 
d="M345 179c-35.333 14.667 -72.3311 22.001 -110.998 22.001c-12 0 -24.5 -1 -37.5 -3s-24.833 -5.5 -35.5 -10.5s-19.334 -12.333 -26.001 -22s-10 -21.834 -10 -36.501c0 -12.667 3.16699 -23.334 9.5 -32.001s14.166 -15.667 23.499 -21s19.833 -9.16602 31.5 -11.499
s22.5 -3.5 32.5 -3.5c24.667 0 48 5.16699 70 15.5s39.667 25.5 53 45.5v57zM350.002 0.000976562l0.000976562 55.001c-19.333 -22.667 -42.333 -39.5 -69 -50.5s-55 -16.5 -85 -16.5c-20 0 -39.667 2.83301 -59 8.5s-36.5 14.167 -51.5 25.5s-27 25.5 -36 42.5
s-13.5 37.167 -13.5 60.5c0 26 5 48 15 66s23.167 32.5 39.5 43.5s35.333 19 57 24s44.167 7.5 67.5 7.5c25.333 0 48.833 -1.83301 70.5 -5.5s41.5 -9.16699 59.5 -16.5v50c0 32 -10.833 56.167 -32.5 72.5s-48.167 24.5 -79.5 24.5c-20.667 0 -39.5 -3 -56.5 -9
s-34.5 -15.667 -52.5 -29l-29 65c24 16.667 48.667 28.667 74 36s52.333 11 81 11c22.667 0 45.167 -3 67.5 -9s42.166 -15.5 59.499 -28.5s31.333 -29.833 42 -50.5s16 -45.334 16 -74.001v-303h-85z" />
    <glyph glyph-name="b" unicode="b" horiz-adv-x="546" 
d="M416 228c0 23.333 -4 44.833 -12 64.5s-19.333 36.667 -34 51s-32.334 25.5 -53.001 33.5s-44 12 -70 12c-14 0 -28.333 -1 -43 -3s-28.667 -5.33301 -42 -10v-301c28.667 -8.66699 59.334 -13 92.001 -13c26 0 49 4.33301 69 13s36.833 20.5 50.5 35.5
s24.167 32.5 31.5 52.5s11 41.667 11 65zM513 231c0 -36.667 -6.33496 -69.999 -19.002 -99.999s-30.167 -55.833 -52.5 -77.5s-49.166 -38.334 -80.499 -50.001s-65.666 -17.5 -102.999 -17.5c-32 0 -63.5 2 -94.5 6s-61.833 10.667 -92.5 20v662h91v-220
c32.667 7.33301 64.667 11 96 11c36.667 0 70.5 -5.33301 101.5 -16s57.833 -26 80.5 -46s40.5 -44.5 53.5 -73.5s19.5 -61.833 19.5 -98.5z" />
    <glyph glyph-name="c" unicode="c" horiz-adv-x="453" 
d="M417 368c-17.333 6 -34.668 10.332 -52.001 12.999s-34.666 4 -51.999 4c-54 0 -98 -12.833 -132 -38.5s-51 -64.5 -51 -116.5c0 -26 5.16699 -49.333 15.5 -70s24.666 -38.167 42.999 -52.5s40.333 -25.166 66 -32.499s53.834 -11 84.501 -11
c12.667 0 25.5 0.5 38.5 1.5s25.833 3.16699 38.5 6.5l2 -74c-16 -2.66699 -32.5 -4.83398 -49.5 -6.50098s-33.5 -2.5 -49.5 -2.5c-41.333 0 -79.5 5.33301 -114.5 16s-65.167 26.334 -90.5 47.001s-45.166 46.334 -59.499 77.001s-21.5 66 -21.5 106
c0 38 6.5 71.333 19.5 100s31 52.5 54 71.5s50.167 33.167 81.5 42.5s65.666 14 102.999 14c23.333 0 46.333 -1.33301 69 -4s45 -7.33398 67 -14.001z" />
    <glyph glyph-name="d" unicode="d" horiz-adv-x="546" 
d="M384 376c-13.333 4.66699 -27.332 8 -41.999 10s-29.334 3 -44.001 3c-25.333 0 -48.333 -4 -69 -12s-38.334 -19.167 -53.001 -33.5s-26 -31.333 -34 -51s-12 -41.167 -12 -64.5s3.66699 -45 11 -65s17.833 -37.5 31.5 -52.5s30.5 -26.833 50.5 -35.5s43 -13 69 -13
c32.667 0 63.334 4.33301 92.001 13v301zM475.001 12c-30.667 -9.33301 -61.502 -16.001 -92.502 -20.001s-62.5 -6 -94.5 -6c-37.333 0 -71.666 5.83301 -102.999 17.5s-58.166 28.334 -80.499 50.001s-39.833 47.5 -52.5 77.5s-19 63.333 -19 100s6.5 69.5 19.5 98.5
s30.833 53.5 53.5 73.5s49.5 35.333 80.5 46s64.833 16 101.5 16c31.333 0 63.333 -3.66699 96 -11v220h91v-662z" />
    <glyph glyph-name="e" unicode="e" horiz-adv-x="507" 
d="M382 295c-3.33301 32 -16.5 57.5 -39.5 76.5s-51.5 28.5 -85.5 28.5c-34.667 0 -63.167 -9.5 -85.5 -28.5s-36.5 -44.5 -42.5 -76.5h253zM126 229c0.666992 -2.66699 1.00098 -5.16797 1.00098 -7.50098s0.333008 -4.83301 1 -7.5c4 -26 12.667 -48.667 26 -68
s29.833 -35.166 49.5 -47.499s41.834 -21.5 66.501 -27.5s50.667 -9 78 -9c13.333 0 26.333 0.5 39 1.5s25.334 2.16699 38.001 3.5l3 -72c-32 -4 -64 -6 -96 -6c-38.667 0 -76 5 -112 15s-67.833 25.333 -95.5 46s-49.834 46.667 -66.501 78s-25 68 -25 110
c0 33.333 5.33301 64 16 92s25.5 52 44.5 72s42 35.5 69 46.5s57.167 16.5 90.5 16.5c69.333 0 124.166 -20.5 164.499 -61.5s61.166 -99.167 62.499 -174.5h-354z" />
    <glyph glyph-name="f" unicode="f" horiz-adv-x="299" 
d="M339 604c-56 2.66699 -97.333 -7.33301 -124 -30s-40 -52.334 -40 -89.001v-33h120v-75h-120v-377h-91v377h-78v75h78v35c0 26.667 5 52.334 15 77.001s25.333 46.167 46 64.5s47 32.5 79 42.5s70 14.333 114 13z" />
    <glyph glyph-name="g" unicode="g" horiz-adv-x="541" 
d="M383 29c-30 -8.66699 -62.332 -13 -96.999 -13c-8.66699 0 -17 0.333008 -25 1s-16 1.66699 -24 3c-18 -8 -33.833 -18.5 -47.5 -31.5s-20.5 -29.167 -20.5 -48.5s8.66699 -34.333 26 -45s39 -16 65 -16c43.333 0 74.666 11 93.999 33s29 49.333 29 82v35zM381.001 376
c-15.333 4 -30.168 7.16406 -44.501 9.49707s-30.166 3.5 -47.499 3.5c-28 0 -52 -4.16699 -72 -12.5s-36.5 -19.5 -49.5 -33.5s-22.667 -29.667 -29 -47s-9.5 -35 -9.5 -53c0 -23.333 4.16699 -44.666 12.5 -63.999s19.833 -35.666 34.5 -48.999s32 -23.666 52 -30.999
s41.667 -11 65 -11c16 0 31.167 1.16699 45.5 3.5s28.5 5.5 42.5 9.5v275zM470.999 24.9971c0 -66.667 -19.002 -118.833 -57.002 -156.5s-92.667 -56.5 -164 -56.5c-21.333 0 -41.666 2.5 -60.999 7.5s-36.5 12.333 -51.5 22s-27 21.5 -36 35.5s-13.5 30.333 -13.5 49
c0 26 7.5 47.833 22.5 65.5s35.5 32.5 61.5 44.5c-42.667 16.667 -76.5 43.5 -101.5 80.5s-37.5 79.5 -37.5 127.5c0 30.667 5.33301 59.5 16 86.5s26.834 50.5 48.501 70.5s48.5 35.667 80.5 47s69.333 17 112 17c60.667 0 121 -8.66699 181 -26v-414z" />
    <glyph glyph-name="h" unicode="h" horiz-adv-x="548" 
d="M393 0l-0.000976562 281.001c0 34.667 -10.667 60.667 -32 78s-47.666 26 -78.999 26s-56.5 -6.5 -75.5 -19.5s-33.833 -28.5 -44.5 -46.5v-319h-91v674h91v-274c15.333 17.333 35 32.166 59 44.499s53.333 18.5 88 18.5c25.333 0 48.666 -3.66699 69.999 -11
s39.833 -17.833 55.5 -31.5s27.834 -30.5 36.501 -50.5s13 -43 13 -69v-301h-91z" />
    <glyph glyph-name="i" unicode="i" horiz-adv-x="258" 
d="M84 0v452h91v-452h-91zM187 621c0 -18.667 -5.66699 -33 -17 -43s-25 -15 -41 -15s-29.667 5 -41 15s-17 24.333 -17 43s5.83301 32.834 17.5 42.501s25.167 14.5 40.5 14.5s28.833 -4.83301 40.5 -14.5s17.5 -23.834 17.5 -42.501z" />
    <glyph glyph-name="j" unicode="j" horiz-adv-x="253" 
d="M171 63c0 -82 -22.832 -143.832 -68.499 -185.499s-107.834 -63.5 -186.501 -65.5l2 82c54 2.66699 94.5 17.167 121.5 43.5s40.5 70.166 40.5 131.499v383h91v-389zM183.001 625.001c0 -17.333 -5.66699 -30.5 -17 -39.5s-25 -13.5 -41 -13.5s-29.667 4.5 -41 13.5
s-17 22.167 -17 39.5s5.83301 30.5 17.5 39.5s25.167 13.5 40.5 13.5s28.833 -4.5 40.5 -13.5s17.5 -22.167 17.5 -39.5z" />
    <glyph glyph-name="k" unicode="k" horiz-adv-x="481" 
d="M71 0v674h91v-674h-91zM363 0l-183 232v3l189 217h102l-196 -216l196 -236h-108z" />
    <glyph glyph-name="l" unicode="l" horiz-adv-x="230" 
d="M109 0c-13.333 29.333 -23.001 59.668 -29.001 91.001s-9 66.333 -9 105v478h91v-474c0 -42.667 2.33301 -79.334 7 -110.001s13.334 -60.667 26.001 -90h-86z" />
    <glyph glyph-name="m" unicode="m" horiz-adv-x="867" 
d="M712 0l0.00292969 281c0 34.667 -10.667 60.667 -32 78s-47.333 26 -78 26s-55.334 -6.16699 -74.001 -18.5s-34.334 -29.5 -47.001 -51.5c0.666992 -3.33301 1 -7.16602 1 -11.499v-13.5v-290h-91v281c0 34.667 -10.5 60.667 -31.5 78s-47.167 26 -78.5 26
s-56.333 -6.5 -75 -19.5s-33.334 -28.5 -44.001 -46.5v-319h-91v452h85v-55c15.333 17.333 35.666 32.666 60.999 45.999s56 20 92 20c34 0 64.833 -6.5 92.5 -19.5s48.167 -33.167 61.5 -60.5c19.333 24 42 43.333 68 58s58.667 22 98 22c24.667 0 47.667 -3.66699 69 -11
s39.833 -17.833 55.5 -31.5s27.834 -30.5 36.501 -50.5s13 -43 13 -69v-301h-91z" />
    <glyph glyph-name="n" unicode="n" horiz-adv-x="559" 
d="M405 0l0.00195312 281.001c0 34.667 -11.333 60.667 -34 78s-50.334 26 -83.001 26c-33.333 0 -59.833 -6.5 -79.5 -19.5s-35.167 -28.5 -46.5 -46.5v-319h-91v452h85v-55c15.333 17.333 36.166 32.666 62.499 45.999s58.5 20 96.5 20c26 0 50 -3.66699 72 -11
s41 -17.833 57 -31.5s28.5 -30.5 37.5 -50.5s13.5 -43 13.5 -69v-301h-90z" />
    <glyph glyph-name="o" unicode="o" horiz-adv-x="547" 
d="M418 233c0 16.667 -2.33301 34.332 -7 52.999s-12.5 35.834 -23.5 51.501s-25.667 28.667 -44 39s-41.5 15.5 -69.5 15.5s-51.333 -5.16699 -70 -15.5s-33.5 -23.5 -44.5 -39.5s-18.667 -33.333 -23 -52s-6.5 -36.334 -6.5 -53.001c0 -16 2.16699 -34.167 6.5 -54.5
s12 -39.166 23 -56.499s25.833 -32 44.5 -44s42 -18 70 -18s51.167 6 69.5 18s33 26.833 44 44.5s18.833 36.5 23.5 56.5s7 38.333 7 55zM514 234.998c0 -32 -4.99902 -63 -14.999 -93s-25 -56.5 -45 -79.5s-45 -41.5 -75 -55.5s-65 -21 -105 -21s-75.167 7 -105.5 21
s-55.5 32.5 -75.5 55.5s-35 49.5 -45 79.5s-15 61 -15 93s5.16699 61.833 15.5 89.5s25.666 52 45.999 73s45.5 37.5 75.5 49.5s64.667 18 104 18s74 -6 104 -18s55 -28.5 75 -49.5s35.167 -45.333 45.5 -73s15.5 -57.5 15.5 -89.5z" />
    <glyph glyph-name="p" unicode="p" horiz-adv-x="546" 
d="M416 228c0 23.333 -4 44.833 -12 64.5s-19.333 36.667 -34 51s-32.334 25.5 -53.001 33.5s-44 12 -70 12c-30.667 0 -59 -4.33301 -85 -13v-301c28.667 -8.66699 59.334 -13 92.001 -13c26 0 49 4.33301 69 13s36.833 20.5 50.5 35.5s24.167 32.5 31.5 52.5
s11 41.667 11 65zM513 231c0 -36.667 -6.33398 -70 -19.001 -100s-30.167 -55.833 -52.5 -77.5s-49.166 -38.334 -80.499 -50.001s-65.666 -17.5 -102.999 -17.5c-31.333 0 -63.333 3.66699 -96 11v-185h-91v627c29.333 8 58.666 14.333 87.999 19s59 7 89 7
c37.333 0 72.166 -5 104.499 -15s60.333 -24.667 84 -44s42.334 -43.666 56.001 -72.999s20.5 -63.333 20.5 -102z" />
    <glyph glyph-name="q" unicode="q" horiz-adv-x="546" 
d="M384 376c-26 8.66699 -54.667 13 -86 13c-25.333 0 -48.333 -4 -69 -12s-38.334 -19.167 -53.001 -33.5s-26 -31.333 -34 -51s-12 -41.167 -12 -64.5s3.66699 -45 11 -65s17.833 -37.5 31.5 -52.5s30.5 -26.833 50.5 -35.5s43 -13 69 -13
c32.667 0 63.334 4.33301 92.001 13v301zM384 -188l-0.000976562 185c-33.333 -7.33301 -65.333 -11 -96 -11c-37.333 0 -71.666 5.83301 -102.999 17.5s-58.166 28.334 -80.499 50.001s-39.833 47.5 -52.5 77.5s-19 63.333 -19 100c0 38.667 6.83301 72.667 20.5 102
s32.334 53.666 56.001 72.999s51.667 34 84 44s67.166 15 104.499 15c30 0 59.667 -2.33301 89 -7s58.666 -11 87.999 -19v-627h-91z" />
    <glyph glyph-name="r" unicode="r" horiz-adv-x="342" 
d="M332 373c-5.33301 1.33301 -11.8359 2.66504 -19.5029 3.99805s-16.5 2 -26.5 2c-26 0 -49.167 -6 -69.5 -18s-37.166 -28.667 -50.499 -50v-311h-90v266c0 19.333 -0.666992 37 -2 53s-3.16602 31.333 -5.49902 46s-5.66602 29 -9.99902 43s-9.5 28.667 -15.5 44h86
c5.33301 -11.333 9.83301 -22.666 13.5 -33.999s6.5 -22.666 8.5 -33.999c18 24 39.333 43.167 64 57.5s56 21.5 94 21.5h13.5c5 0 9.83301 -0.333008 14.5 -1z" />
    <glyph glyph-name="s" unicode="s" horiz-adv-x="441" 
d="M403 130c0 -28.667 -7.33887 -52.166 -22.0059 -70.499s-33.167 -32.666 -55.5 -42.999s-46.666 -17.5 -72.999 -21.5s-51.166 -6 -74.499 -6s-45.666 1.16699 -66.999 3.5s-42.666 5.16602 -63.999 8.49902l7 75c21.333 -5.33301 43 -9.33301 65 -12s43.667 -4 65 -4
c16 0 31.667 0.833008 47 2.5s29 4.83398 41 9.50098s21.667 10.834 29 18.501s11 17.5 11 29.5c0 10 -2.66699 18.667 -8 26s-13.333 14 -24 20s-23.5 11.833 -38.5 17.5l-52.5 19.5c-17.333 6 -34.5 12.667 -51.5 20s-32.333 16 -46 26s-24.667 21.833 -33 35.5
s-12.5 29.834 -12.5 48.501c0 27.333 7 49.5 21 66.5s31.333 30.167 52 39.5s43.167 15.666 67.5 18.999s46.833 5 67.5 5c44.667 0 88 -4 130 -12l-6 -75c-20.667 4.66699 -41.334 8.33398 -62.001 11.001s-42.667 4 -66 4c-15.333 0 -29.666 -0.833008 -42.999 -2.5
s-25.166 -4.33398 -35.499 -8.00098s-18.5 -8.66699 -24.5 -15s-9 -14.5 -9 -24.5c0 -9.33301 2.5 -17.333 7.5 -24s12.167 -12.667 21.5 -18s20.5 -10.333 33.5 -15l43.5 -15c18.667 -6 37.334 -12.833 56.001 -20.5s35.667 -16.834 51 -27.501
s27.833 -23.334 37.5 -38.001s14.5 -32.334 14.5 -53.001z" />
    <glyph glyph-name="t" unicode="t" horiz-adv-x="317" 
d="M301 -10c-39.333 0 -72.833 5.33398 -100.5 16.001s-50.167 26 -67.5 46s-30.166 44 -38.499 72s-12.5 59.333 -12.5 94v159h-78v75h78v136l90 27v-163h121v-75h-121v-158c0 -22 2.16699 -42.333 6.5 -61s11.666 -34.834 21.999 -48.501s24 -24.167 41 -31.5
s37.833 -11 62.5 -11z" />
    <glyph glyph-name="u" unicode="u" horiz-adv-x="538" 
d="M474 154c0 -23.333 -3.99902 -45.167 -11.999 -65.5s-20.5 -38 -37.5 -53s-38.333 -26.667 -64 -35s-56.5 -12.5 -92.5 -12.5c-34.667 0 -64.834 4.33301 -90.501 13s-46.834 20.5 -63.501 35.5s-29.167 32.5 -37.5 52.5s-12.5 41.667 -12.5 65v298h91v-286
c0 -32.667 10.833 -58 32.5 -76s48.834 -27 81.501 -27c34 0 61.5 8.5 82.5 25.5s31.5 42.5 31.5 76.5v287h91v-298z" />
    <glyph glyph-name="v" unicode="v" horiz-adv-x="465" 
d="M284 -10h-103l-173 462h94l134 -376l133 376h89z" />
    <glyph glyph-name="w" unicode="w" horiz-adv-x="735" 
d="M577 -10h-96l-113 278l-114 -278h-96l-150 462h92l114 -365l146 374h22l146 -374l113 365h86z" />
    <glyph glyph-name="x" unicode="x" horiz-adv-x="451" 
d="M349 0l-122 173l-121 -173h-98l164 228l-162 224h98l121 -171l119 171h94l-162 -224l163 -228h-94z" />
    <glyph glyph-name="y" unicode="y" horiz-adv-x="471" 
d="M281 2c-17.333 -42.667 -34.666 -78.667 -51.999 -108s-36 -56.666 -56 -81.999h-85c20.667 25.333 40.667 54.166 60 86.499s35.666 66.833 48.999 103.5l-189 450h94l139 -341l133 341h90z" />
    <glyph glyph-name="z" unicode="z" horiz-adv-x="452" 
d="M170 75h251v-75h-394v15l258 362h-252v75h395v-17z" />
    <glyph glyph-name="braceleft" unicode="{" horiz-adv-x="269" 
d="M251 -137c-34 0.666992 -61.333 4.99805 -82 12.998s-36.5 20 -47.5 36s-18.167 36.167 -21.5 60.5s-5 53.5 -5 87.5v87c0 22 -1 41.333 -3 58s-5.66699 30.5 -11 41.5s-13.166 19.333 -23.499 25s-23.5 8.5 -39.5 8.5v53c16 0 29.167 2.83301 39.5 8.5
s18.166 14.167 23.499 25.5s9 25.333 11 42s3 36 3 58v87c0 34 1.66699 63.167 5 87.5s10.5 44.5 21.5 60.5s26.833 27.833 47.5 35.5s48 12.167 82 13.5v-54c-20.667 0 -36.834 -2.83301 -48.501 -8.5s-20.5 -14.5 -26.5 -26.5s-9.66699 -27.167 -11 -45.5
s-2 -39.833 -2 -64.5v-87c0 -26 -1.83301 -47.833 -5.5 -65.5s-8.83398 -32.667 -15.501 -45s-14.5 -22.166 -23.5 -29.499s-18.5 -13.333 -28.5 -18c10 -4.66699 19.5 -10.667 28.5 -18s16.833 -17.166 23.5 -29.499s11.834 -27.333 15.501 -45s5.5 -39.5 5.5 -65.5v-87
c0 -24.667 0.666992 -46 2 -64s5 -33 11 -45s14.833 -21 26.5 -27s27.834 -9 48.501 -9v-54z" />
    <glyph glyph-name="bar" unicode="|" horiz-adv-x="269" 
d="M103 -188v873h63v-873h-63z" />
    <glyph glyph-name="braceright" unicode="}" horiz-adv-x="269" 
d="M251 281c-16.667 0 -30 -2.83105 -40 -8.49805s-17.833 -14.167 -23.5 -25.5s-9.5 -25.333 -11.5 -42s-3 -36 -3 -58v-87c0 -34 -1.66699 -63.167 -5 -87.5s-10.5 -44.5 -21.5 -60.5s-26.667 -28 -47 -36s-47.5 -12.333 -81.5 -13v54c20.667 0 36.834 2.83301 48.501 8.5
s20.5 14.5 26.5 26.5s9.66699 27.167 11 45.5s2 39.833 2 64.5v87c0 26 1.83301 47.833 5.5 65.5s8.83398 32.667 15.501 45s14.5 22.166 23.5 29.499s18.833 13.333 29.5 18c-10.667 4.66699 -20.5 10.667 -29.5 18s-16.833 17.166 -23.5 29.499s-11.834 27.333 -15.501 45
s-5.5 39.5 -5.5 65.5v87c0 24.667 -0.666992 46 -2 64s-5 33 -11 45s-14.833 21 -26.5 27s-27.834 9 -48.501 9v54c34 -1.33301 61.167 -5.83301 81.5 -13.5s36 -19.5 47 -35.5s18.167 -36.167 21.5 -60.5s5 -53.5 5 -87.5v-87c0 -22 1 -41.333 3 -58
s5.83301 -30.5 11.5 -41.5s13.5 -19.333 23.5 -25s23.333 -8.5 40 -8.5v-53z" />
    <glyph glyph-name="asciitilde" unicode="~" horiz-adv-x="512" 
d="M480 280c-15.333 -26.667 -32.668 -47.832 -52.001 -63.499s-41.666 -23.5 -66.999 -23.5c-20 0 -38.667 3.5 -56 10.5s-34.166 14.833 -50.499 23.5s-32.666 16.5 -48.999 23.5s-33.5 10.5 -51.5 10.5c-18.667 0 -34.667 -5 -48 -15s-26 -24 -38 -42l-35 54
c17.333 27.333 35.666 47.666 54.999 60.999s41.666 20 66.999 20c20 0 39 -3.33301 57 -10s35.333 -14 52 -22s33.167 -15.333 49.5 -22s32.5 -10 48.5 -10s31 5.33301 45 16s26.667 24.667 38 42z" />
    <glyph glyph-name="nonbreakingspace" unicode="&#xa0;" horiz-adv-x="132" 
 />
    <glyph glyph-name="exclamdown" unicode="&#xa1;" horiz-adv-x="269" 
d="M81 -219l22 504h61l22 -493zM186 406c0 -15.333 -5.16699 -28.332 -15.5 -38.999s-22.5 -16 -36.5 -16c-14.667 0 -27.167 5.33301 -37.5 16s-15.5 23.667 -15.5 39s5.16699 28.666 15.5 39.999s22.833 17 37.5 17s27 -5.5 37 -16.5s15 -24.5 15 -40.5z" />
    <glyph glyph-name="cent" unicode="&#xa2;" horiz-adv-x="495" 
d="M444 408c-19.333 6 -38.498 10.332 -57.498 12.999s-38.833 4 -59.5 4c-28.667 0 -54.834 -3.83301 -78.501 -11.5s-44.167 -18.834 -61.5 -33.501s-30.833 -32.834 -40.5 -54.501s-14.5 -46.167 -14.5 -73.5c0 -28 5.16699 -53.167 15.5 -75.5
s24.666 -41.5 42.999 -57.5s40 -28.333 65 -37s52.167 -13 81.5 -13c17.333 0 35 1.33301 53 4s35.333 6.66699 52 12l6 -78c-21.333 -6 -43.5 -10.5 -66.5 -13.5s-45.167 -4.16699 -66.5 -3.5v-92h-55v94c-34 4 -65.333 13 -94 27s-53.334 32.333 -74.001 55
s-36.834 49.334 -48.501 80.001s-17.5 64.667 -17.5 102c0 36.667 5.66699 69.667 17 99s27.333 54.333 48 75s45.334 37.334 74.001 50.001s60.334 21 95.001 25v87h55v-86c23.333 0.666992 46.833 -0.666016 70.5 -3.99902s46.5 -8 68.5 -14z" />
    <glyph glyph-name="sterling" unicode="&#xa3;" horiz-adv-x="493" 
d="M34 0l-0.00585938 76.001h104c-2.66699 11.333 -5.5 24.5 -8.5 39.5s-5.66699 30 -8 45l-6.5 42.5c-2 13.333 -3.33301 24.333 -4 33h-80v62h77c1.33301 36.667 9.83301 68.334 25.5 95.001s36.334 48.5 62.001 65.5s55.167 29.667 88.5 38s68 12.5 104 12.5
c12.667 0 25 -0.333008 37 -1s24.333 -2.33398 37 -5.00098l-8 -81c-11.333 2.66699 -22.666 4.33398 -33.999 5.00098s-22.666 1 -33.999 1c-24 0 -46.667 -2.5 -68 -7.5s-40 -12.667 -56 -23s-29 -23.833 -39 -40.5s-15.667 -36.334 -17 -59.001h180v-62h-178
c0.666992 -10.667 1.83398 -22.834 3.50098 -36.501s3.83398 -27.667 6.50098 -42l8 -42.5c2.66699 -14 5.33398 -27 8.00098 -39h251v-76h-451z" />
    <glyph glyph-name="currency" unicode="&#xa4;" horiz-adv-x="543" 
d="M495 5c-22.667 -6.66699 -45.665 -11.332 -68.998 -13.999s-46 -4 -68 -4c-32 0 -62.333 3.83301 -91 11.5s-54.834 19 -78.501 34s-44.167 33.333 -61.5 55s-30.666 46.167 -39.999 73.5h-77v57h65c-2 11.333 -2.83301 23 -2.5 35s1.5 23.667 3.5 35h-66v57h76
c18 54 50.667 94.833 98 122.5s104 41.5 170 41.5c24 0 48.5 -1.5 73.5 -4.5s49.167 -7.83301 72.5 -14.5l-9 -74c-18.667 5.33301 -38.167 9.5 -58.5 12.5s-40.833 4.5 -61.5 4.5c-42 0 -78.333 -7.66699 -109 -23s-53 -37 -67 -65h260v-57h-279
c-2.66699 -11.333 -4 -23 -4 -35s1 -23.667 3 -35h280v-57h-256c13.333 -28.667 35.166 -52.334 65.499 -71.001s68.833 -28 115.5 -28c17.333 0 35.666 1.33301 54.999 4s37.333 6.66699 54 12z" />
    <glyph glyph-name="yen" unicode="&#xa5;" horiz-adv-x="488" 
d="M326 217h123v-62h-151l-77 -155h-105l78 155h-169v62h140l-161 281h105l137 -246l120 246h98z" />
    <glyph glyph-name="brokenbar" unicode="&#xa6;" horiz-adv-x="256" 
d="M94 0v275h68l-1 -275h-67zM94 399v275h67v-275h-67z" />
    <glyph glyph-name="section" unicode="&#xa7;" horiz-adv-x="517" 
d="M374 235c0 16 -4.99707 29.666 -14.9971 40.999s-25 24 -45 38l-34.5 20.5c-13 7.66699 -25.833 14.834 -38.5 21.501c-14 -2.66699 -27.333 -6.5 -40 -11.5s-23.834 -11 -33.501 -18s-17.334 -15 -23.001 -24s-8.5 -18.5 -8.5 -28.5c0 -15.333 5.66699 -29 17 -41
s26.666 -23.667 45.999 -35c15.333 -9.33301 29.666 -17.166 42.999 -23.499s26.333 -12.833 39 -19.5c10.667 2.66699 21.667 6.66699 33 12s21.333 11.5 30 18.5s15.834 14.667 21.501 23s8.5 17.166 8.5 26.499zM451.003 -18.001c0 -23.333 -4.83203 -44 -14.499 -62
s-22.667 -33.5 -39 -46.5s-35.333 -24 -57 -33s-44 -16 -67 -21s-46.333 -8.66699 -70 -11s-45.834 -3.5 -66.501 -3.5c-26.667 0 -51.334 1 -74.001 3l6 75c11.333 -1.33301 24.166 -2.66602 38.499 -3.99902s27.166 -2 38.499 -2c20.667 0 43 1.5 67 4.5s46.333 8 67 15
s37.667 16.5 51 28.5s20 27 20 45c0 12 -4.16699 23.5 -12.5 34.5s-19.166 21.5 -32.499 31.5s-28.166 19.333 -44.499 28l-47.5 25c-17.333 8.66699 -35 18.167 -53 28.5s-34.167 21.833 -48.5 34.5s-26.166 27 -35.499 43s-14 34 -14 54c0 18 3.5 34.333 10.5 49
s16 27.5 27 38.5s23.667 20.5 38 28.5s29.166 14.667 44.499 20c-15.333 8.66699 -30.166 17.834 -44.499 27.501s-27.166 20.167 -38.499 31.5s-20.333 24 -27 38s-10 29.667 -10 47c0 28 8.5 51.833 25.5 71.5s38.667 35.5 65 47.5s55.333 20.833 87 26.5
s62.5 8.5 92.5 8.5c15.333 0 30.666 -0.333008 45.999 -1s30.666 -1.66699 45.999 -3l-5 -75c-12 2 -25.333 3.66699 -40 5s-28.667 2 -42 2c-22 0 -43.667 -1.33301 -65 -4s-40.333 -7 -57 -13s-30.167 -13.833 -40.5 -23.5s-15.5 -21.5 -15.5 -35.5
c0 -11.333 4 -21.833 12 -31.5s18.167 -18.667 30.5 -27s26.166 -16.333 41.499 -24l45 -23.5c24.667 -12.667 47 -25 67 -37s37 -24.5 51 -37.5s24.833 -27 32.5 -42s11.5 -32.5 11.5 -52.5c0 -18 -3.16699 -34.333 -9.5 -49s-14.666 -27.5 -24.999 -38.5
s-22 -20.833 -35 -29.5s-26.167 -16 -39.5 -22c12 -7.33301 24.5 -15.5 37.5 -24.5s24.833 -19.333 35.5 -31s19.334 -24.334 26.001 -38.001s10 -28.834 10 -45.501z" />
    <glyph glyph-name="dieresis" unicode="&#xa8;" 
d="M223 618c0 -19.333 -5.33203 -34.333 -15.999 -45s-23.334 -16 -38.001 -16s-27.167 5.33301 -37.5 16s-15.5 25.667 -15.5 45c0 20.667 5.16699 36 15.5 46s22.833 15 37.5 15c14 0 26.5 -5 37.5 -15s16.5 -25.333 16.5 -46zM384.001 618
c0 -19.333 -5.16602 -34.333 -15.499 -45s-22.833 -16 -37.5 -16s-27.334 5.33301 -38.001 16s-16 25.667 -16 45c0 20.667 5.5 36 16.5 46s23.5 15 37.5 15c14.667 0 27.167 -5 37.5 -15s15.5 -25.333 15.5 -46z" />
    <glyph glyph-name="copyright" unicode="&#xa9;" horiz-adv-x="783" 
d="M516 157c-18 -6.66699 -36.3359 -11.166 -55.0029 -13.499s-37 -3.5 -55 -3.5c-31.333 0 -60.333 4.83301 -87 14.5s-49.667 23.5 -69 41.5s-34.666 39.5 -45.999 64.5s-17 52.833 -17 83.5c0 32 5.83301 60.333 17.5 85s27.667 45.5 48 62.5s44 29.833 71 38.5
s56.167 13 87.5 13c16.667 0 34.334 -1.16699 53.001 -3.5s37 -6.83301 55 -13.5l-11 -57c-15.333 5.33301 -30.5 9.16602 -45.5 11.499s-30.833 3.5 -47.5 3.5c-46 0 -83 -12.333 -111 -37s-42 -59 -42 -103c0 -21.333 3.66699 -40.833 11 -58.5s17.833 -33 31.5 -46
s29.834 -23.167 48.501 -30.5s39.667 -11 63 -11c16 0 31.333 1.16699 46 3.5s29.667 6.83301 45 13.5zM676.997 337.001c0 38.667 -7.5 75.167 -22.5 109.5s-35.333 64.333 -61 90s-55.834 45.834 -90.501 60.501s-71.667 22 -111 22s-76.333 -7.33301 -111 -22
s-65 -34.834 -91 -60.501s-46.5 -55.667 -61.5 -90s-22.5 -70.833 -22.5 -109.5c0 -39.333 7.5 -76.166 22.5 -110.499s35.5 -64.166 61.5 -89.499s56.333 -45.5 91 -60.5s71.667 -22.5 111 -22.5s76.333 7.5 111 22.5s64.834 35.167 90.501 60.5s46 55.166 61 89.499
s22.5 71.166 22.5 110.499zM730.997 337.001c0 -47.333 -8.83301 -91.5 -26.5 -132.5s-41.834 -77 -72.501 -108s-66.667 -55.333 -108 -73s-85.333 -26.5 -132 -26.5c-47.333 0 -91.5 9 -132.5 27s-77 42.333 -108 73s-55.333 66.667 -73 108s-26.5 85.333 -26.5 132
s8.83301 90.667 26.5 132s42 77.333 73 108s67 54.834 108 72.501s85.167 26.5 132.5 26.5c46.667 0 90.667 -8.83301 132 -26.5s77.333 -41.834 108 -72.501s54.834 -66.667 72.501 -108s26.5 -85.333 26.5 -132z" />
    <glyph glyph-name="ordfeminine" unicode="&#xaa;" horiz-adv-x="458" 
d="M319 459c-26.667 11.333 -55.333 17 -86 17c-9.33301 0 -19 -0.666992 -29 -2s-19 -4 -27 -8s-14.667 -9.66699 -20 -17s-8 -17 -8 -29c0 -10 2.5 -18.167 7.5 -24.5s11.167 -11.5 18.5 -15.5s15.5 -6.83301 24.5 -8.5s17.5 -2.5 25.5 -2.5
c18.667 0 36.5 3.83301 53.5 11.5s30.5 19.167 40.5 34.5v44zM57.001 154v55h347v-55h-347zM324.001 318v39.9961c-15.333 -16.667 -33.5 -29 -54.5 -37s-43.167 -12 -66.5 -12c-16 0 -31.667 2.16699 -47 6.5s-28.833 11 -40.5 20s-21.167 20.333 -28.5 34
s-11 29.834 -11 48.501c0 20.667 4 38.334 12 53.001s18.667 26.334 32 35.001s28.5 15 45.5 19s34.833 6 53.5 6c19.333 0 37.333 -1.33301 54 -4s32 -6.66699 46 -12v32c0 25.333 -8.33301 44.333 -25 57s-37 19 -61 19c-16 0 -31 -2.33301 -45 -7s-28 -12.667 -42 -24
l-24 55c38 25.333 79.667 38 125 38c18 0 35.833 -2.5 53.5 -7.5s33.5 -12.667 47.5 -23s25.167 -23.666 33.5 -39.999s12.5 -35.833 12.5 -58.5v-238h-70z" />
    <glyph glyph-name="guillemotleft" unicode="&#xab;" horiz-adv-x="468" 
d="M172 58l-103 192l103 192l59 -30l-77 -162l77 -162zM339 58l-102 192l102 192l61 -30l-79 -162l79 -162z" />
    <glyph glyph-name="registered" unicode="&#xae;" horiz-adv-x="783" 
d="M502 426c0 17.333 -6.50098 31.167 -19.501 41.5s-29.5 15.5 -49.5 15.5h-123v-120h117c8.66699 0 17.334 1 26.001 3s16.667 5.5 24 10.5s13.333 11.5 18 19.5s7 18 7 30zM574.999 429.001c0 -28.667 -8.16992 -52 -24.5029 -70s-38.166 -29.667 -65.499 -35
c-5.33301 -1.33301 -11 -2.33301 -17 -3s-11.667 -1 -17 -1l126 -174h-85l-112 164h-70v-164h-71v391h208c16.667 0 32.834 -2.16699 48.501 -6.5s29.334 -11 41.001 -20s21 -20.333 28 -34s10.5 -29.5 10.5 -47.5zM676.996 337.001c0 38.667 -7.5 75.167 -22.5 109.5
s-35.333 64.333 -61 90s-55.834 45.834 -90.501 60.501s-71.667 22 -111 22s-76.333 -7.33301 -111 -22s-65 -34.834 -91 -60.501s-46.5 -55.667 -61.5 -90s-22.5 -70.833 -22.5 -109.5c0 -39.333 7.5 -76.166 22.5 -110.499s35.5 -64.166 61.5 -89.499
s56.333 -45.5 91 -60.5s71.667 -22.5 111 -22.5s76.333 7.5 111 22.5s64.834 35.167 90.501 60.5s46 55.166 61 89.499s22.5 71.166 22.5 110.499zM730.996 337.001c0 -47.333 -8.83301 -91.5 -26.5 -132.5s-41.834 -77 -72.501 -108s-66.667 -55.333 -108 -73
s-85.333 -26.5 -132 -26.5c-47.333 0 -91.5 9 -132.5 27s-77 42.333 -108 73s-55.333 66.667 -73 108s-26.5 85.333 -26.5 132s8.83301 90.667 26.5 132s42 77.333 73 108s67 54.834 108 72.501s85.167 26.5 132.5 26.5c46.667 0 90.667 -8.83301 132 -26.5
s77.333 -41.834 108 -72.501s54.834 -66.667 72.501 -108s26.5 -85.333 26.5 -132z" />
    <glyph glyph-name="macron" unicode="&#xaf;" 
d="M121 592v67h258v-67h-258z" />
    <glyph glyph-name="macron" unicode="&#x2c9;" 
d="M121 592v67h258v-67h-258z" />
    <glyph glyph-name="degree" unicode="&#xb0;" horiz-adv-x="527" 
d="M367 541c0 14 -2.66699 27.167 -8 39.5s-12.5 23.166 -21.5 32.499s-19.833 16.666 -32.5 21.999s-26 8 -40 8c-14.667 0 -28.334 -2.66699 -41.001 -8s-23.667 -12.666 -33 -21.999s-16.666 -20.166 -21.999 -32.499s-8 -25.5 -8 -39.5s2.66699 -27.167 8 -39.5
s12.666 -23.333 21.999 -33s20.333 -17.167 33 -22.5s26.334 -8 41.001 -8c14 0 27.333 2.66699 40 8s23.5 12.833 32.5 22.5s16.167 20.667 21.5 33s8 25.5 8 39.5zM414 541c0 -21.333 -4 -41.333 -12 -60s-18.667 -35 -32 -49s-29 -25 -47 -33s-37.333 -12 -58 -12
c-21.333 0 -41.166 4 -59.499 12s-34.166 19 -47.499 33s-24 30.333 -32 49s-12 38.667 -12 60s4 41.333 12 60s18.667 34.834 32 48.501s29.166 24.5 47.499 32.5s38.166 12 59.499 12c20.667 0 40 -4 58 -12s33.667 -18.833 47 -32.5s24 -29.834 32 -48.501
s12 -38.667 12 -60z" />
    <glyph glyph-name="twosuperior" unicode="&#xb2;" horiz-adv-x="356" 
d="M35 265l0.000976562 22.0029l56 50c22 20 43 41.5 63 64.5s37 46.667 51 71s21 47.166 21 68.499c0 16.667 -3.83301 30.5 -11.5 41.5s-17.5 19.667 -29.5 26s-25.333 10.666 -40 12.999s-29 3.5 -43 3.5c-12 0 -23.333 -1 -34 -3l-3 66
c6.66699 0.666992 13.167 1.16699 19.5 1.5s12.833 0.5 19.5 0.5c22 0 44.667 -1.83301 68 -5.5s44.666 -10.5 63.999 -20.5s35.333 -23.667 48 -41s19 -39.333 19 -66c0 -22.667 -4.5 -44.334 -13.5 -65.001s-20.5 -40.5 -34.5 -59.5s-29.167 -37 -45.5 -54l-46.5 -48.5
h150v-65h-278z" />
    <glyph glyph-name="threesuperior" unicode="&#xb3;" horiz-adv-x="356" 
d="M306 403c0 -27.333 -7.33496 -50 -22.002 -68s-33 -32.5 -55 -43.5s-45.667 -18.667 -71 -23s-48.666 -6.5 -69.999 -6.5h-17c-5.33301 0 -11.333 0.333008 -18 1l4 65c6.66699 -0.666992 13 -1 19 -1h19c16 0 32 1.5 48 4.5s30.333 7.5 43 13.5s22.834 13.5 30.501 22.5
s11.5 19.833 11.5 32.5c0 14 -3.66699 25.333 -11 34s-16.833 15.5 -28.5 20.5s-24.334 8.5 -38.001 10.5s-26.5 3 -38.5 3h-28v61h31c10.667 0 21.667 1 33 3s21.333 5 30 9s15.834 9.33301 21.501 16s8.5 14.667 8.5 24c0 8.66699 -3.5 16 -10.5 22
s-15.833 10.833 -26.5 14.5s-22.334 6.33398 -35.001 8.00098s-24.667 2.5 -36 2.5c-13.333 0 -25.666 -1.33301 -36.999 -4l-4 64l18 2c6 0.666992 12.333 1 19 1c16.667 0 36 -1.33301 58 -4s42.833 -7.83398 62.5 -15.501s36.334 -18.667 50.001 -33
s20.5 -33.5 20.5 -57.5c0 -19.333 -7.33301 -35.666 -22 -48.999s-30.334 -22.666 -47.001 -27.999v-1c11.333 -2.66699 22.333 -6.83398 33 -12.501s20 -12.834 28 -21.501s14.5 -18.667 19.5 -30s7.5 -23.333 7.5 -36z" />
    <glyph glyph-name="acute" unicode="&#xb4;" 
d="M226 482l-57 22l91 180l74 -26z" />
    <glyph glyph-name="paragraph" unicode="&#xb6;" horiz-adv-x="555" 
d="M431 594l-0.00292969 -547.999c0 -35.333 -5.16699 -67 -15.5 -95s-25 -52 -44 -72s-41.833 -35.833 -68.5 -47.5s-56 -18.834 -88 -21.501l-21 -1l-7 76l22 2c40.667 5.33301 72.667 21.833 96 49.5s35 64.167 35 109.5v177h-89c-33.333 0 -63.166 6.66699 -89.499 20
s-48.666 31 -66.999 53s-32.333 47.167 -42 75.5s-14.5 57.5 -14.5 87.5c0 34.667 5.33301 65.5 16 92.5s25.5 49.5 44.5 67.5s41.333 31.667 67 41s53.834 14 84.501 14h272v-80h-91z" />
    <glyph glyph-name="periodcentered" unicode="&#xb7;" horiz-adv-x="264" 
d="M189 262c0 -16.667 -5.66699 -31.167 -17 -43.5s-25 -18.5 -41 -18.5c-15.333 0 -28.5 6 -39.5 18s-16.5 26.667 -16.5 44c0 16.667 5.5 31 16.5 43s24.167 18 39.5 18c16 0 29.667 -6 41 -18s17 -26.333 17 -43z" />
    <glyph glyph-name="periodcentered" unicode="&#x2219;" horiz-adv-x="264" 
d="M189 262c0 -16.667 -5.66699 -31.167 -17 -43.5s-25 -18.5 -41 -18.5c-15.333 0 -28.5 6 -39.5 18s-16.5 26.667 -16.5 44c0 16.667 5.5 31 16.5 43s24.167 18 39.5 18c16 0 29.667 -6 41 -18s17 -26.333 17 -43z" />
    <glyph glyph-name="cedilla" unicode="&#xb8;" 
d="M359 -49c0 -22.667 -4.00098 -42.167 -12.001 -58.5s-18.833 -29.833 -32.5 -40.5s-29.667 -18.5 -48 -23.5s-38.166 -7.5 -59.499 -7.5c-20.667 0 -42.667 2.66699 -66 8l7 61c15.333 -3.33301 30 -5 44 -5c32 0 57 7 75 21s25.667 37 23 69l69 -10v-14z" />
    <glyph glyph-name="onesuperior" unicode="&#xb9;" horiz-adv-x="262" 
d="M92 262v407l78 25v-432h-78z" />
    <glyph glyph-name="ordmasculine" unicode="&#xba;" horiz-adv-x="458" 
d="M341 503c0 12.667 -1.83203 26.167 -5.49902 40.5s-9.83398 27.666 -18.501 39.999s-20.167 22.5 -34.5 30.5s-32.166 12 -53.499 12c-22 0 -40.167 -4 -54.5 -12s-25.833 -18.167 -34.5 -30.5s-14.834 -25.833 -18.501 -40.5s-5.5 -28.334 -5.5 -41.001
c0 -13.333 1.83301 -27.666 5.5 -42.999s9.83398 -29.833 18.501 -43.5s20.167 -25 34.5 -34s32.5 -13.5 54.5 -13.5s40.167 4.5 54.5 13.5s25.666 20.333 33.999 34s14.333 28.334 18 44.001s5.5 30.167 5.5 43.5zM52.001 154v54h354v-54h-354zM421.001 504
c0 -25.333 -3.99902 -49.833 -11.999 -73.5s-20 -44.5 -36 -62.5s-36 -32.5 -60 -43.5s-52 -16.5 -84 -16.5s-60 5.5 -84 16.5s-44 25.5 -60 43.5s-28 38.833 -36 62.5s-12 48.167 -12 73.5s4.16699 49 12.5 71s20.5 41.167 36.5 57.5s36 29.166 60 38.499s51.667 14 83 14
c30.667 0 58 -4.66699 82 -14s44.167 -22.166 60.5 -38.499s28.666 -35.5 36.999 -57.5s12.5 -45.667 12.5 -71z" />
    <glyph glyph-name="guillemotright" unicode="&#xbb;" horiz-adv-x="468" 
d="M129 58l-60 30l78 162l-78 162l60 30l102 -192zM297 58l-60 30l78 162l-78 162l60 30l103 -192z" />
    <glyph glyph-name="onequarter" unicode="&#xbc;" horiz-adv-x="772" 
d="M93 262v407l77 25v-432h-77zM178 -22l-50 31l387 701l49 -31zM620 0v98h-198v68l169 256h80l-167 -256h116v95h74v-261h-74z" />
    <glyph glyph-name="onehalf" unicode="&#xbd;" horiz-adv-x="794" 
d="M88 262v407l77 25v-432h-77zM174 -22l-50 31l386 701l50 -31zM461 0l0.00390625 22.0029l56 50c22 20 43 41.5 63 64.5s37 46.667 51 71s21 47.166 21 68.499c0 16.667 -3.83301 30.5 -11.5 41.5s-17.5 19.667 -29.5 26s-25.333 10.666 -40 12.999s-29 3.5 -43 3.5
c-5.33301 0 -10.833 -0.166992 -16.5 -0.5s-11.167 -0.833008 -16.5 -1.5l-4 65c7.33301 0.666992 14.166 1.16699 20.499 1.5s12.833 0.5 19.5 0.5c21.333 0 43.666 -1.83301 66.999 -5.5s44.666 -10.5 63.999 -20.5s35.333 -23.667 48 -41s19 -39.333 19 -66
c0 -22.667 -4.5 -44.334 -13.5 -65.001s-20.333 -40.5 -34 -59.5s-28.834 -37 -45.501 -54l-47 -47.5h150v-66h-278z" />
    <glyph glyph-name="threequarters" unicode="&#xbe;" horiz-adv-x="844" 
d="M303 403c0 -27.333 -7.49902 -50.001 -22.499 -68.001s-33.5 -32.5 -55.5 -43.5s-45.667 -18.667 -71 -23s-48.333 -6.5 -69 -6.5h-18.5c-5.66699 0 -11.5 0.333008 -17.5 1l4 65c6 -0.666992 12.167 -1 18.5 -1h19.5c16 0 32 1.5 48 4.5s30.333 7.5 43 13.5
s22.834 13.5 30.501 22.5s11.5 19.833 11.5 32.5c0 14 -3.66699 25.333 -11 34s-16.833 15.5 -28.5 20.5s-24.167 8.5 -37.5 10.5s-26 3 -38 3h-28v61h29c11.333 0 22.666 1 33.999 3s21.5 5 30.5 9s16.333 9.33301 22 16s8.5 14.667 8.5 24c0 8.66699 -3.5 16 -10.5 22
s-15.833 10.833 -26.5 14.5s-22.5 6.33398 -35.5 8.00098s-25.167 2.5 -36.5 2.5c-5.33301 0 -11.333 -0.333008 -18 -1s-12.667 -1.66699 -18 -3l-4 64c5.33301 0.666992 11.166 1.33398 17.499 2.00098s12.5 1 18.5 1c16.667 0 36.167 -1.33301 58.5 -4
s43.166 -7.83398 62.499 -15.501s35.833 -18.667 49.5 -33s20.5 -33.5 20.5 -57.5c0 -19.333 -7.16699 -35.666 -21.5 -48.999s-30.166 -22.666 -47.499 -27.999v-1c11.333 -2.66699 22.333 -6.83398 33 -12.501s20.167 -12.834 28.5 -21.501s15 -18.667 20 -30
s7.5 -23.333 7.5 -36zM249.001 -22.001l-50 31l387 701l50 -31zM692.001 -0.000976562v98h-197v68l168 256h81l-167 -256h115v95h75v-261h-75z" />
    <glyph glyph-name="questiondown" unicode="&#xbf;" horiz-adv-x="427" 
d="M376 -213c-9.33301 -1.33301 -18.5 -2.33398 -27.5 -3.00098s-18.167 -1 -27.5 -1c-34 0 -66.333 3.16699 -97 9.5s-57.834 16 -81.501 29s-42.5 29.333 -56.5 49s-21 43.167 -21 70.5c0 24.667 5.16699 47 15.5 67s23.333 38.333 39 55s32.667 31.834 51 45.501
l51.5 38.5l8 138h60l6 -156l-44.5 -32.5c-16.333 -11.667 -31.666 -24.334 -45.999 -38.001s-26.333 -28.167 -36 -43.5s-14.5 -31 -14.5 -47c0 -18.667 5.16699 -34.667 15.5 -48s23.5 -24.166 39.5 -32.499s33.833 -14.5 53.5 -18.5s38.5 -6 56.5 -6
c9.33301 0 17.833 0.5 25.5 1.5l25.5 3.5zM313 405.999c0 -15.333 -5.16699 -28.332 -15.5 -38.999s-22.5 -16 -36.5 -16c-15.333 0 -28 5.33301 -38 16s-15 23.667 -15 39s5 28.666 15 39.999s22.667 17 38 17c14.667 0 27 -5.5 37 -16.5s15 -24.5 15 -40.5z" />
    <glyph glyph-name="Agrave" unicode="&#xc0;" horiz-adv-x="677" 
d="M337 570l-129 -333h259zM554 0l-60 156h-314l-60 -156h-108l280 683h96l277 -683h-111zM314 703l-109 176l74 26l91 -180z" />
    <glyph glyph-name="Aacute" unicode="&#xc1;" horiz-adv-x="677" 
d="M337 570l-129 -333h259zM554 0l-60 156h-314l-60 -156h-108l280 683h96l277 -683h-111zM367 702l-57 22l91 180l74 -26z" />
    <glyph glyph-name="Acircumflex" unicode="&#xc2;" horiz-adv-x="677" 
d="M337 570l-129 -333h259zM554 0l-60 156h-314l-60 -156h-108l280 683h96l277 -683h-111zM432 697l-89 130l-91 -130l-56 22l115 185h63l114 -185z" />
    <glyph glyph-name="Atilde" unicode="&#xc3;" horiz-adv-x="677" 
d="M337 570l-129 -333h259zM554 0l-60 156h-314l-60 -156h-108l280 683h96l277 -683h-111zM512 845c-2 -15.333 -5.16699 -29.999 -9.5 -43.999s-10.5 -26.333 -18.5 -37s-18 -19.167 -30 -25.5s-26.333 -9.5 -43 -9.5c-23.333 0 -47 3.16699 -71 9.5s-47 9.5 -69 9.5
c-17.333 0 -30 -5.16699 -38 -15.5s-12.667 -23.5 -14 -39.5l-54 13c2 16 5.16699 31 9.5 45s10.5 26.167 18.5 36.5s17.833 18.666 29.5 24.999s26.167 9.5 43.5 9.5c23.333 0 47 -3.16699 71 -9.5s47 -9.5 69 -9.5c17.333 0 30 5.33301 38 16s12.667 23.667 14 39z" />
    <glyph glyph-name="Adieresis" unicode="&#xc4;" horiz-adv-x="677" 
d="M337 570l-129 -333h259zM554 0l-60 156h-314l-60 -156h-108l280 683h96l277 -683h-111zM317 784c0 -19.333 -5.33203 -34.333 -15.999 -45s-23.334 -16 -38.001 -16s-27.167 5.33301 -37.5 16s-15.5 25.667 -15.5 45c0 20.667 5.16699 36 15.5 46s22.833 15 37.5 15
c14 0 26.5 -5 37.5 -15s16.5 -25.333 16.5 -46zM478.001 784c0 -19.333 -5.16602 -34.333 -15.499 -45s-22.833 -16 -37.5 -16s-27.334 5.33301 -38.001 16s-16 25.667 -16 45c0 20.667 5.5 36 16.5 46s23.5 15 37.5 15c14.667 0 27.167 -5 37.5 -15s15.5 -25.333 15.5 -46z
" />
    <glyph glyph-name="Aring" unicode="&#xc5;" horiz-adv-x="677" 
d="M337 570l-129 -333h259zM554 0l-60 156h-314l-60 -156h-108l280 683h96l277 -683h-111zM404 798c0 18 -5.83301 33 -17.5 45s-26.167 18 -43.5 18s-31.833 -6 -43.5 -18s-17.5 -27 -17.5 -45c0 -17.333 5.66699 -32 17 -44s26 -18 44 -18s32.667 6 44 18s17 26.667 17 44
zM454 799c0 -16 -3.00195 -30.167 -9.00195 -42.5s-14.167 -22.833 -24.5 -31.5s-22.166 -15.167 -35.499 -19.5s-27.333 -6.5 -42 -6.5s-28.667 2.16699 -42 6.5s-25.166 10.833 -35.499 19.5s-18.5 19.167 -24.5 31.5s-9 26.5 -9 42.5s3 30.167 9 42.5s14 22.833 24 31.5
s21.667 15.167 35 19.5s27.333 6.5 42 6.5c30 0 56.167 -8.66699 78.5 -26s33.5 -42 33.5 -74z" />
    <glyph glyph-name="AE" unicode="&#xc6;" horiz-adv-x="1000" 
d="M451 590l-197 -354h197v354zM451 0v156h-235l-86 -156h-115l389 674h529v-88h-381v-169h381v-85h-381v-244h381v-88h-482z" />
    <glyph glyph-name="Ccedilla" unicode="&#xc7;" horiz-adv-x="623" 
d="M570 8c-22.667 -6.66699 -46.9971 -11.502 -72.9971 -14.502s-53 -4.5 -81 -4.5c-53.333 0 -103 7.83301 -149 23.5s-85.667 38.667 -119 69s-59.5 67.333 -78.5 111s-28.5 93.5 -28.5 149.5c0 55.333 9.33301 104.333 28 147s44.5 78.5 77.5 107.5s72 51 117 66
s94.167 22.5 147.5 22.5c28 0 56.167 -1.83301 84.5 -5.5s56.166 -9.16699 83.499 -16.5l-11 -89c-24 6.66699 -48.333 11.834 -73 15.501s-50 5.5 -76 5.5c-40 0 -76.667 -5.5 -110 -16.5s-62 -27.167 -86 -48.5s-42.833 -47.666 -56.5 -78.999s-20.5 -67.333 -20.5 -108
c0 -42 7.33301 -79.5 22 -112.5s35 -60.667 61 -83s56.5 -39.5 91.5 -51.5s73.167 -18 114.5 -18c21.333 0 43.166 1.33301 65.499 4s44.166 7 65.499 13zM428.003 -49.002c0 -22.667 -4.00098 -42.167 -12.001 -58.5s-18.833 -29.833 -32.5 -40.5s-29.667 -18.5 -48 -23.5
s-38.166 -7.5 -59.499 -7.5c-20.667 0 -42.667 2.66699 -66 8l7 61c15.333 -3.33301 30 -5 44 -5c32 0 57 7 75 21s25.667 37 23 69l69 -10v-14z" />
    <glyph glyph-name="Egrave" unicode="&#xc8;" horiz-adv-x="631" 
d="M83 0v674h481v-88h-381v-169h381v-85h-381v-244h381v-88h-481zM320 702l-109 176l74 26l91 -180z" />
    <glyph glyph-name="Eacute" unicode="&#xc9;" horiz-adv-x="631" 
d="M83 0v674h481v-88h-381v-169h381v-85h-381v-244h381v-88h-481zM337 703l-57 22l91 180l74 -26z" />
    <glyph glyph-name="Ecircumflex" unicode="&#xca;" horiz-adv-x="631" 
d="M83 0v674h481v-88h-381v-169h381v-85h-381v-244h381v-88h-481zM417 697l-89 130l-91 -130l-56 22l115 185h63l114 -185z" />
    <glyph glyph-name="Edieresis" unicode="&#xcb;" horiz-adv-x="631" 
d="M83 0v674h481v-88h-381v-169h381v-85h-381v-244h381v-88h-481zM296 784c0 -19.333 -5.33203 -34.333 -15.999 -45s-23.334 -16 -38.001 -16s-27.167 5.33301 -37.5 16s-15.5 25.667 -15.5 45c0 20.667 5.16699 36 15.5 46s22.833 15 37.5 15c14 0 26.5 -5 37.5 -15
s16.5 -25.333 16.5 -46zM457.001 784c0 -19.333 -5.16602 -34.333 -15.499 -45s-22.833 -16 -37.5 -16s-27.334 5.33301 -38.001 16s-16 25.667 -16 45c0 20.667 5.5 36 16.5 46s23.5 15 37.5 15c14.667 0 27.167 -5 37.5 -15s15.5 -25.333 15.5 -46z" />
    <glyph glyph-name="Igrave" unicode="&#xcc;" horiz-adv-x="266" 
d="M83 0v674h100v-674h-100zM106 703l-109 176l74 26l91 -180z" />
    <glyph glyph-name="Iacute" unicode="&#xcd;" horiz-adv-x="266" 
d="M83 0v674h100v-674h-100zM157 703l-57 22l91 180l74 -26z" />
    <glyph glyph-name="Icircumflex" unicode="&#xce;" horiz-adv-x="266" 
d="M83 0v674h100v-674h-100zM224 697l-89 130l-91 -130l-56 22l115 185h63l114 -185z" />
    <glyph glyph-name="Idieresis" unicode="&#xcf;" horiz-adv-x="266" 
d="M83 0v674h100v-674h-100zM108 785c0 -19.333 -5.33203 -34.333 -15.999 -45s-23.334 -16 -38.001 -16s-27.167 5.33301 -37.5 16s-15.5 25.667 -15.5 45c0 20.667 5.16699 36 15.5 46s22.833 15 37.5 15c14 0 26.5 -5 37.5 -15s16.5 -25.333 16.5 -46zM269.001 785
c0 -19.333 -5.16602 -34.333 -15.499 -45s-22.833 -16 -37.5 -16s-27.334 5.33301 -38.001 16s-16 25.667 -16 45c0 20.667 5.5 36 16.5 46s23.5 15 37.5 15c14.667 0 27.167 -5 37.5 -15s15.5 -25.333 15.5 -46z" />
    <glyph glyph-name="Eth" unicode="&#xd0;" horiz-adv-x="737" 
d="M592 344c0 31.333 -5 61.834 -15 91.501s-24.667 56 -44 79s-43.166 41.333 -71.499 55s-60.833 20.5 -97.5 20.5h-180v-212h189v-77h-189v-217h180c36.667 0 69.167 7.5 97.5 22.5s52.166 34.667 71.499 59s34 52.166 44 83.499s15 63 15 95zM697 345.001
c0 -45.333 -7.33105 -88.667 -21.998 -130s-35.834 -78 -63.501 -110s-61.5 -57.5 -101.5 -76.5s-85.333 -28.5 -136 -28.5h-290v301h-84v77h84v296h290c52.667 0 99.167 -9 139.5 -27s74.166 -42 101.499 -72s47.833 -64.833 61.5 -104.5s20.5 -81.5 20.5 -125.5z" />
    <glyph glyph-name="Ntilde" unicode="&#xd1;" horiz-adv-x="736" 
d="M630 -9l-449 467v-458h-98v683h23l448 -467v458h99v-683h-23zM550 844c-2 -15.333 -5.16699 -29.999 -9.5 -43.999s-10.5 -26.333 -18.5 -37s-18 -19.167 -30 -25.5s-26.333 -9.5 -43 -9.5c-23.333 0 -47 3.16699 -71 9.5s-47 9.5 -69 9.5
c-17.333 0 -30 -5.16699 -38 -15.5s-12.667 -23.5 -14 -39.5l-54 13c2 16 5.16699 31 9.5 45s10.5 26.167 18.5 36.5s17.833 18.666 29.5 24.999s26.167 9.5 43.5 9.5c23.333 0 47 -3.16699 71 -9.5s47 -9.5 69 -9.5c17.333 0 30 5.33301 38 16s12.667 23.667 14 39z" />
    <glyph glyph-name="Ograve" unicode="&#xd2;" horiz-adv-x="756" 
d="M610 337c0 32.667 -4.5 64.834 -13.5 96.501s-23 60 -42 85s-43.167 45.167 -72.5 60.5s-64.333 23 -105 23c-40 0 -74.667 -7.66699 -104 -23s-53.333 -35.5 -72 -60.5s-32.5 -53.333 -41.5 -85s-13.5 -63.834 -13.5 -96.501c0 -32 4.5 -64 13.5 -96s23 -60.5 42 -85.5
s43.167 -45.333 72.5 -61s64 -23.5 104 -23.5s74.667 7.83301 104 23.5s53.5 36 72.5 61s33 53.5 42 85.5s13.5 64 13.5 96zM715 337c0 -46 -7.49902 -90.167 -22.499 -132.5s-36.833 -79.666 -65.5 -111.999s-64 -58.166 -106 -77.499s-89.667 -29 -143 -29
c-54 0 -101.833 9.5 -143.5 28.5s-76.834 44.667 -105.501 77s-50.5 69.666 -65.5 111.999s-22.5 86.833 -22.5 133.5s7.5 91.167 22.5 133.5s36.667 79.5 65 111.5s63.333 57.5 105 76.5s89.5 28.5 143.5 28.5s101.833 -9.33301 143.5 -28s77 -43.834 106 -75.501
s51 -68.667 66 -111s22.5 -87.5 22.5 -135.5zM347.001 702l-109 176l74 26l91 -180z" />
    <glyph glyph-name="Oacute" unicode="&#xd3;" horiz-adv-x="756" 
d="M610 337c0 32.667 -4.5 64.834 -13.5 96.501s-23 60 -42 85s-43.167 45.167 -72.5 60.5s-64.333 23 -105 23c-40 0 -74.667 -7.66699 -104 -23s-53.333 -35.5 -72 -60.5s-32.5 -53.333 -41.5 -85s-13.5 -63.834 -13.5 -96.501c0 -32 4.5 -64 13.5 -96s23 -60.5 42 -85.5
s43.167 -45.333 72.5 -61s64 -23.5 104 -23.5s74.667 7.83301 104 23.5s53.5 36 72.5 61s33 53.5 42 85.5s13.5 64 13.5 96zM715 337c0 -46 -7.49902 -90.167 -22.499 -132.5s-36.833 -79.666 -65.5 -111.999s-64 -58.166 -106 -77.499s-89.667 -29 -143 -29
c-54 0 -101.833 9.5 -143.5 28.5s-76.834 44.667 -105.501 77s-50.5 69.666 -65.5 111.999s-22.5 86.833 -22.5 133.5s7.5 91.167 22.5 133.5s36.667 79.5 65 111.5s63.333 57.5 105 76.5s89.5 28.5 143.5 28.5s101.833 -9.33301 143.5 -28s77 -43.834 106 -75.501
s51 -68.667 66 -111s22.5 -87.5 22.5 -135.5zM393.001 702l-57 22l91 180l74 -26z" />
    <glyph glyph-name="Ocircumflex" unicode="&#xd4;" horiz-adv-x="756" 
d="M610 337c0 32.667 -4.5 64.834 -13.5 96.501s-23 60 -42 85s-43.167 45.167 -72.5 60.5s-64.333 23 -105 23c-40 0 -74.667 -7.66699 -104 -23s-53.333 -35.5 -72 -60.5s-32.5 -53.333 -41.5 -85s-13.5 -63.834 -13.5 -96.501c0 -32 4.5 -64 13.5 -96s23 -60.5 42 -85.5
s43.167 -45.333 72.5 -61s64 -23.5 104 -23.5s74.667 7.83301 104 23.5s53.5 36 72.5 61s33 53.5 42 85.5s13.5 64 13.5 96zM715 337c0 -46 -7.49902 -90.167 -22.499 -132.5s-36.833 -79.666 -65.5 -111.999s-64 -58.166 -106 -77.499s-89.667 -29 -143 -29
c-54 0 -101.833 9.5 -143.5 28.5s-76.834 44.667 -105.501 77s-50.5 69.666 -65.5 111.999s-22.5 86.833 -22.5 133.5s7.5 91.167 22.5 133.5s36.667 79.5 65 111.5s63.333 57.5 105 76.5s89.5 28.5 143.5 28.5s101.833 -9.33301 143.5 -28s77 -43.834 106 -75.501
s51 -68.667 66 -111s22.5 -87.5 22.5 -135.5zM464.001 697l-89 130l-91 -130l-56 22l115 185h63l114 -185z" />
    <glyph glyph-name="Otilde" unicode="&#xd5;" horiz-adv-x="756" 
d="M610 337c0 32.667 -4.5 64.834 -13.5 96.501s-23 60 -42 85s-43.167 45.167 -72.5 60.5s-64.333 23 -105 23c-40 0 -74.667 -7.66699 -104 -23s-53.333 -35.5 -72 -60.5s-32.5 -53.333 -41.5 -85s-13.5 -63.834 -13.5 -96.501c0 -32 4.5 -64 13.5 -96s23 -60.5 42 -85.5
s43.167 -45.333 72.5 -61s64 -23.5 104 -23.5s74.667 7.83301 104 23.5s53.5 36 72.5 61s33 53.5 42 85.5s13.5 64 13.5 96zM715 337c0 -46 -7.49902 -90.167 -22.499 -132.5s-36.833 -79.666 -65.5 -111.999s-64 -58.166 -106 -77.499s-89.667 -29 -143 -29
c-54 0 -101.833 9.5 -143.5 28.5s-76.834 44.667 -105.501 77s-50.5 69.666 -65.5 111.999s-22.5 86.833 -22.5 133.5s7.5 91.167 22.5 133.5s36.667 79.5 65 111.5s63.333 57.5 105 76.5s89.5 28.5 143.5 28.5s101.833 -9.33301 143.5 -28s77 -43.834 106 -75.501
s51 -68.667 66 -111s22.5 -87.5 22.5 -135.5zM550.001 845c-2 -15.333 -5.16699 -29.999 -9.5 -43.999s-10.5 -26.333 -18.5 -37s-18 -19.167 -30 -25.5s-26.333 -9.5 -43 -9.5c-23.333 0 -47 3.16699 -71 9.5s-47 9.5 -69 9.5c-17.333 0 -30 -5.16699 -38 -15.5
s-12.667 -23.5 -14 -39.5l-54 13c2 16 5.16699 31 9.5 45s10.5 26.167 18.5 36.5s17.833 18.666 29.5 24.999s26.167 9.5 43.5 9.5c23.333 0 47 -3.16699 71 -9.5s47 -9.5 69 -9.5c17.333 0 30 5.33301 38 16s12.667 23.667 14 39z" />
    <glyph glyph-name="Odieresis" unicode="&#xd6;" horiz-adv-x="756" 
d="M610 337c0 32.667 -4.5 64.834 -13.5 96.501s-23 60 -42 85s-43.167 45.167 -72.5 60.5s-64.333 23 -105 23c-40 0 -74.667 -7.66699 -104 -23s-53.333 -35.5 -72 -60.5s-32.5 -53.333 -41.5 -85s-13.5 -63.834 -13.5 -96.501c0 -32 4.5 -64 13.5 -96s23 -60.5 42 -85.5
s43.167 -45.333 72.5 -61s64 -23.5 104 -23.5s74.667 7.83301 104 23.5s53.5 36 72.5 61s33 53.5 42 85.5s13.5 64 13.5 96zM715 337c0 -46 -7.49902 -90.167 -22.499 -132.5s-36.833 -79.666 -65.5 -111.999s-64 -58.166 -106 -77.499s-89.667 -29 -143 -29
c-54 0 -101.833 9.5 -143.5 28.5s-76.834 44.667 -105.501 77s-50.5 69.666 -65.5 111.999s-22.5 86.833 -22.5 133.5s7.5 91.167 22.5 133.5s36.667 79.5 65 111.5s63.333 57.5 105 76.5s89.5 28.5 143.5 28.5s101.833 -9.33301 143.5 -28s77 -43.834 106 -75.501
s51 -68.667 66 -111s22.5 -87.5 22.5 -135.5zM355.001 785c0 -19.333 -5.33203 -34.333 -15.999 -45s-23.334 -16 -38.001 -16s-27.167 5.33301 -37.5 16s-15.5 25.667 -15.5 45c0 20.667 5.16699 36 15.5 46s22.833 15 37.5 15c14 0 26.5 -5 37.5 -15
s16.5 -25.333 16.5 -46zM516.002 785c0 -19.333 -5.16602 -34.333 -15.499 -45s-22.833 -16 -37.5 -16s-27.334 5.33301 -38.001 16s-16 25.667 -16 45c0 20.667 5.5 36 16.5 46s23.5 15 37.5 15c14.667 0 27.167 -5 37.5 -15s15.5 -25.333 15.5 -46z" />
    <glyph glyph-name="multiply" unicode="&#xd7;" horiz-adv-x="513" 
d="M423 48l-166 166l-167 -166l-44 55l166 166l-166 166l44 55l167 -164l166 164l44 -55l-166 -166l166 -166z" />
    <glyph glyph-name="Oslash" unicode="&#xd8;" horiz-adv-x="756" 
d="M490 570c-15.333 9.33301 -32.499 16.665 -51.499 21.998s-39.833 8 -62.5 8c-40 0 -74.167 -7.66699 -102.5 -23s-51.833 -35.333 -70.5 -60s-32.334 -52.667 -41.001 -84s-13 -63.333 -13 -96c0 -37.333 6 -74.166 18 -110.499s30.667 -67.166 56 -92.499z
M603.001 336.999c0 38 -6.16797 74.999 -18.501 110.999s-31.166 66.667 -56.499 92l-267 -437c15.333 -9.33301 32.5 -16.666 51.5 -21.999s40.167 -8 63.5 -8c39.333 0 73.333 7.66699 102 23s52.167 35.5 70.5 60.5s32 53.333 41 85s13.5 63.5 13.5 95.5zM708 336.998
c0 -46 -7.33398 -90.168 -22.001 -132.501s-36.167 -79.5 -64.5 -111.5s-63.166 -57.5 -104.499 -76.5s-88.333 -28.5 -141 -28.5c-30.667 0 -59.167 3.33301 -85.5 10s-50.833 16 -73.5 28l-64 -105l-39 28l61 102c-42.667 32 -75.167 73.167 -97.5 123.5
s-33.5 104.5 -33.5 162.5c0 46.667 7.33301 91.167 22 133.5s36.167 79.333 64.5 111s63 56.834 104 75.501s88.167 28 141.5 28c30.667 0 59.167 -3.33301 85.5 -10s50.833 -15.667 73.5 -27l65 106l39 -27l-62 -103c42.667 -32 75.167 -73 97.5 -123
s33.5 -104.667 33.5 -164z" />
    <glyph glyph-name="Ugrave" unicode="&#xd9;" horiz-adv-x="725" 
d="M648 225c0 -38 -7.16602 -71.665 -21.499 -100.998s-34.333 -54 -60 -74s-56 -35.333 -91 -46s-72.833 -16 -113.5 -16c-39.333 0 -76.333 5.33301 -111 16s-64.834 26.167 -90.501 46.5s-46 45.166 -61 74.499s-22.5 62.666 -22.5 99.999v449h100v-439
c0 -24 4.5 -45.667 13.5 -65s21.667 -36 38 -50s35.833 -24.833 58.5 -32.5s47.667 -11.5 75 -11.5c56.667 0 101.667 14.167 135 42.5s50 66.833 50 115.5v440h101v-449zM354.001 702.002l-109 176l74 26l91 -180z" />
    <glyph glyph-name="Uacute" unicode="&#xda;" horiz-adv-x="725" 
d="M648 225c0 -38 -7.16602 -71.665 -21.499 -100.998s-34.333 -54 -60 -74s-56 -35.333 -91 -46s-72.833 -16 -113.5 -16c-39.333 0 -76.333 5.33301 -111 16s-64.834 26.167 -90.501 46.5s-46 45.166 -61 74.499s-22.5 62.666 -22.5 99.999v449h100v-439
c0 -24 4.5 -45.667 13.5 -65s21.667 -36 38 -50s35.833 -24.833 58.5 -32.5s47.667 -11.5 75 -11.5c56.667 0 101.667 14.167 135 42.5s50 66.833 50 115.5v440h101v-449zM369.001 702.002l-57 22l91 180l74 -26z" />
    <glyph glyph-name="Ucircumflex" unicode="&#xdb;" horiz-adv-x="725" 
d="M648 225c0 -38 -7.16602 -71.665 -21.499 -100.998s-34.333 -54 -60 -74s-56 -35.333 -91 -46s-72.833 -16 -113.5 -16c-39.333 0 -76.333 5.33301 -111 16s-64.834 26.167 -90.501 46.5s-46 45.166 -61 74.499s-22.5 62.666 -22.5 99.999v449h100v-439
c0 -24 4.5 -45.667 13.5 -65s21.667 -36 38 -50s35.833 -24.833 58.5 -32.5s47.667 -11.5 75 -11.5c56.667 0 101.667 14.167 135 42.5s50 66.833 50 115.5v440h101v-449zM450.001 697.002l-89 130l-91 -130l-56 22l115 185h63l114 -185z" />
    <glyph glyph-name="Udieresis" unicode="&#xdc;" horiz-adv-x="725" 
d="M648 225c0 -38 -7.16602 -71.665 -21.499 -100.998s-34.333 -54 -60 -74s-56 -35.333 -91 -46s-72.833 -16 -113.5 -16c-39.333 0 -76.333 5.33301 -111 16s-64.834 26.167 -90.501 46.5s-46 45.166 -61 74.499s-22.5 62.666 -22.5 99.999v449h100v-439
c0 -24 4.5 -45.667 13.5 -65s21.667 -36 38 -50s35.833 -24.833 58.5 -32.5s47.667 -11.5 75 -11.5c56.667 0 101.667 14.167 135 42.5s50 66.833 50 115.5v440h101v-449zM341.001 784.002c0 -19.333 -5.33203 -34.333 -15.999 -45s-23.334 -16 -38.001 -16
s-27.167 5.33301 -37.5 16s-15.5 25.667 -15.5 45c0 20.667 5.16699 36 15.5 46s22.833 15 37.5 15c14 0 26.5 -5 37.5 -15s16.5 -25.333 16.5 -46zM502.002 784.002c0 -19.333 -5.16602 -34.333 -15.499 -45s-22.833 -16 -37.5 -16s-27.334 5.33301 -38.001 16
s-16 25.667 -16 45c0 20.667 5.5 36 16.5 46s23.5 15 37.5 15c14.667 0 27.167 -5 37.5 -15s15.5 -25.333 15.5 -46z" />
    <glyph glyph-name="Yacute" unicode="&#xdd;" horiz-adv-x="633" 
d="M207 0h-119l168 259l-246 415h121l186 -317l197 317h117zM352 702l-57 22l91 180l74 -26z" />
    <glyph glyph-name="Thorn" unicode="&#xde;" horiz-adv-x="678" 
d="M534 379c0 42 -13.5 74.167 -40.5 96.5s-61.5 33.5 -103.5 33.5h-207v-270h211c42.667 0 76.667 13 102 39s38 59.667 38 101zM635 381c0 -31.333 -5.16992 -60.668 -15.5029 -88.001s-25.166 -51.166 -44.499 -71.499s-42.833 -36.333 -70.5 -48
s-58.834 -17.5 -93.501 -17.5h-228v-156h-100v674h100v-82h226c34.667 0 65.834 -5 93.501 -15s51.334 -24.167 71.001 -42.5s34.834 -40.5 45.501 -66.5s16 -55 16 -87z" />
    <glyph glyph-name="germandbls" unicode="&#xdf;" horiz-adv-x="594" 
d="M560 130c0 -28.667 -7.34375 -52.166 -22.0107 -70.499s-33.167 -32.666 -55.5 -42.999s-46.666 -17.5 -72.999 -21.5s-51.166 -6 -74.499 -6s-45.666 1.16699 -66.999 3.5s-42.666 5.16602 -63.999 8.49902l7 75c21.333 -5.33301 43 -9.33301 65 -12s43.667 -4 65 -4
c16.667 0 32.667 0.833008 48 2.5s29 4.83398 41 9.50098s21.5 10.834 28.5 18.501s10.5 17.5 10.5 29.5c0 10 -2.66699 18.667 -8 26s-13.166 14 -23.499 20s-23 11.833 -38 17.5l-52.5 19.5c-17.333 6 -34.666 12.667 -51.999 20s-32.833 16 -46.5 26
s-24.667 21.833 -33 35.5s-12.5 29.834 -12.5 48.501c0 20 4.83301 37.167 14.5 51.5s21.834 26.666 36.501 36.999s30.334 19.666 47.001 27.999s32.334 16.833 47.001 25.5s26.834 18.167 36.501 28.5s14.5 22.833 14.5 37.5c0 12.667 -3 23.5 -9 32.5
s-13.833 16.333 -23.5 22s-20.667 9.83398 -33 12.501s-24.833 4 -37.5 4c-40.667 0 -72.5 -11.833 -95.5 -35.5s-34.5 -55.5 -34.5 -95.5v-481h-91v482c0 34 5.83301 63.667 17.5 89s27.667 46.5 48 63.5s44 29.667 71 38s55.833 12.5 86.5 12.5c27.333 0 52.5 -3 75.5 -9
s43 -15 60 -27s30.333 -26.5 40 -43.5s14.5 -36.5 14.5 -58.5c0 -22.667 -4.83301 -41.5 -14.5 -56.5s-21.5 -28 -35.5 -39s-29.5 -20.5 -46.5 -28.5s-32.5 -15.833 -46.5 -23.5s-25.833 -16.167 -35.5 -25.5s-14.5 -20.333 -14.5 -33c0 -9.33301 2.5 -17.333 7.5 -24
s12.167 -12.667 21.5 -18s20.5 -10.333 33.5 -15l43.5 -15c18.667 -6 37.334 -12.833 56.001 -20.5s35.667 -16.834 51 -27.501s27.833 -23.334 37.5 -38.001s14.5 -32.334 14.5 -53.001z" />
    <glyph glyph-name="agrave" unicode="&#xe0;" horiz-adv-x="499" 
d="M345 179c-35.333 14.667 -72.3311 22.001 -110.998 22.001c-12 0 -24.5 -1 -37.5 -3s-24.833 -5.5 -35.5 -10.5s-19.334 -12.333 -26.001 -22s-10 -21.834 -10 -36.501c0 -12.667 3.16699 -23.334 9.5 -32.001s14.166 -15.667 23.499 -21s19.833 -9.16602 31.5 -11.499
s22.5 -3.5 32.5 -3.5c24.667 0 48 5.16699 70 15.5s39.667 25.5 53 45.5v57zM350.002 0.000976562l0.000976562 55.001c-19.333 -22.667 -42.333 -39.5 -69 -50.5s-55 -16.5 -85 -16.5c-20 0 -39.667 2.83301 -59 8.5s-36.5 14.167 -51.5 25.5s-27 25.5 -36 42.5
s-13.5 37.167 -13.5 60.5c0 26 5 48 15 66s23.167 32.5 39.5 43.5s35.333 19 57 24s44.167 7.5 67.5 7.5c25.333 0 48.833 -1.83301 70.5 -5.5s41.5 -9.16699 59.5 -16.5v50c0 32 -10.833 56.167 -32.5 72.5s-48.167 24.5 -79.5 24.5c-20.667 0 -39.5 -3 -56.5 -9
s-34.5 -15.667 -52.5 -29l-29 65c24 16.667 48.667 28.667 74 36s52.333 11 81 11c22.667 0 45.167 -3 67.5 -9s42.166 -15.5 59.499 -28.5s31.333 -29.833 42 -50.5s16 -45.334 16 -74.001v-303h-85zM241.003 482.002l-109 176l74 26l91 -180z" />
    <glyph glyph-name="aacute" unicode="&#xe1;" horiz-adv-x="499" 
d="M345 179c-35.333 14.667 -72.3311 22.001 -110.998 22.001c-12 0 -24.5 -1 -37.5 -3s-24.833 -5.5 -35.5 -10.5s-19.334 -12.333 -26.001 -22s-10 -21.834 -10 -36.501c0 -12.667 3.16699 -23.334 9.5 -32.001s14.166 -15.667 23.499 -21s19.833 -9.16602 31.5 -11.499
s22.5 -3.5 32.5 -3.5c24.667 0 48 5.16699 70 15.5s39.667 25.5 53 45.5v57zM350.002 0.000976562l0.000976562 55.001c-19.333 -22.667 -42.333 -39.5 -69 -50.5s-55 -16.5 -85 -16.5c-20 0 -39.667 2.83301 -59 8.5s-36.5 14.167 -51.5 25.5s-27 25.5 -36 42.5
s-13.5 37.167 -13.5 60.5c0 26 5 48 15 66s23.167 32.5 39.5 43.5s35.333 19 57 24s44.167 7.5 67.5 7.5c25.333 0 48.833 -1.83301 70.5 -5.5s41.5 -9.16699 59.5 -16.5v50c0 32 -10.833 56.167 -32.5 72.5s-48.167 24.5 -79.5 24.5c-20.667 0 -39.5 -3 -56.5 -9
s-34.5 -15.667 -52.5 -29l-29 65c24 16.667 48.667 28.667 74 36s52.333 11 81 11c22.667 0 45.167 -3 67.5 -9s42.166 -15.5 59.499 -28.5s31.333 -29.833 42 -50.5s16 -45.334 16 -74.001v-303h-85zM261.003 482.002l-57 22l91 180l74 -26z" />
    <glyph glyph-name="acircumflex" unicode="&#xe2;" horiz-adv-x="499" 
d="M345 179c-35.333 14.667 -72.3311 22.001 -110.998 22.001c-12 0 -24.5 -1 -37.5 -3s-24.833 -5.5 -35.5 -10.5s-19.334 -12.333 -26.001 -22s-10 -21.834 -10 -36.501c0 -12.667 3.16699 -23.334 9.5 -32.001s14.166 -15.667 23.499 -21s19.833 -9.16602 31.5 -11.499
s22.5 -3.5 32.5 -3.5c24.667 0 48 5.16699 70 15.5s39.667 25.5 53 45.5v57zM350.002 0.000976562l0.000976562 55.001c-19.333 -22.667 -42.333 -39.5 -69 -50.5s-55 -16.5 -85 -16.5c-20 0 -39.667 2.83301 -59 8.5s-36.5 14.167 -51.5 25.5s-27 25.5 -36 42.5
s-13.5 37.167 -13.5 60.5c0 26 5 48 15 66s23.167 32.5 39.5 43.5s35.333 19 57 24s44.167 7.5 67.5 7.5c25.333 0 48.833 -1.83301 70.5 -5.5s41.5 -9.16699 59.5 -16.5v50c0 32 -10.833 56.167 -32.5 72.5s-48.167 24.5 -79.5 24.5c-20.667 0 -39.5 -3 -56.5 -9
s-34.5 -15.667 -52.5 -29l-29 65c24 16.667 48.667 28.667 74 36s52.333 11 81 11c22.667 0 45.167 -3 67.5 -9s42.166 -15.5 59.499 -28.5s31.333 -29.833 42 -50.5s16 -45.334 16 -74.001v-303h-85zM340.003 482.002l-89 130l-91 -130l-56 22l115 185h63l114 -185z" />
    <glyph glyph-name="atilde" unicode="&#xe3;" horiz-adv-x="499" 
d="M345 179c-35.333 14.667 -72.3311 22.001 -110.998 22.001c-12 0 -24.5 -1 -37.5 -3s-24.833 -5.5 -35.5 -10.5s-19.334 -12.333 -26.001 -22s-10 -21.834 -10 -36.501c0 -12.667 3.16699 -23.334 9.5 -32.001s14.166 -15.667 23.499 -21s19.833 -9.16602 31.5 -11.499
s22.5 -3.5 32.5 -3.5c24.667 0 48 5.16699 70 15.5s39.667 25.5 53 45.5v57zM350.002 0.000976562l0.000976562 55.001c-19.333 -22.667 -42.333 -39.5 -69 -50.5s-55 -16.5 -85 -16.5c-20 0 -39.667 2.83301 -59 8.5s-36.5 14.167 -51.5 25.5s-27 25.5 -36 42.5
s-13.5 37.167 -13.5 60.5c0 26 5 48 15 66s23.167 32.5 39.5 43.5s35.333 19 57 24s44.167 7.5 67.5 7.5c25.333 0 48.833 -1.83301 70.5 -5.5s41.5 -9.16699 59.5 -16.5v50c0 32 -10.833 56.167 -32.5 72.5s-48.167 24.5 -79.5 24.5c-20.667 0 -39.5 -3 -56.5 -9
s-34.5 -15.667 -52.5 -29l-29 65c24 16.667 48.667 28.667 74 36s52.333 11 81 11c22.667 0 45.167 -3 67.5 -9s42.166 -15.5 59.499 -28.5s31.333 -29.833 42 -50.5s16 -45.334 16 -74.001v-303h-85zM431.003 675.002c-2 -15.333 -5.16699 -29.999 -9.5 -43.999
s-10.5 -26.333 -18.5 -37s-18 -19.167 -30 -25.5s-26.333 -9.5 -43 -9.5c-23.333 0 -47 3.16699 -71 9.5s-47 9.5 -69 9.5c-17.333 0 -30 -5.16699 -38 -15.5s-12.667 -23.5 -14 -39.5l-54 13c2 16 5.16699 31 9.5 45s10.5 26.167 18.5 36.5s17.833 18.666 29.5 24.999
s26.167 9.5 43.5 9.5c23.333 0 47 -3.16699 71 -9.5s47 -9.5 69 -9.5c17.333 0 30 5.33301 38 16s12.667 23.667 14 39z" />
    <glyph glyph-name="adieresis" unicode="&#xe4;" horiz-adv-x="499" 
d="M345 179c-35.333 14.667 -72.3311 22.001 -110.998 22.001c-12 0 -24.5 -1 -37.5 -3s-24.833 -5.5 -35.5 -10.5s-19.334 -12.333 -26.001 -22s-10 -21.834 -10 -36.501c0 -12.667 3.16699 -23.334 9.5 -32.001s14.166 -15.667 23.499 -21s19.833 -9.16602 31.5 -11.499
s22.5 -3.5 32.5 -3.5c24.667 0 48 5.16699 70 15.5s39.667 25.5 53 45.5v57zM350.002 0.000976562l0.000976562 55.001c-19.333 -22.667 -42.333 -39.5 -69 -50.5s-55 -16.5 -85 -16.5c-20 0 -39.667 2.83301 -59 8.5s-36.5 14.167 -51.5 25.5s-27 25.5 -36 42.5
s-13.5 37.167 -13.5 60.5c0 26 5 48 15 66s23.167 32.5 39.5 43.5s35.333 19 57 24s44.167 7.5 67.5 7.5c25.333 0 48.833 -1.83301 70.5 -5.5s41.5 -9.16699 59.5 -16.5v50c0 32 -10.833 56.167 -32.5 72.5s-48.167 24.5 -79.5 24.5c-20.667 0 -39.5 -3 -56.5 -9
s-34.5 -15.667 -52.5 -29l-29 65c24 16.667 48.667 28.667 74 36s52.333 11 81 11c22.667 0 45.167 -3 67.5 -9s42.166 -15.5 59.499 -28.5s31.333 -29.833 42 -50.5s16 -45.334 16 -74.001v-303h-85zM229.003 618.002c0 -19.333 -5.33203 -34.333 -15.999 -45
s-23.334 -16 -38.001 -16s-27.167 5.33301 -37.5 16s-15.5 25.667 -15.5 45c0 20.667 5.16699 36 15.5 46s22.833 15 37.5 15c14 0 26.5 -5 37.5 -15s16.5 -25.333 16.5 -46zM390.004 618.002c0 -19.333 -5.16602 -34.333 -15.499 -45s-22.833 -16 -37.5 -16
s-27.334 5.33301 -38.001 16s-16 25.667 -16 45c0 20.667 5.5 36 16.5 46s23.5 15 37.5 15c14.667 0 27.167 -5 37.5 -15s15.5 -25.333 15.5 -46z" />
    <glyph glyph-name="aring" unicode="&#xe5;" horiz-adv-x="499" 
d="M345 179c-35.333 14.667 -72.3311 22.001 -110.998 22.001c-12 0 -24.5 -1 -37.5 -3s-24.833 -5.5 -35.5 -10.5s-19.334 -12.333 -26.001 -22s-10 -21.834 -10 -36.501c0 -12.667 3.16699 -23.334 9.5 -32.001s14.166 -15.667 23.499 -21s19.833 -9.16602 31.5 -11.499
s22.5 -3.5 32.5 -3.5c24.667 0 48 5.16699 70 15.5s39.667 25.5 53 45.5v57zM350.002 0.000976562l0.000976562 55.001c-19.333 -22.667 -42.333 -39.5 -69 -50.5s-55 -16.5 -85 -16.5c-20 0 -39.667 2.83301 -59 8.5s-36.5 14.167 -51.5 25.5s-27 25.5 -36 42.5
s-13.5 37.167 -13.5 60.5c0 26 5 48 15 66s23.167 32.5 39.5 43.5s35.333 19 57 24s44.167 7.5 67.5 7.5c25.333 0 48.833 -1.83301 70.5 -5.5s41.5 -9.16699 59.5 -16.5v50c0 32 -10.833 56.167 -32.5 72.5s-48.167 24.5 -79.5 24.5c-20.667 0 -39.5 -3 -56.5 -9
s-34.5 -15.667 -52.5 -29l-29 65c24 16.667 48.667 28.667 74 36s52.333 11 81 11c22.667 0 45.167 -3 67.5 -9s42.166 -15.5 59.499 -28.5s31.333 -29.833 42 -50.5s16 -45.334 16 -74.001v-303h-85zM317.003 583.002c0 18 -5.83301 33 -17.5 45s-26.167 18 -43.5 18
s-31.833 -6 -43.5 -18s-17.5 -27 -17.5 -45c0 -17.333 5.66699 -32 17 -44s26 -18 44 -18s32.667 6 44 18s17 26.667 17 44zM367.003 584.002c0 -16 -3.00195 -30.167 -9.00195 -42.5s-14.167 -22.833 -24.5 -31.5s-22.166 -15.167 -35.499 -19.5s-27.333 -6.5 -42 -6.5
s-28.667 2.16699 -42 6.5s-25.166 10.833 -35.499 19.5s-18.5 19.167 -24.5 31.5s-9 26.5 -9 42.5s3 30.167 9 42.5s14 22.833 24 31.5s21.667 15.167 35 19.5s27.333 6.5 42 6.5c30 0 56.167 -8.66699 78.5 -26s33.5 -42 33.5 -74z" />
    <glyph glyph-name="ae" unicode="&#xe6;" horiz-adv-x="814" 
d="M364 135c-6.66699 15.333 -10.998 29.668 -12.998 43.001c-17.333 6.66699 -35.5 12.167 -54.5 16.5s-39.833 6.5 -62.5 6.5c-12 0 -24.5 -1 -37.5 -3s-24.833 -5.5 -35.5 -10.5s-19.334 -12.333 -26.001 -22s-10 -21.834 -10 -36.501
c0 -12.667 3.16699 -23.334 9.5 -32.001s14.166 -15.667 23.499 -21s19.833 -9.16602 31.5 -11.499s22.5 -3.5 32.5 -3.5c30 0 56.333 6.33301 79 19s43.667 31 63 55zM688.002 295.002c-3.33301 32 -16.5 57.5 -39.5 76.5s-51.5 28.5 -85.5 28.5
c-34.667 0 -63.167 -9.5 -85.5 -28.5s-36.5 -44.5 -42.5 -76.5h253zM734.002 -4.99805c-32 -4 -64 -6.00098 -96 -6.00098c-48.667 0 -94 7.5 -136 22.5s-76.667 38.5 -104 70.5c-24.667 -28 -52.834 -50.667 -84.501 -68s-70.834 -26 -117.501 -26
c-20 0 -39.667 2.83301 -59 8.5s-36.5 14.167 -51.5 25.5s-27 25.5 -36 42.5s-13.5 37.167 -13.5 60.5c0 26 5 48 15 66s23.167 32.5 39.5 43.5s35.333 19 57 24s44.167 7.5 67.5 7.5c25.333 0 48.833 -1.83301 70.5 -5.5s41.5 -9.16699 59.5 -16.5v50
c0 32 -10.833 56.167 -32.5 72.5s-48.167 24.5 -79.5 24.5c-20.667 0 -39.5 -3 -56.5 -9s-34.5 -15.667 -52.5 -29l-29 65c24 16.667 48.667 28.667 74 36s52.333 11 81 11c32 0 61.5 -6.16699 88.5 -18.5s47.167 -30.833 60.5 -55.5c17.333 22 39.333 39.833 66 53.5
s58 20.5 94 20.5c70 0 125 -20.5 165 -61.5s60.667 -99.167 62 -174.5h-353c0 -6.66699 0.333008 -11.667 1 -15c4 -26 12.667 -48.667 26 -68s30 -35.166 50 -47.499s42.333 -21.5 67 -27.5s50.667 -9 78 -9c12.667 0 25.334 0.5 38.001 1.5s25.334 2.16699 38.001 3.5z
" />
    <glyph glyph-name="ccedilla" unicode="&#xe7;" horiz-adv-x="453" 
d="M417 368c-17.333 6 -34.668 10.332 -52.001 12.999s-34.666 4 -51.999 4c-54 0 -98 -12.833 -132 -38.5s-51 -64.5 -51 -116.5c0 -26 5.16699 -49.333 15.5 -70s24.666 -38.167 42.999 -52.5s40.333 -25.166 66 -32.499s53.834 -11 84.501 -11
c12.667 0 25.5 0.5 38.5 1.5s25.833 3.16699 38.5 6.5l2 -74c-16 -2.66699 -32.5 -4.83398 -49.5 -6.50098s-33.5 -2.5 -49.5 -2.5c-41.333 0 -79.5 5.33301 -114.5 16s-65.167 26.334 -90.5 47.001s-45.166 46.334 -59.499 77.001s-21.5 66 -21.5 106
c0 38 6.5 71.333 19.5 100s31 52.5 54 71.5s50.167 33.167 81.5 42.5s65.666 14 102.999 14c23.333 0 46.333 -1.33301 69 -4s45 -7.33398 67 -14.001zM325.998 -49.001c0 -22.667 -4.00098 -42.167 -12.001 -58.5s-18.833 -29.833 -32.5 -40.5s-29.667 -18.5 -48 -23.5
s-38.166 -7.5 -59.499 -7.5c-20.667 0 -42.667 2.66699 -66 8l7 61c15.333 -3.33301 30 -5 44 -5c32 0 57 7 75 21s25.667 37 23 69l69 -10v-14z" />
    <glyph glyph-name="egrave" unicode="&#xe8;" horiz-adv-x="507" 
d="M382 295c-3.33301 32 -16.5 57.5 -39.5 76.5s-51.5 28.5 -85.5 28.5c-34.667 0 -63.167 -9.5 -85.5 -28.5s-36.5 -44.5 -42.5 -76.5h253zM126 229c0.666992 -2.66699 1.00098 -5.16797 1.00098 -7.50098s0.333008 -4.83301 1 -7.5c4 -26 12.667 -48.667 26 -68
s29.833 -35.166 49.5 -47.499s41.834 -21.5 66.501 -27.5s50.667 -9 78 -9c13.333 0 26.333 0.5 39 1.5s25.334 2.16699 38.001 3.5l3 -72c-32 -4 -64 -6 -96 -6c-38.667 0 -76 5 -112 15s-67.833 25.333 -95.5 46s-49.834 46.667 -66.501 78s-25 68 -25 110
c0 33.333 5.33301 64 16 92s25.5 52 44.5 72s42 35.5 69 46.5s57.167 16.5 90.5 16.5c69.333 0 124.166 -20.5 164.499 -61.5s61.166 -99.167 62.499 -174.5h-354zM241.001 481.999l-109 176l74 26l91 -180z" />
    <glyph glyph-name="eacute" unicode="&#xe9;" horiz-adv-x="507" 
d="M382 295c-3.33301 32 -16.5 57.5 -39.5 76.5s-51.5 28.5 -85.5 28.5c-34.667 0 -63.167 -9.5 -85.5 -28.5s-36.5 -44.5 -42.5 -76.5h253zM126 229c0.666992 -2.66699 1.00098 -5.16797 1.00098 -7.50098s0.333008 -4.83301 1 -7.5c4 -26 12.667 -48.667 26 -68
s29.833 -35.166 49.5 -47.499s41.834 -21.5 66.501 -27.5s50.667 -9 78 -9c13.333 0 26.333 0.5 39 1.5s25.334 2.16699 38.001 3.5l3 -72c-32 -4 -64 -6 -96 -6c-38.667 0 -76 5 -112 15s-67.833 25.333 -95.5 46s-49.834 46.667 -66.501 78s-25 68 -25 110
c0 33.333 5.33301 64 16 92s25.5 52 44.5 72s42 35.5 69 46.5s57.167 16.5 90.5 16.5c69.333 0 124.166 -20.5 164.499 -61.5s61.166 -99.167 62.499 -174.5h-354zM274.001 481.999l-57 22l91 180l74 -26z" />
    <glyph glyph-name="ecircumflex" unicode="&#xea;" horiz-adv-x="507" 
d="M382 295c-3.33301 32 -16.5 57.5 -39.5 76.5s-51.5 28.5 -85.5 28.5c-34.667 0 -63.167 -9.5 -85.5 -28.5s-36.5 -44.5 -42.5 -76.5h253zM126 229c0.666992 -2.66699 1.00098 -5.16797 1.00098 -7.50098s0.333008 -4.83301 1 -7.5c4 -26 12.667 -48.667 26 -68
s29.833 -35.166 49.5 -47.499s41.834 -21.5 66.501 -27.5s50.667 -9 78 -9c13.333 0 26.333 0.5 39 1.5s25.334 2.16699 38.001 3.5l3 -72c-32 -4 -64 -6 -96 -6c-38.667 0 -76 5 -112 15s-67.833 25.333 -95.5 46s-49.834 46.667 -66.501 78s-25 68 -25 110
c0 33.333 5.33301 64 16 92s25.5 52 44.5 72s42 35.5 69 46.5s57.167 16.5 90.5 16.5c69.333 0 124.166 -20.5 164.499 -61.5s61.166 -99.167 62.499 -174.5h-354zM346.001 481.999l-89 130l-91 -130l-56 22l115 185h63l114 -185z" />
    <glyph glyph-name="edieresis" unicode="&#xeb;" horiz-adv-x="507" 
d="M382 295c-3.33301 32 -16.5 57.5 -39.5 76.5s-51.5 28.5 -85.5 28.5c-34.667 0 -63.167 -9.5 -85.5 -28.5s-36.5 -44.5 -42.5 -76.5h253zM126 229c0.666992 -2.66699 1.00098 -5.16797 1.00098 -7.50098s0.333008 -4.83301 1 -7.5c4 -26 12.667 -48.667 26 -68
s29.833 -35.166 49.5 -47.499s41.834 -21.5 66.501 -27.5s50.667 -9 78 -9c13.333 0 26.333 0.5 39 1.5s25.334 2.16699 38.001 3.5l3 -72c-32 -4 -64 -6 -96 -6c-38.667 0 -76 5 -112 15s-67.833 25.333 -95.5 46s-49.834 46.667 -66.501 78s-25 68 -25 110
c0 33.333 5.33301 64 16 92s25.5 52 44.5 72s42 35.5 69 46.5s57.167 16.5 90.5 16.5c69.333 0 124.166 -20.5 164.499 -61.5s61.166 -99.167 62.499 -174.5h-354zM229.001 617.999c0 -19.333 -5.33203 -34.333 -15.999 -45s-23.334 -16 -38.001 -16
s-27.167 5.33301 -37.5 16s-15.5 25.667 -15.5 45c0 20.667 5.16699 36 15.5 46s22.833 15 37.5 15c14 0 26.5 -5 37.5 -15s16.5 -25.333 16.5 -46zM390.002 617.999c0 -19.333 -5.16602 -34.333 -15.499 -45s-22.833 -16 -37.5 -16s-27.334 5.33301 -38.001 16
s-16 25.667 -16 45c0 20.667 5.5 36 16.5 46s23.5 15 37.5 15c14.667 0 27.167 -5 37.5 -15s15.5 -25.333 15.5 -46z" />
    <glyph glyph-name="igrave" unicode="&#xec;" horiz-adv-x="258" 
d="M84 0v452h91v-452h-91zM102 482l-109 176l74 26l91 -180z" />
    <glyph glyph-name="iacute" unicode="&#xed;" horiz-adv-x="258" 
d="M84 0v452h91v-452h-91zM156 482l-57 22l91 180l74 -26z" />
    <glyph glyph-name="icircumflex" unicode="&#xee;" horiz-adv-x="258" 
d="M84 0v452h91v-452h-91zM220 482l-89 130l-91 -130l-56 22l115 185h63l114 -185z" />
    <glyph glyph-name="idieresis" unicode="&#xef;" horiz-adv-x="258" 
d="M84 0v452h91v-452h-91zM104 618c0 -19.333 -5.33203 -34.333 -15.999 -45s-23.334 -16 -38.001 -16s-27.167 5.33301 -37.5 16s-15.5 25.667 -15.5 45c0 20.667 5.16699 36 15.5 46s22.833 15 37.5 15c14 0 26.5 -5 37.5 -15s16.5 -25.333 16.5 -46zM265.001 618
c0 -19.333 -5.16602 -34.333 -15.499 -45s-22.833 -16 -37.5 -16s-27.334 5.33301 -38.001 16s-16 25.667 -16 45c0 20.667 5.5 36 16.5 46s23.5 15 37.5 15c14.667 0 27.167 -5 37.5 -15s15.5 -25.333 15.5 -46z" />
    <glyph glyph-name="eth" unicode="&#xf0;" horiz-adv-x="522" 
d="M397 224c0 16 -2.33203 32.833 -6.99902 50.5s-12.5 34 -23.5 49s-25.833 27.5 -44.5 37.5s-42 15 -70 15s-51.333 -5 -70 -15s-33.5 -22.5 -44.5 -37.5s-18.667 -31.333 -23 -49s-6.5 -34.5 -6.5 -50.5c0 -15.333 2.33301 -32.666 7 -51.999s12.5 -37.5 23.5 -54.5
s25.667 -31.167 44 -42.5s41.5 -17 69.5 -17s51.167 5.66699 69.5 17s33.166 25.5 44.499 42.5s19.333 35.167 24 54.5s7 36.666 7 51.999zM494.001 279c0 -39.333 -4.66797 -76.666 -14.001 -111.999s-23.833 -66.5 -43.5 -93.5s-44.667 -48.333 -75 -64
s-66.833 -23.5 -109.5 -23.5c-35.333 0 -67.666 5.83301 -96.999 17.5s-54.5 28 -75.5 49s-37.5 46.333 -49.5 76s-18 62.167 -18 97.5c0 32.667 5.33301 62.667 16 90s25.834 50.666 45.501 69.999s43 34.5 70 45.5s57.167 16.5 90.5 16.5s64.166 -5.83301 92.499 -17.5
s52.5 -29.167 72.5 -52.5c-1.33301 25.333 -5.16602 52.333 -11.499 81s-17.833 54.334 -34.5 77.001l-157 -59l-22 66l119 46c-16.667 9.33301 -34 15.666 -52 18.999s-37.667 5 -59 5c-12 0 -24.5 -0.666992 -37.5 -2s-24.833 -3.33301 -35.5 -6l-6 74c28 4 56.333 6 85 6
c30 0 62.667 -4 98 -12s69.333 -24.667 102 -50l110 42l21 -66l-87 -35c12.667 -19.333 23.167 -40.5 31.5 -63.5s14.666 -47 18.999 -72s7.33301 -50.167 9 -75.5s2.5 -50 2.5 -74z" />
    <glyph glyph-name="ntilde" unicode="&#xf1;" horiz-adv-x="559" 
d="M405 0l0.00195312 281.001c0 34.667 -11.333 60.667 -34 78s-50.334 26 -83.001 26c-33.333 0 -59.833 -6.5 -79.5 -19.5s-35.167 -28.5 -46.5 -46.5v-319h-91v452h85v-55c15.333 17.333 36.166 32.666 62.499 45.999s58.5 20 96.5 20c26 0 50 -3.66699 72 -11
s41 -17.833 57 -31.5s28.5 -30.5 37.5 -50.5s13.5 -43 13.5 -69v-301h-90zM459.002 675.001c-2 -15.333 -5.16699 -29.999 -9.5 -43.999s-10.5 -26.333 -18.5 -37s-18 -19.167 -30 -25.5s-26.333 -9.5 -43 -9.5c-23.333 0 -47 3.16699 -71 9.5s-47 9.5 -69 9.5
c-17.333 0 -30 -5.16699 -38 -15.5s-12.667 -23.5 -14 -39.5l-54 13c2 16 5.16699 31 9.5 45s10.5 26.167 18.5 36.5s17.833 18.666 29.5 24.999s26.167 9.5 43.5 9.5c23.333 0 47 -3.16699 71 -9.5s47 -9.5 69 -9.5c17.333 0 30 5.33301 38 16s12.667 23.667 14 39z" />
    <glyph glyph-name="ograve" unicode="&#xf2;" horiz-adv-x="547" 
d="M418 233c0 16.667 -2.33301 34.332 -7 52.999s-12.5 35.834 -23.5 51.501s-25.667 28.667 -44 39s-41.5 15.5 -69.5 15.5s-51.333 -5.16699 -70 -15.5s-33.5 -23.5 -44.5 -39.5s-18.667 -33.333 -23 -52s-6.5 -36.334 -6.5 -53.001c0 -16 2.16699 -34.167 6.5 -54.5
s12 -39.166 23 -56.499s25.833 -32 44.5 -44s42 -18 70 -18s51.167 6 69.5 18s33 26.833 44 44.5s18.833 36.5 23.5 56.5s7 38.333 7 55zM514 234.998c0 -32 -4.99902 -63 -14.999 -93s-25 -56.5 -45 -79.5s-45 -41.5 -75 -55.5s-65 -21 -105 -21s-75.167 7 -105.5 21
s-55.5 32.5 -75.5 55.5s-35 49.5 -45 79.5s-15 61 -15 93s5.16699 61.833 15.5 89.5s25.666 52 45.999 73s45.5 37.5 75.5 49.5s64.667 18 104 18s74 -6 104 -18s55 -28.5 75 -49.5s35.167 -45.333 45.5 -73s15.5 -57.5 15.5 -89.5zM252.001 481.998l-109 176l74 26l91 -180
z" />
    <glyph glyph-name="oacute" unicode="&#xf3;" horiz-adv-x="547" 
d="M418 233c0 16.667 -2.33301 34.332 -7 52.999s-12.5 35.834 -23.5 51.501s-25.667 28.667 -44 39s-41.5 15.5 -69.5 15.5s-51.333 -5.16699 -70 -15.5s-33.5 -23.5 -44.5 -39.5s-18.667 -33.333 -23 -52s-6.5 -36.334 -6.5 -53.001c0 -16 2.16699 -34.167 6.5 -54.5
s12 -39.166 23 -56.499s25.833 -32 44.5 -44s42 -18 70 -18s51.167 6 69.5 18s33 26.833 44 44.5s18.833 36.5 23.5 56.5s7 38.333 7 55zM514 234.998c0 -32 -4.99902 -63 -14.999 -93s-25 -56.5 -45 -79.5s-45 -41.5 -75 -55.5s-65 -21 -105 -21s-75.167 7 -105.5 21
s-55.5 32.5 -75.5 55.5s-35 49.5 -45 79.5s-15 61 -15 93s5.16699 61.833 15.5 89.5s25.666 52 45.999 73s45.5 37.5 75.5 49.5s64.667 18 104 18s74 -6 104 -18s55 -28.5 75 -49.5s35.167 -45.333 45.5 -73s15.5 -57.5 15.5 -89.5zM286.001 481.998l-57 22l91 180l74 -26z
" />
    <glyph glyph-name="ocircumflex" unicode="&#xf4;" horiz-adv-x="547" 
d="M418 233c0 16.667 -2.33301 34.332 -7 52.999s-12.5 35.834 -23.5 51.501s-25.667 28.667 -44 39s-41.5 15.5 -69.5 15.5s-51.333 -5.16699 -70 -15.5s-33.5 -23.5 -44.5 -39.5s-18.667 -33.333 -23 -52s-6.5 -36.334 -6.5 -53.001c0 -16 2.16699 -34.167 6.5 -54.5
s12 -39.166 23 -56.499s25.833 -32 44.5 -44s42 -18 70 -18s51.167 6 69.5 18s33 26.833 44 44.5s18.833 36.5 23.5 56.5s7 38.333 7 55zM514 234.998c0 -32 -4.99902 -63 -14.999 -93s-25 -56.5 -45 -79.5s-45 -41.5 -75 -55.5s-65 -21 -105 -21s-75.167 7 -105.5 21
s-55.5 32.5 -75.5 55.5s-35 49.5 -45 79.5s-15 61 -15 93s5.16699 61.833 15.5 89.5s25.666 52 45.999 73s45.5 37.5 75.5 49.5s64.667 18 104 18s74 -6 104 -18s55 -28.5 75 -49.5s35.167 -45.333 45.5 -73s15.5 -57.5 15.5 -89.5zM362.001 481.998l-89 130l-91 -130
l-56 22l115 185h63l114 -185z" />
    <glyph glyph-name="otilde" unicode="&#xf5;" horiz-adv-x="547" 
d="M418 233c0 16.667 -2.33301 34.332 -7 52.999s-12.5 35.834 -23.5 51.501s-25.667 28.667 -44 39s-41.5 15.5 -69.5 15.5s-51.333 -5.16699 -70 -15.5s-33.5 -23.5 -44.5 -39.5s-18.667 -33.333 -23 -52s-6.5 -36.334 -6.5 -53.001c0 -16 2.16699 -34.167 6.5 -54.5
s12 -39.166 23 -56.499s25.833 -32 44.5 -44s42 -18 70 -18s51.167 6 69.5 18s33 26.833 44 44.5s18.833 36.5 23.5 56.5s7 38.333 7 55zM514 234.998c0 -32 -4.99902 -63 -14.999 -93s-25 -56.5 -45 -79.5s-45 -41.5 -75 -55.5s-65 -21 -105 -21s-75.167 7 -105.5 21
s-55.5 32.5 -75.5 55.5s-35 49.5 -45 79.5s-15 61 -15 93s5.16699 61.833 15.5 89.5s25.666 52 45.999 73s45.5 37.5 75.5 49.5s64.667 18 104 18s74 -6 104 -18s55 -28.5 75 -49.5s35.167 -45.333 45.5 -73s15.5 -57.5 15.5 -89.5zM446.001 674.998
c-2 -15.333 -5.16699 -29.999 -9.5 -43.999s-10.5 -26.333 -18.5 -37s-18 -19.167 -30 -25.5s-26.333 -9.5 -43 -9.5c-23.333 0 -47 3.16699 -71 9.5s-47 9.5 -69 9.5c-17.333 0 -30 -5.16699 -38 -15.5s-12.667 -23.5 -14 -39.5l-54 13c2 16 5.16699 31 9.5 45
s10.5 26.167 18.5 36.5s17.833 18.666 29.5 24.999s26.167 9.5 43.5 9.5c23.333 0 47 -3.16699 71 -9.5s47 -9.5 69 -9.5c17.333 0 30 5.33301 38 16s12.667 23.667 14 39z" />
    <glyph glyph-name="odieresis" unicode="&#xf6;" horiz-adv-x="547" 
d="M418 233c0 16.667 -2.33301 34.332 -7 52.999s-12.5 35.834 -23.5 51.501s-25.667 28.667 -44 39s-41.5 15.5 -69.5 15.5s-51.333 -5.16699 -70 -15.5s-33.5 -23.5 -44.5 -39.5s-18.667 -33.333 -23 -52s-6.5 -36.334 -6.5 -53.001c0 -16 2.16699 -34.167 6.5 -54.5
s12 -39.166 23 -56.499s25.833 -32 44.5 -44s42 -18 70 -18s51.167 6 69.5 18s33 26.833 44 44.5s18.833 36.5 23.5 56.5s7 38.333 7 55zM514 234.998c0 -32 -4.99902 -63 -14.999 -93s-25 -56.5 -45 -79.5s-45 -41.5 -75 -55.5s-65 -21 -105 -21s-75.167 7 -105.5 21
s-55.5 32.5 -75.5 55.5s-35 49.5 -45 79.5s-15 61 -15 93s5.16699 61.833 15.5 89.5s25.666 52 45.999 73s45.5 37.5 75.5 49.5s64.667 18 104 18s74 -6 104 -18s55 -28.5 75 -49.5s35.167 -45.333 45.5 -73s15.5 -57.5 15.5 -89.5zM242.001 617.998
c0 -19.333 -5.33203 -34.333 -15.999 -45s-23.334 -16 -38.001 -16s-27.167 5.33301 -37.5 16s-15.5 25.667 -15.5 45c0 20.667 5.16699 36 15.5 46s22.833 15 37.5 15c14 0 26.5 -5 37.5 -15s16.5 -25.333 16.5 -46zM403.002 617.998
c0 -19.333 -5.16602 -34.333 -15.499 -45s-22.833 -16 -37.5 -16s-27.334 5.33301 -38.001 16s-16 25.667 -16 45c0 20.667 5.5 36 16.5 46s23.5 15 37.5 15c14.667 0 27.167 -5 37.5 -15s15.5 -25.333 15.5 -46z" />
    <glyph glyph-name="oslash" unicode="&#xf8;" horiz-adv-x="547" 
d="M409 233c0 18 -2.83301 36.833 -8.5 56.5s-15.5 37.167 -29.5 52.5l-178 -262c20 -12.667 44 -19 72 -19s51.167 5.83301 69.5 17.5s33 26.167 44 43.5s18.833 36 23.5 56s7 38.333 7 55zM339 372c-9.33301 5.33301 -20.168 9.66699 -32.501 13s-26.166 5 -41.499 5
c-28 0 -51.333 -5.16699 -70 -15.5s-33.5 -23.166 -44.5 -38.499s-18.667 -32.333 -23 -51s-6.5 -36.334 -6.5 -53.001c0 -18 3 -38.167 9 -60.5s16.333 -42.5 31 -60.5zM505.998 235.001c0 -32 -4.99805 -62.8311 -14.998 -92.498s-25.167 -56 -45.5 -79
s-45.5 -41.333 -75.5 -55s-65 -20.5 -105 -20.5c-22.667 0 -43.334 2.33301 -62.001 7s-36 10.667 -52 18l-57 -84l-34 28l53 79c-30 23.333 -52.333 52.666 -67 87.999s-22 72.333 -22 111c0 32 5.16699 61.833 15.5 89.5s25.666 51.667 45.999 72s45.5 36.5 75.5 48.5
s64.667 18 104 18c46 0 85 -8 117 -24l54 82l34 -27l-50 -76c28.667 -20.667 50.167 -46.834 64.5 -78.501s21.5 -66.5 21.5 -104.5z" />
    <glyph glyph-name="ugrave" unicode="&#xf9;" horiz-adv-x="538" 
d="M474 154c0 -23.333 -3.99902 -45.167 -11.999 -65.5s-20.5 -38 -37.5 -53s-38.333 -26.667 -64 -35s-56.5 -12.5 -92.5 -12.5c-34.667 0 -64.834 4.33301 -90.501 13s-46.834 20.5 -63.501 35.5s-29.167 32.5 -37.5 52.5s-12.5 41.667 -12.5 65v298h91v-286
c0 -32.667 10.833 -58 32.5 -76s48.834 -27 81.501 -27c34 0 61.5 8.5 82.5 25.5s31.5 42.5 31.5 76.5v287h91v-298zM244.001 481.999l-109 176l74 26l91 -180z" />
    <glyph glyph-name="uacute" unicode="&#xfa;" horiz-adv-x="538" 
d="M474 154c0 -23.333 -3.99902 -45.167 -11.999 -65.5s-20.5 -38 -37.5 -53s-38.333 -26.667 -64 -35s-56.5 -12.5 -92.5 -12.5c-34.667 0 -64.834 4.33301 -90.501 13s-46.834 20.5 -63.501 35.5s-29.167 32.5 -37.5 52.5s-12.5 41.667 -12.5 65v298h91v-286
c0 -32.667 10.833 -58 32.5 -76s48.834 -27 81.501 -27c34 0 61.5 8.5 82.5 25.5s31.5 42.5 31.5 76.5v287h91v-298zM286.001 481.999l-57 22l91 180l74 -26z" />
    <glyph glyph-name="ucircumflex" unicode="&#xfb;" horiz-adv-x="538" 
d="M474 154c0 -23.333 -3.99902 -45.167 -11.999 -65.5s-20.5 -38 -37.5 -53s-38.333 -26.667 -64 -35s-56.5 -12.5 -92.5 -12.5c-34.667 0 -64.834 4.33301 -90.501 13s-46.834 20.5 -63.501 35.5s-29.167 32.5 -37.5 52.5s-12.5 41.667 -12.5 65v298h91v-286
c0 -32.667 10.833 -58 32.5 -76s48.834 -27 81.501 -27c34 0 61.5 8.5 82.5 25.5s31.5 42.5 31.5 76.5v287h91v-298zM358.001 481.999l-89 130l-91 -130l-56 22l115 185h63l114 -185z" />
    <glyph glyph-name="udieresis" unicode="&#xfc;" horiz-adv-x="538" 
d="M474 154c0 -23.333 -3.99902 -45.167 -11.999 -65.5s-20.5 -38 -37.5 -53s-38.333 -26.667 -64 -35s-56.5 -12.5 -92.5 -12.5c-34.667 0 -64.834 4.33301 -90.501 13s-46.834 20.5 -63.501 35.5s-29.167 32.5 -37.5 52.5s-12.5 41.667 -12.5 65v298h91v-286
c0 -32.667 10.833 -58 32.5 -76s48.834 -27 81.501 -27c34 0 61.5 8.5 82.5 25.5s31.5 42.5 31.5 76.5v287h91v-298zM244.001 617.999c0 -19.333 -5.33203 -34.333 -15.999 -45s-23.334 -16 -38.001 -16s-27.167 5.33301 -37.5 16s-15.5 25.667 -15.5 45
c0 20.667 5.16699 36 15.5 46s22.833 15 37.5 15c14 0 26.5 -5 37.5 -15s16.5 -25.333 16.5 -46zM405.002 617.999c0 -19.333 -5.16602 -34.333 -15.499 -45s-22.833 -16 -37.5 -16s-27.334 5.33301 -38.001 16s-16 25.667 -16 45c0 20.667 5.5 36 16.5 46s23.5 15 37.5 15
c14.667 0 27.167 -5 37.5 -15s15.5 -25.333 15.5 -46z" />
    <glyph glyph-name="yacute" unicode="&#xfd;" horiz-adv-x="471" 
d="M281 2c-17.333 -42.667 -34.666 -78.667 -51.999 -108s-36 -56.666 -56 -81.999h-85c20.667 25.333 40.667 54.166 60 86.499s35.666 66.833 48.999 103.5l-189 450h94l139 -341l133 341h90zM260 482l-57 22l91 180l74 -26z" />
    <glyph glyph-name="thorn" unicode="&#xfe;" horiz-adv-x="546" 
d="M416 228c0 23.333 -4.00098 44.833 -12.001 64.5s-19.167 36.667 -33.5 51s-31.833 25.5 -52.5 33.5s-43.667 12 -69 12c-31.333 0 -60.333 -4.33301 -87 -13v-301c28.667 -8.66699 59.334 -13 92.001 -13c25.333 0 48 4.33301 68 13s37 20.5 51 35.5
s24.667 32.667 32 53s11 41.833 11 64.5zM512.999 234c0 -37.333 -6.33594 -71.165 -19.0029 -101.498s-30.167 -56.333 -52.5 -78s-49.166 -38.5 -80.499 -50.5s-65.666 -18 -102.999 -18c-16 0 -32.167 1 -48.5 3s-32.166 5.33301 -47.499 10v-187h-91v862h91v-217
c14 2.66699 28.167 4.66699 42.5 6s28.833 2 43.5 2c36.667 0 71.167 -4.83301 103.5 -14.5s60.5 -24.334 84.5 -44.001s42.833 -43.834 56.5 -72.501s20.5 -62 20.5 -100z" />
    <glyph glyph-name="ydieresis" unicode="&#xff;" horiz-adv-x="471" 
d="M281 2c-17.333 -42.667 -34.666 -78.667 -51.999 -108s-36 -56.666 -56 -81.999h-85c20.667 25.333 40.667 54.166 60 86.499s35.666 66.833 48.999 103.5l-189 450h94l139 -341l133 341h90zM217 618c0 -19.333 -5.33203 -34.333 -15.999 -45s-23.334 -16 -38.001 -16
s-27.167 5.33301 -37.5 16s-15.5 25.667 -15.5 45c0 20.667 5.16699 36 15.5 46s22.833 15 37.5 15c14 0 26.5 -5 37.5 -15s16.5 -25.333 16.5 -46zM378.001 618c0 -19.333 -5.16602 -34.333 -15.499 -45s-22.833 -16 -37.5 -16s-27.334 5.33301 -38.001 16
s-16 25.667 -16 45c0 20.667 5.5 36 16.5 46s23.5 15 37.5 15c14.667 0 27.167 -5 37.5 -15s15.5 -25.333 15.5 -46z" />
    <glyph glyph-name="dotlessi" unicode="&#x131;" horiz-adv-x="258" 
d="M84 0v452h91v-452h-91z" />
    <glyph glyph-name="Lslash" unicode="&#x141;" horiz-adv-x="594" 
d="M84 0v277l-53 -24l-30 70l83 40v311h100v-261l171 80l31 -69l-202 -96v-234h384v-94h-484z" />
    <glyph glyph-name="lslash" unicode="&#x142;" horiz-adv-x="233" 
d="M161 383v-182.998c0 -42.667 2.33301 -79.334 7 -110.001s13 -60.667 25 -90h-85c-13.333 29.333 -23 59.666 -29 90.999s-9 66.333 -9 105v142l-50 -24l-29 63l79 38v259h91v-214l57 27l28 -64z" />
    <glyph glyph-name="OE" unicode="&#x152;" horiz-adv-x="1103" 
d="M554 590h-179c-36 0 -68.167 -6.83301 -96.5 -20.5s-52.333 -32 -72 -55s-34.667 -49.333 -45 -79s-15.5 -60.167 -15.5 -91.5c0 -33.333 5.16699 -65.5 15.5 -96.5s25.333 -58.667 45 -83s43.667 -43.833 72 -58.5s60.5 -22 96.5 -22h179v506zM365 0
c-48 0 -91.834 8.5 -131.501 25.5s-73.667 40.833 -102 71.5s-50.5 67.167 -66.5 109.5s-24 88.5 -24 138.5c0 48 8 92.167 24 132.5s38.333 75 67 104s62.834 51.667 102.501 68s83.167 24.5 130.5 24.5h671v-88h-381v-169h381v-85h-381v-244h381v-88h-671z" />
    <glyph glyph-name="oe" unicode="&#x153;" horiz-adv-x="890" 
d="M418 233c0 16.667 -2.33301 34.332 -7 52.999s-12.5 35.834 -23.5 51.501s-25.667 28.667 -44 39s-41.5 15.5 -69.5 15.5s-51.333 -5.16699 -70 -15.5s-33.5 -23.5 -44.5 -39.5s-18.667 -33.333 -23 -52s-6.5 -36.334 -6.5 -53.001c0 -16 2.16699 -34.167 6.5 -54.5
s12 -39.166 23 -56.499s25.833 -32 44.5 -44s42 -18 70 -18s51.167 6 69.5 18s33 26.833 44 44.5s18.833 36.5 23.5 56.5s7 38.333 7 55zM765 294.998c-3.33301 32 -16.668 57.5 -40.001 76.5s-51.666 28.5 -84.999 28.5c-35.333 0 -64 -9.5 -86 -28.5s-36 -44.5 -42 -76.5
h253zM809.998 -5.00195c-32 -4 -63.999 -6.00098 -95.999 -6.00098c-52 0 -99.333 8.66699 -142 26s-76.667 44.333 -102 81c-17.333 -30 -42 -55.833 -74 -77.5s-72.667 -32.5 -122 -32.5c-40 0 -75.167 7 -105.5 21s-55.5 32.5 -75.5 55.5s-35 49.5 -45 79.5
s-15 61 -15 93s5.16699 61.833 15.5 89.5s25.666 52 45.999 73s45.5 37.5 75.5 49.5s64.667 18 104 18c46 0 84.333 -8.33301 115 -25s55 -37.667 73 -63c17.333 26.667 40.666 48 69.999 64s64 24 104 24c69.333 0 124.166 -20.5 164.499 -61.5s60.833 -99.167 61.5 -174.5
h-353c0.666992 -3.33301 1 -8.33301 1 -15c4 -26 12.667 -48.667 26 -68s30 -35.166 50 -47.499s42.333 -21.5 67 -27.5s50.667 -9 78 -9c12.667 0 25.334 0.5 38.001 1.5s25.334 2.16699 38.001 3.5z" />
    <glyph glyph-name="Scaron" unicode="&#x160;" horiz-adv-x="602" 
d="M554 194c0 -41.333 -10.3369 -75.165 -31.0039 -101.498s-46.667 -47.166 -78 -62.499s-66 -26 -104 -32s-74 -9 -108 -9c-30.667 0 -61 1.66699 -91 5s-59.667 7.66602 -89 12.999l9 88c28 -6.66699 56.5 -11.834 85.5 -15.501s59.5 -5.5 91.5 -5.5
c23.333 0 47 1.33301 71 4s45.833 7.66699 65.5 15s35.667 17.5 48 30.5s18.5 30.167 18.5 51.5c0 17.333 -5.16699 32.333 -15.5 45s-24 23.834 -41 33.501s-36.667 18.5 -59 26.5l-69.5 26c-25.333 10 -50.166 20.5 -74.499 31.5s-46.166 24 -65.499 39s-35 32.333 -47 52
s-18 42.5 -18 68.5c0 38.667 9.66699 70.167 29 94.5s43.666 43.5 72.999 57.5s61 23.5 95 28.5s66 7.5 96 7.5s60.5 -1.33301 91.5 -4s60.5 -6.66699 88.5 -12l-7 -90c-59.333 13.333 -118.666 20 -177.999 20c-22.667 0 -44.5 -1.33301 -65.5 -4
s-39.667 -7.16699 -56 -13.5s-29.5 -15.166 -39.5 -26.499s-15 -25.333 -15 -42c0 -15.333 4.16699 -28.333 12.5 -39s19.833 -20.334 34.5 -29.001s31.834 -16.834 51.501 -24.501l62.5 -23.5c24 -8.66699 49.5 -18.5 76.5 -29.5s51.833 -24.333 74.5 -40
s41.334 -34.334 56.001 -56.001s22 -47.5 22 -77.5zM336.996 696.001h-63l-114 185l56 22l90 -130l90 130l56 -22z" />
    <glyph glyph-name="scaron" unicode="&#x161;" horiz-adv-x="441" 
d="M403 130c0 -28.667 -7.33887 -52.166 -22.0059 -70.499s-33.167 -32.666 -55.5 -42.999s-46.666 -17.5 -72.999 -21.5s-51.166 -6 -74.499 -6s-45.666 1.16699 -66.999 3.5s-42.666 5.16602 -63.999 8.49902l7 75c21.333 -5.33301 43 -9.33301 65 -12s43.667 -4 65 -4
c16 0 31.667 0.833008 47 2.5s29 4.83398 41 9.50098s21.667 10.834 29 18.501s11 17.5 11 29.5c0 10 -2.66699 18.667 -8 26s-13.333 14 -24 20s-23.5 11.833 -38.5 17.5l-52.5 19.5c-17.333 6 -34.5 12.667 -51.5 20s-32.333 16 -46 26s-24.667 21.833 -33 35.5
s-12.5 29.834 -12.5 48.501c0 27.333 7 49.5 21 66.5s31.333 30.167 52 39.5s43.167 15.666 67.5 18.999s46.833 5 67.5 5c44.667 0 88 -4 130 -12l-6 -75c-20.667 4.66699 -41.334 8.33398 -62.001 11.001s-42.667 4 -66 4c-15.333 0 -29.666 -0.833008 -42.999 -2.5
s-25.166 -4.33398 -35.499 -8.00098s-18.5 -8.66699 -24.5 -15s-9 -14.5 -9 -24.5c0 -9.33301 2.5 -17.333 7.5 -24s12.167 -12.667 21.5 -18s20.5 -10.333 33.5 -15l43.5 -15c18.667 -6 37.334 -12.833 56.001 -20.5s35.667 -16.834 51 -27.501
s27.833 -23.334 37.5 -38.001s14.5 -32.334 14.5 -53.001zM254.994 482.001h-63l-114 185l56 22l90 -130l90 130l56 -22z" />
    <glyph glyph-name="Ydieresis" unicode="&#x178;" horiz-adv-x="633" 
d="M207 0h-119l168 259l-246 415h121l186 -317l197 317h117zM304 784c0 -19.333 -5.33203 -34.333 -15.999 -45s-23.334 -16 -38.001 -16s-27.167 5.33301 -37.5 16s-15.5 25.667 -15.5 45c0 20.667 5.16699 36 15.5 46s22.833 15 37.5 15c14 0 26.5 -5 37.5 -15
s16.5 -25.333 16.5 -46zM465.001 784c0 -19.333 -5.16602 -34.333 -15.499 -45s-22.833 -16 -37.5 -16s-27.334 5.33301 -38.001 16s-16 25.667 -16 45c0 20.667 5.5 36 16.5 46s23.5 15 37.5 15c14.667 0 27.167 -5 37.5 -15s15.5 -25.333 15.5 -46z" />
    <glyph glyph-name="Zcaron" unicode="&#x17d;" horiz-adv-x="580" 
d="M186 88h358v-88h-518v19l368 567h-357v88h518v-20zM321 696h-63l-114 185l56 22l90 -130l90 130l56 -22z" />
    <glyph glyph-name="zcaron" unicode="&#x17e;" horiz-adv-x="452" 
d="M170 75h251v-75h-394v15l258 362h-252v75h395v-17zM260 482h-63l-114 185l56 22l90 -130l90 130l56 -22z" />
    <glyph glyph-name="florin" unicode="&#x192;" horiz-adv-x="495" 
d="M487 414c-15.333 4 -32.168 7.16699 -50.501 9.5s-35.5 3.5 -51.5 3.5c-48.667 0 -88.5 -12.5 -119.5 -37.5s-46.5 -59.167 -46.5 -102.5v-29h220v-62h-220v-196h-98v196h-113v62h113v30c0 34.667 6.5 65.667 19.5 93s30.833 50.5 53.5 69.5s49.334 33.5 80.001 43.5
s63.667 15 99 15c40.667 0 80.667 -4 120 -12z" />
    <glyph glyph-name="circumflex" unicode="&#x2c6;" 
d="M340 482l-89 130l-91 -130l-56 22l115 185h63l114 -185z" />
    <glyph glyph-name="caron" unicode="&#x2c7;" 
d="M281 482h-63l-114 185l56 22l90 -130l90 130l56 -22z" />
    <glyph glyph-name="breve" unicode="&#x2d8;" 
d="M388 684c-2 -30 -6.99805 -54.5 -14.998 -73.5s-18.333 -33.833 -31 -44.5s-26.834 -18 -42.501 -22s-32.167 -6 -49.5 -6s-34 2 -50 6s-30.333 11.5 -43 22.5s-23 25.833 -31 44.5s-12.667 43 -14 73h47c2 -15.333 5.66699 -28.333 11 -39
s12.166 -19.334 20.499 -26.001s17.5 -11.5 27.5 -14.5s20.667 -4.5 32 -4.5c22 0 41.5 6.33301 58.5 19s27.833 34.334 32.5 65.001h47z" />
    <glyph glyph-name="dotaccent" unicode="&#x2d9;" 
d="M310 654c0 -18.667 -6 -33.167 -18 -43.5s-26 -15.5 -42 -15.5s-30 5.16699 -42 15.5s-18 24.833 -18 43.5c0 19.333 6 33.833 18 43.5s25.667 14.5 41 14.5c16 0 30.167 -4.83301 42.5 -14.5s18.5 -24.167 18.5 -43.5z" />
    <glyph glyph-name="ring" unicode="&#x2da;" 
d="M311 583c0 18 -5.83301 33 -17.5 45s-26.167 18 -43.5 18s-31.833 -6 -43.5 -18s-17.5 -27 -17.5 -45c0 -17.333 5.66699 -32 17 -44s26 -18 44 -18s32.667 6 44 18s17 26.667 17 44zM361 584c0 -16 -3.00195 -30.167 -9.00195 -42.5s-14.167 -22.833 -24.5 -31.5
s-22.166 -15.167 -35.499 -19.5s-27.333 -6.5 -42 -6.5s-28.667 2.16699 -42 6.5s-25.166 10.833 -35.499 19.5s-18.5 19.167 -24.5 31.5s-9 26.5 -9 42.5s3 30.167 9 42.5s14 22.833 24 31.5s21.667 15.167 35 19.5s27.333 6.5 42 6.5c30 0 56.167 -8.66699 78.5 -26
s33.5 -42 33.5 -74z" />
    <glyph glyph-name="ogonek" unicode="&#x2db;" 
d="M359 -171c-23.333 -5.33301 -45.334 -8 -66.001 -8c-21.333 0 -41.166 2.5 -59.499 7.5s-34.333 12.833 -48 23.5s-24.5 24.167 -32.5 40.5s-12 35.833 -12 58.5v14l69 10c-2.66699 -32 5 -55 23 -69s43 -21 75 -21c14 0 28.667 1.66699 44 5z" />
    <glyph glyph-name="tilde" unicode="&#x2dc;" 
d="M422 675c-2 -15.333 -5.16699 -29.999 -9.5 -43.999s-10.5 -26.333 -18.5 -37s-18 -19.167 -30 -25.5s-26.333 -9.5 -43 -9.5c-23.333 0 -47 3.16699 -71 9.5s-47 9.5 -69 9.5c-17.333 0 -30 -5.16699 -38 -15.5s-12.667 -23.5 -14 -39.5l-54 13c2 16 5.16699 31 9.5 45
s10.5 26.167 18.5 36.5s17.833 18.666 29.5 24.999s26.167 9.5 43.5 9.5c23.333 0 47 -3.16699 71 -9.5s47 -9.5 69 -9.5c17.333 0 30 5.33301 38 16s12.667 23.667 14 39z" />
    <glyph glyph-name="hungarumlaut" unicode="&#x2dd;" 
d="M153 482l-57 22l95 180l70 -26zM294 482l-55 22l94 180l71 -26z" />
    <glyph glyph-name="pi" unicode="&#x3c0;" horiz-adv-x="783" 
d="M518 414c0 21.333 -6.83203 38.167 -20.499 50.5s-32.5 18.5 -56.5 18.5h-120v-148h122c23.333 0 41.666 7.83301 54.999 23.5s20 34.167 20 55.5zM591.001 413.001c0 -18 -3.16797 -35 -9.50098 -51s-15.166 -29.833 -26.499 -41.5s-25.5 -21 -42.5 -28
s-35.833 -10.5 -56.5 -10.5h-135v-136h-71v391h206c42 0 75 -11.167 99 -33.5s36 -52.5 36 -90.5zM677 337.001c0 38.667 -7.5 75.167 -22.5 109.5s-35.333 64.333 -61 90s-55.834 45.834 -90.501 60.501s-71.667 22 -111 22s-76.333 -7.33301 -111 -22
s-65 -34.834 -91 -60.501s-46.5 -55.667 -61.5 -90s-22.5 -70.833 -22.5 -109.5c0 -39.333 7.5 -76.166 22.5 -110.499s35.5 -64.166 61.5 -89.499s56.333 -45.5 91 -60.5s71.667 -22.5 111 -22.5s76.333 7.5 111 22.5s64.834 35.167 90.501 60.5s46 55.166 61 89.499
s22.5 71.166 22.5 110.499zM731 337.001c0 -47.333 -8.83301 -91.5 -26.5 -132.5s-41.834 -77 -72.501 -108s-66.667 -55.333 -108 -73s-85.333 -26.5 -132 -26.5c-47.333 0 -91.5 9 -132.5 27s-77 42.333 -108 73s-55.333 66.667 -73 108s-26.5 85.333 -26.5 132
s8.83301 90.667 26.5 132s42 77.333 73 108s67 54.834 108 72.501s85.167 26.5 132.5 26.5c46.667 0 90.667 -8.83301 132 -26.5s77.333 -41.834 108 -72.501s54.834 -66.667 72.501 -108s26.5 -85.333 26.5 -132z" />
    <glyph glyph-name="endash" unicode="&#x2013;" horiz-adv-x="559" 
d="M37 226v73h485v-73h-485z" />
    <glyph glyph-name="emdash" unicode="&#x2014;" horiz-adv-x="1094" 
d="M37 226v73h1019v-73h-1019z" />
    <glyph glyph-name="quoteleft" unicode="&#x2018;" horiz-adv-x="264" 
d="M217 655c-18 -24.667 -32.6641 -49 -43.9971 -73s-17 -50.667 -17 -80c0 -17.333 1.5 -32.5 4.5 -45.5s6.5 -26.167 10.5 -39.5h-81c-2.66699 9.33301 -5.33398 19.666 -8.00098 30.999s-4 24.333 -4 39c0 20.667 2.66699 40.5 8 59.5s12.166 36.833 20.499 53.5
s17.666 32.334 27.999 47.001s20.833 28.667 31.5 42z" />
    <glyph glyph-name="quoteright" unicode="&#x2019;" horiz-adv-x="264" 
d="M186 604c0 -21.333 -2.66699 -41.333 -8 -60s-12.166 -36.334 -20.499 -53.001s-17.833 -32.5 -28.5 -47.5s-21.334 -28.833 -32.001 -41.5l-50 34c18 24.667 32.5 49 43.5 73s16.5 50.667 16.5 80c0 17.333 -1.5 32.5 -4.5 45.5l-9.5 39.5h81
c2 -9.33301 4.5 -19.666 7.5 -30.999s4.5 -24.333 4.5 -39z" />
    <glyph glyph-name="quotesinglbase" unicode="&#x201a;" horiz-adv-x="263" 
d="M185 41c0 -21.333 -2.66895 -41.3311 -8.00195 -59.998s-12.166 -36.334 -20.499 -53.001s-17.666 -32.5 -27.999 -47.5s-20.833 -28.833 -31.5 -41.5l-50 33c18 24.667 32.5 49.167 43.5 73.5s16.5 50.833 16.5 79.5c0 17.333 -1.5 32.666 -4.5 45.999
s-6.16699 26.666 -9.5 39.999h81c2 -9.33301 4.33301 -19.666 7 -30.999s4 -24.333 4 -39z" />
    <glyph glyph-name="quotedblleft" unicode="&#x201c;" horiz-adv-x="439" 
d="M217 655c-18 -24.667 -32.5 -49 -43.5 -73s-16.5 -50.667 -16.5 -80c0 -17.333 1.5 -32.5 4.5 -45.5l9.5 -39.5h-81c-2 9.33301 -4.33301 19.666 -7 30.999s-4 24.333 -4 39c0 20.667 2.5 40.5 7.5 59.5s11.667 36.833 20 53.5s17.833 32.334 28.5 47.001l32 42zM389 655
c-18 -24.667 -32.499 -49 -43.499 -73s-16.5 -50.667 -16.5 -80c0 -17.333 1.5 -32.5 4.5 -45.5l9.5 -39.5h-81c-2 9.33301 -4.5 19.666 -7.5 30.999s-4.5 24.333 -4.5 39c0 20.667 2.66699 40.5 8 59.5s12.166 36.833 20.499 53.5s17.833 32.334 28.5 47.001l32 42z" />
    <glyph glyph-name="quotedblright" unicode="&#x201d;" horiz-adv-x="439" 
d="M189 604c0 -21.333 -2.66699 -41.333 -8 -60s-12.166 -36.334 -20.499 -53.001s-17.833 -32.5 -28.5 -47.5s-21.334 -28.833 -32.001 -41.5l-50 34c18 24.667 32.5 49 43.5 73s16.5 50.667 16.5 80c0 17.333 -1.5 32.5 -4.5 45.5l-9.5 39.5h81
c2 -9.33301 4.5 -19.666 7.5 -30.999s4.5 -24.333 4.5 -39zM360 604c0 -21.333 -2.49902 -41.333 -7.49902 -60s-11.667 -36.334 -20 -53.001s-17.833 -32.5 -28.5 -47.5s-21.334 -28.833 -32.001 -41.5l-50 34c18 24.667 32.5 49 43.5 73s16.5 50.667 16.5 80
c0 17.333 -1.5 32.5 -4.5 45.5l-9.5 39.5h81c2 -9.33301 4.33301 -19.666 7 -30.999s4 -24.333 4 -39z" />
    <glyph glyph-name="quotedblbase" unicode="&#x201e;" horiz-adv-x="439" 
d="M189 41c0 -21.333 -2.66699 -41.3311 -8 -59.998s-12.166 -36.334 -20.499 -53.001s-17.833 -32.5 -28.5 -47.5s-21.334 -28.833 -32.001 -41.5l-50 33c18 24.667 32.5 49.167 43.5 73.5s16.5 50.833 16.5 79.5c0 17.333 -1.5 32.666 -4.5 45.999
s-6.16699 26.666 -9.5 39.999h81c2 -9.33301 4.5 -19.666 7.5 -30.999s4.5 -24.333 4.5 -39zM360 41.002c0 -21.333 -2.49902 -41.3311 -7.49902 -59.998s-11.667 -36.334 -20 -53.001s-17.833 -32.5 -28.5 -47.5s-21.334 -28.833 -32.001 -41.5l-50 33
c18 24.667 32.5 49.167 43.5 73.5s16.5 50.833 16.5 79.5c0 17.333 -1.5 32.666 -4.5 45.999s-6.16699 26.666 -9.5 39.999h81c2 -9.33301 4.33301 -19.666 7 -30.999s4 -24.333 4 -39z" />
    <glyph glyph-name="dagger" unicode="&#x2020;" horiz-adv-x="534" 
d="M307 360v-546h-79v546h-194v82h194v238h79v-238h194v-82h-194z" />
    <glyph glyph-name="daggerdbl" unicode="&#x2021;" horiz-adv-x="534" 
d="M307 16v-202h-79v202h-194v82h194v299h-194v84h194v199h79v-199h194v-84h-194v-299h194v-82h-194z" />
    <glyph glyph-name="bullet" unicode="&#x2022;" horiz-adv-x="527" 
d="M391 270c0 -18 -3.33301 -35 -10 -51s-15.834 -30 -27.501 -42s-25.167 -21.333 -40.5 -28s-31.666 -10 -48.999 -10c-18 0 -34.667 3.33301 -50 10s-28.833 16 -40.5 28s-20.834 26 -27.501 42s-10 33 -10 51s3.33301 35 10 51s15.834 30 27.501 42
s25.167 21.5 40.5 28.5s32 10.5 50 10.5c17.333 0 33.666 -3.5 48.999 -10.5s28.833 -16.5 40.5 -28.5s20.834 -26 27.501 -42s10 -33 10 -51z" />
    <glyph glyph-name="ellipsis" unicode="&#x2026;" horiz-adv-x="909" 
d="M235 52c0 -15.333 -5.16602 -28.5 -15.499 -39.5s-22.5 -16.5 -36.5 -16.5s-26 5.33301 -36 16s-15 24 -15 40c0 15.333 5.16699 28.333 15.5 39s22.166 16 35.499 16c14 0 26.167 -5.33301 36.5 -16s15.5 -23.667 15.5 -39zM505.001 52
c0 -15.333 -4.83203 -28.5 -14.499 -39.5s-21.834 -16.5 -36.501 -16.5c-14 0 -25.833 5.33301 -35.5 16s-14.5 24 -14.5 40c0 15.333 5 28.333 15 39s22 16 36 16s25.833 -5.33301 35.5 -16s14.5 -23.667 14.5 -39zM777.002 52c0 -15.333 -5.16699 -28.5 -15.5 -39.5
s-22.5 -16.5 -36.5 -16.5c-13.333 0 -25.166 5.33301 -35.499 16s-15.5 24 -15.5 40c0 15.333 5.16699 28.333 15.5 39s22.5 16 36.5 16c13.333 0 25.166 -5.33301 35.499 -16s15.5 -23.667 15.5 -39z" />
    <glyph glyph-name="perthousand" unicode="&#x2030;" horiz-adv-x="1168" 
d="M278 488c0 15.333 -0.832031 31.165 -2.49902 47.498s-5 31.333 -10 45s-12.167 24.834 -21.5 33.501s-22 13 -38 13s-28.667 -4.33301 -38 -13s-16.5 -19.834 -21.5 -33.501s-8.33301 -28.667 -10 -45s-2.5 -32.166 -2.5 -47.499s0.666992 -31.166 2 -47.499
s4.5 -31.166 9.5 -44.499s12.333 -24.333 22 -33s22.5 -13 38.5 -13c23.333 0 41.166 11.167 53.499 33.5s18.5 57.166 18.5 104.499zM685.001 194.999c0 15.333 -0.833984 31.166 -2.50098 47.499s-5 31.333 -10 45s-12.167 24.834 -21.5 33.501s-22 13 -38 13
c-23.333 0 -41.166 -11.167 -53.499 -33.5s-18.5 -57.5 -18.5 -105.5c0 -15.333 0.833008 -31.166 2.5 -47.499s5 -31.166 10 -44.499s12.167 -24.333 21.5 -33s22 -13 38 -13s28.667 4.33301 38 13s16.5 19.667 21.5 33s8.33301 28.166 10 44.499s2.5 32.166 2.5 47.499z
M1034 194.999c0 15.333 -0.666992 31.166 -2 47.499s-4.5 31.333 -9.5 45s-12.167 24.834 -21.5 33.501s-22 13 -38 13c-23.333 0 -41.333 -11.167 -54 -33.5s-19 -57.5 -19 -105.5c0 -15.333 0.833008 -31.166 2.5 -47.499s5 -31.166 10 -44.499s12.333 -24.333 22 -33
s22.5 -13 38.5 -13s28.667 4.33301 38 13s16.5 19.667 21.5 33s8.16699 28.166 9.5 44.499s2 32.166 2 47.499zM359 487.999c0 -22 -2.83496 -44.666 -8.50195 -67.999s-14.667 -44.5 -27 -63.5s-28.166 -34.667 -47.499 -47s-42.666 -18.5 -69.999 -18.5
s-50.666 6.16699 -69.999 18.5s-35.166 28 -47.499 47s-21.333 40.167 -27 63.5s-8.5 46 -8.5 68c0 33.333 4.33301 62.5 13 87.5s20 45.667 34 62s30.167 28.5 48.5 36.5s37.5 12 57.5 12c27.333 0 50.666 -6 69.999 -18s35.166 -27.5 47.499 -46.5s21.333 -40.333 27 -64
s8.5 -46.834 8.5 -69.501zM241.998 -22l-50 31l387 701l50 -31zM765.998 195c0 -33.333 -4.33008 -62.333 -12.9971 -87s-20 -45.167 -34 -61.5s-30.167 -28.5 -48.5 -36.5s-37.5 -12 -57.5 -12c-27.333 0 -50.5 6 -69.5 18s-34.667 27.5 -47 46.5s-21.333 40.167 -27 63.5
s-8.5 46.333 -8.5 69c0 22 2.83301 44.833 8.5 68.5s14.5 45 26.5 64s27.667 34.667 47 47s42.666 18.5 69.999 18.5s50.666 -6.16699 69.999 -18.5s35.166 -28 47.499 -47s21.333 -40.333 27 -64s8.5 -46.5 8.5 -68.5zM1116 195c0 -33.333 -4.33301 -62.333 -13 -87
s-20.167 -45.167 -34.5 -61.5s-30.666 -28.5 -48.999 -36.5s-37.166 -12 -56.499 -12c-27.333 0 -50.666 6 -69.999 18s-35.166 27.5 -47.499 46.5s-21.333 40.167 -27 63.5s-8.5 46.333 -8.5 69c0 22 2.83301 44.833 8.5 68.5s14.667 45 27 64s28.166 34.667 47.499 47
s42.666 18.5 69.999 18.5s50.666 -6.16699 69.999 -18.5s35.166 -28 47.499 -47s21.333 -40.333 27 -64s8.5 -46.5 8.5 -68.5z" />
    <glyph glyph-name="guilsinglleft" unicode="&#x2039;" horiz-adv-x="301" 
d="M172 58l-103 192l103 192l59 -30l-77 -162l77 -162z" />
    <glyph glyph-name="guilsinglright" unicode="&#x203a;" horiz-adv-x="301" 
d="M129 58l-60 30l78 162l-78 162l60 30l102 -192z" />
    <glyph glyph-name="fraction" unicode="&#x2044;" horiz-adv-x="320" 
d="M-7 -22l-50 31l387 701l50 -31z" />
    <glyph glyph-name="fraction" unicode="&#x2215;" horiz-adv-x="320" 
d="M-7 -22l-50 31l387 701l50 -31z" />
    <glyph glyph-name="Euro" unicode="&#x20ac;" horiz-adv-x="543" 
d="M495 5c-22.667 -6.66699 -45.665 -11.332 -68.998 -13.999s-46 -4 -68 -4c-32 0 -62.333 3.83301 -91 11.5s-54.834 19 -78.501 34s-44.167 33.333 -61.5 55s-30.666 46.167 -39.999 73.5h-77v57h65c-2 11.333 -2.83301 23 -2.5 35s1.5 23.667 3.5 35h-66v57h76
c18 54 50.667 94.833 98 122.5s104 41.5 170 41.5c24 0 48.5 -1.5 73.5 -4.5s49.167 -7.83301 72.5 -14.5l-9 -74c-18.667 5.33301 -38.167 9.5 -58.5 12.5s-40.833 4.5 -61.5 4.5c-42 0 -78.333 -7.66699 -109 -23s-53 -37 -67 -65h260v-57h-279
c-2.66699 -11.333 -4 -23 -4 -35s1 -23.667 3 -35h280v-57h-256c13.333 -28.667 35.166 -52.334 65.499 -71.001s68.833 -28 115.5 -28c17.333 0 35.666 1.33301 54.999 4s37.333 6.66699 54 12z" />
    <glyph glyph-name="trademark" unicode="&#x2122;" horiz-adv-x="838" 
d="M250 604v-375h-83v375h-97v70h278v-70h-98zM661 229v279l-92 -122h-13l-90 120v-277h-81v451h18l160 -194l160 194h19v-451h-81z" />
    <glyph glyph-name="product" unicode="&#x220f;" 
 />
    <glyph glyph-name="minus" unicode="&#x2212;" horiz-adv-x="538" 
d="M38 228v82h463v-82h-463z" />
    <glyph glyph-name="radical" unicode="&#x221a;" horiz-adv-x="555" 
d="M393 -180h-69l-198 517h-93v81h152l169 -460l161 716h77z" />
    <glyph glyph-name=".null" horiz-adv-x="0" 
 />
    <glyph glyph-name="nonmarkingreturn" horiz-adv-x="264" 
 />
    <glyph glyph-name="apple" horiz-adv-x="820" 
d="M389 313h-287l287 -279v279zM430 637v-279h287zM410 -70l-405 405l405 405l405 -405z" />
  </font>
</defs>
</svg>
